<svg width="268" height="326" viewBox="0 0 268 326" fill="none" xmlns="http://www.w3.org/2000/svg">
<g filter="url(#filter0_d_1298_12603)">
<g clip-path="url(#clip0_1298_12603)">
<rect x="6" y="5" width="256" height="314" rx="16" fill="#FFFAEF"/>
<g filter="url(#filter1_d_1298_12603)">
<circle cx="85.1472" cy="297.147" r="90.1472" stroke="#FFD9B4" stroke-width="2" shape-rendering="crispEdges"/>
</g>
<g filter="url(#filter2_d_1298_12603)">
<circle cx="194.66" cy="320.954" r="66.3401" stroke="#FFD9B4" stroke-width="2" shape-rendering="crispEdges"/>
</g>
<path d="M133.722 189.857C170.043 189.857 199.486 175.251 199.486 157.234C199.486 139.217 170.043 124.611 133.722 124.611C97.4009 124.611 67.957 139.217 67.957 157.234C67.957 175.251 97.4009 189.857 133.722 189.857Z" fill="white" stroke="black" stroke-width="6.84926" stroke-miterlimit="10"/>
<path d="M92.2624 144.549L96.5406 145.576C96.9855 145.576 97.3479 145.938 97.3479 146.383V152.953C97.3479 153.398 97.7102 153.76 98.1552 153.76H105.653C106.098 153.76 106.46 153.398 106.46 152.953V145.359C106.46 144.914 106.823 144.552 107.268 144.552L111.546 145.579C111.991 145.579 112.353 145.941 112.353 146.386V166.321C112.353 166.766 111.991 167.128 111.546 167.128H107.268C106.823 167.128 106.46 166.766 106.46 166.321V159.275C106.46 158.83 106.098 158.467 105.653 158.467H98.1552C97.7102 158.467 97.3479 158.83 97.3479 159.275V166.321C97.3479 166.766 96.9855 167.128 96.5406 167.128H92.2624C91.8174 167.128 91.4551 166.766 91.4551 166.321V145.363C91.4551 144.918 91.8174 144.555 92.2624 144.555V144.549Z" fill="#F7941D"/>
<path d="M122.336 172.452C121.22 173.237 119.834 173.628 118.181 173.628C117.215 173.628 116.313 173.482 115.477 173.193C114.841 172.974 114.218 172.659 113.608 172.246C113.274 172.02 113.179 171.572 113.388 171.225L114.984 168.575C115.2 168.215 115.67 168.091 116.026 168.317C116.214 168.435 116.395 168.53 116.573 168.603C116.939 168.753 117.323 168.829 117.733 168.829C118.677 168.829 119.377 168.387 119.828 167.51L120.082 167.024C120.187 166.823 120.197 166.585 120.108 166.378L113.481 150.76C113.268 150.261 113.636 149.704 114.18 149.704L118.398 151.074C118.715 151.074 119.001 151.274 119.11 151.573L122.329 158.985C122.577 159.662 123.54 159.643 123.763 158.96L126.614 150.229C126.716 149.917 127.008 149.704 127.335 149.704L131.375 151.074C131.909 151.074 132.278 151.611 132.081 152.11L125.012 168.835C124.348 170.466 123.454 171.674 122.339 172.459L122.336 172.452Z" fill="#F7941D"/>
<path d="M139.116 153.436C138.624 153.436 138.226 153.528 137.924 153.709C137.622 153.89 137.473 154.167 137.473 154.529C137.473 154.917 137.708 155.228 138.182 155.464C138.652 155.699 139.405 155.956 140.435 156.236C141.681 156.601 142.717 156.961 143.544 157.313C144.37 157.666 145.085 158.203 145.686 158.925C146.287 159.643 146.589 160.584 146.589 161.744C146.589 163.505 145.905 164.884 144.545 165.882C143.181 166.88 141.405 167.38 139.215 167.38C137.734 167.38 136.316 167.17 134.962 166.75C133.865 166.41 132.867 165.94 131.968 165.339C131.609 165.097 131.488 164.627 131.676 164.236L132.728 162.075C132.953 161.614 133.522 161.452 133.964 161.716C134.705 162.157 135.471 162.513 136.262 162.787C137.346 163.162 138.372 163.349 139.339 163.349C139.898 163.349 140.343 163.257 140.677 163.076C141.011 162.895 141.176 162.631 141.176 162.288C141.176 161.859 140.934 161.525 140.451 161.29C139.968 161.054 139.212 160.797 138.182 160.517C136.958 160.152 135.947 159.793 135.156 159.44C134.361 159.087 133.668 158.553 133.077 157.844C132.486 157.135 132.19 156.214 132.19 155.076C132.19 153.315 132.855 151.936 134.186 150.938C135.518 149.94 137.235 149.44 139.339 149.44C140.607 149.44 141.856 149.612 143.089 149.955C144.046 150.222 144.961 150.585 145.832 151.046C146.255 151.268 146.417 151.793 146.198 152.215L145.047 154.44C144.831 154.86 144.316 155.025 143.89 154.822C141.977 153.897 140.384 153.436 139.113 153.436H139.116Z" fill="#F7941D"/>
<path d="M153.53 142.534C154.099 143.103 154.382 143.837 154.382 144.74C154.382 145.642 154.096 146.351 153.53 146.93C152.961 147.508 152.236 147.8 151.356 147.8C150.476 147.8 149.751 147.511 149.182 146.93C148.613 146.351 148.33 145.62 148.33 144.74C148.33 143.859 148.613 143.103 149.182 142.534C149.751 141.965 150.476 141.682 151.356 141.682C152.236 141.682 152.961 141.968 153.53 142.534ZM149.328 149.701L153.476 151.071C153.905 151.071 154.251 151.417 154.251 151.847V166.347C154.251 166.776 153.905 167.122 153.476 167.122H149.328C148.899 167.122 148.553 166.776 148.553 166.347V150.477C148.553 150.048 148.899 149.701 149.328 149.701Z" fill="#F7941D"/>
<path d="M171.399 150.62C172.622 151.36 173.573 152.412 174.25 153.776C174.927 155.139 175.264 156.713 175.264 158.493C175.264 160.273 174.936 161.798 174.282 163.13C173.627 164.462 172.692 165.492 171.478 166.223C170.264 166.954 168.866 167.319 167.276 167.319C166.183 167.319 165.188 167.109 164.298 166.69C163.408 166.27 162.652 165.666 162.029 164.872V173.374H156.295V149.704H162.029V151.958C163.294 150.327 165.001 149.51 167.149 149.51C168.761 149.51 170.175 149.882 171.399 150.623V150.62ZM168.452 161.487C169.148 160.692 169.498 159.65 169.498 158.362C169.498 157.075 169.148 156.026 168.452 155.222C167.753 154.418 166.847 154.014 165.732 154.014C164.616 154.014 163.745 154.418 163.059 155.222C162.372 156.026 162.029 157.075 162.029 158.362C162.029 159.65 162.372 160.692 163.059 161.487C163.745 162.281 164.635 162.679 165.732 162.679C166.828 162.679 167.756 162.281 168.452 161.487Z" fill="#F7941D"/>
<path d="M133.722 198.611C138.732 198.611 142.793 194.549 142.793 189.539C142.793 184.53 138.732 180.468 133.722 180.468C128.712 180.468 124.65 184.53 124.65 189.539C124.65 194.549 128.712 198.611 133.722 198.611Z" fill="#F79520"/>
</g>
<rect x="6" y="5" width="256" height="314" rx="16" stroke="#FFFAEF" shape-rendering="crispEdges"/>
</g>
<defs>
<filter id="filter0_d_1298_12603" x="0.5" y="0.5" width="267" height="325" filterUnits="userSpaceOnUse" color-interpolation-filters="sRGB">
<feFlood flood-opacity="0" result="BackgroundImageFix"/>
<feColorMatrix in="SourceAlpha" type="matrix" values="0 0 0 0 0 0 0 0 0 0 0 0 0 0 0 0 0 0 127 0" result="hardAlpha"/>
<feOffset dy="1"/>
<feGaussianBlur stdDeviation="2.5"/>
<feComposite in2="hardAlpha" operator="out"/>
<feColorMatrix type="matrix" values="0 0 0 0 0 0 0 0 0 0 0 0 0 0 0 0 0 0 0.15 0"/>
<feBlend mode="normal" in2="BackgroundImageFix" result="effect1_dropShadow_1298_12603"/>
<feBlend mode="normal" in="SourceGraphic" in2="effect1_dropShadow_1298_12603" result="shape"/>
</filter>
<filter id="filter1_d_1298_12603" x="-12.802" y="200.558" width="195.899" height="195.898" filterUnits="userSpaceOnUse" color-interpolation-filters="sRGB">
<feFlood flood-opacity="0" result="BackgroundImageFix"/>
<feColorMatrix in="SourceAlpha" type="matrix" values="0 0 0 0 0 0 0 0 0 0 0 0 0 0 0 0 0 0 127 0" result="hardAlpha"/>
<feOffset dy="1.36041"/>
<feGaussianBlur stdDeviation="3.40102"/>
<feComposite in2="hardAlpha" operator="out"/>
<feColorMatrix type="matrix" values="0 0 0 0 0 0 0 0 0 0 0 0 0 0 0 0 0 0 0.15 0"/>
<feBlend mode="normal" in2="BackgroundImageFix" result="effect1_dropShadow_1298_12603"/>
<feBlend mode="normal" in="SourceGraphic" in2="effect1_dropShadow_1298_12603" result="shape"/>
</filter>
<filter id="filter2_d_1298_12603" x="120.518" y="248.173" width="148.284" height="148.284" filterUnits="userSpaceOnUse" color-interpolation-filters="sRGB">
<feFlood flood-opacity="0" result="BackgroundImageFix"/>
<feColorMatrix in="SourceAlpha" type="matrix" values="0 0 0 0 0 0 0 0 0 0 0 0 0 0 0 0 0 0 127 0" result="hardAlpha"/>
<feOffset dy="1.36041"/>
<feGaussianBlur stdDeviation="3.40102"/>
<feComposite in2="hardAlpha" operator="out"/>
<feColorMatrix type="matrix" values="0 0 0 0 0 0 0 0 0 0 0 0 0 0 0 0 0 0 0.15 0"/>
<feBlend mode="normal" in2="BackgroundImageFix" result="effect1_dropShadow_1298_12603"/>
<feBlend mode="normal" in="SourceGraphic" in2="effect1_dropShadow_1298_12603" result="shape"/>
</filter>
<clipPath id="clip0_1298_12603">
<rect x="6" y="5" width="256" height="314" rx="16" fill="white"/>
</clipPath>
</defs>
</svg>
