<svg width="268" height="326" viewBox="0 0 268 326" fill="none" xmlns="http://www.w3.org/2000/svg">
<g filter="url(#filter0_d_1298_12601)">
<g clip-path="url(#clip0_1298_12601)">
<rect x="6" y="5" width="256" height="314" rx="16" fill="#FFFAEF"/>
<g filter="url(#filter1_d_1298_12601)">
<circle cx="85.1472" cy="297.147" r="90.1472" stroke="#FFD9B4" stroke-width="2" shape-rendering="crispEdges"/>
</g>
<g filter="url(#filter2_d_1298_12601)">
<circle cx="194.66" cy="320.954" r="66.3401" stroke="#FFD9B4" stroke-width="2" shape-rendering="crispEdges"/>
</g>
<path fill-rule="evenodd" clip-rule="evenodd" d="M123.667 96.6064C106.4 100.627 93.5871 111.82 88.3232 127.38C83.6377 141.205 85.0549 155.753 92.4013 168.277C95.3514 173.31 96.2769 173.541 100.037 177.272C103.508 180.714 103.768 181.61 108.482 184.416C137.232 201.683 173.472 185.833 180.616 154.018C186.487 127.901 166.039 128.913 160.63 137.301C158.114 141.176 159.271 146.064 157.709 151.01C152.329 167.843 130.377 175.305 116.031 161.278C101.83 147.424 109.668 125.066 125.315 119.658C129.856 118.096 145.735 119.889 145.07 106.209C144.491 95.3627 134.137 94.1769 123.667 96.6064Z" fill="#F47E20"/>
<mask id="mask0_1298_12601" style="mask-type:luminance" maskUnits="userSpaceOnUse" x="85" y="95" width="97" height="97">
<path d="M123.667 96.6064C106.4 100.627 93.5871 111.82 88.3232 127.38C83.6377 141.205 85.0549 155.753 92.4013 168.277C95.3514 173.31 96.2769 173.541 100.037 177.272C103.508 180.714 103.768 181.61 108.482 184.416C137.232 201.683 173.472 185.833 180.616 154.018C186.487 127.901 166.039 128.913 160.63 137.301C158.114 141.176 159.271 146.064 157.709 151.01C152.329 167.843 130.377 175.305 116.031 161.278C101.83 147.424 109.668 125.066 125.315 119.658C129.856 118.096 145.735 119.889 145.07 106.209C144.491 95.3627 134.137 94.1769 123.667 96.6064Z" fill="white"/>
</mask>
<g mask="url(#mask0_1298_12601)">
<mask id="mask1_1298_12601" style="mask-type:luminance" maskUnits="userSpaceOnUse" x="63" y="87" width="97" height="97">
<path d="M111.69 87.2932C138.212 87.2932 159.701 108.783 159.701 135.305C159.701 161.827 138.212 183.317 111.69 183.317C85.1673 183.317 63.6777 161.827 63.6777 135.305C63.6777 108.783 85.1673 87.2932 111.69 87.2932Z" fill="white"/>
</mask>
<g mask="url(#mask1_1298_12601)">
<path d="M159.701 87.2932H63.6777V183.317H159.701V87.2932Z" fill="url(#paint0_linear_1298_12601)"/>
</g>
</g>
<path fill-rule="evenodd" clip-rule="evenodd" d="M159.588 92.0946C153.977 98.9203 157.477 109.68 149.263 118.761C141.425 127.438 130.752 124.633 123.145 130.157C114.324 136.578 114.411 149.333 121.352 156.419C128.612 163.823 141.02 163.389 147.614 154.915C153.485 147.395 149.986 136.78 158.055 128.306C161.844 124.315 166.934 122.232 171.099 121.278C175.177 120.323 179.979 120.034 183.97 116.997C192.878 110.2 193.052 97.8213 185.821 90.5327C178.33 83.0128 166.269 83.9673 159.588 92.0946Z" fill="black"/>
<path d="M199.214 220.396V217.33H207.37V213.31H199.214V210.418H208.064V206.368H194.759V224.416H208.324V220.367H199.214V220.396ZM185.215 220.28V206.397H180.732V224.445H193.458V220.309H185.215V220.28ZM173.761 224.416H178.245V206.368H173.761V224.416ZM167.543 218.921C167.543 220.193 166.849 220.685 164.911 220.685H161.556V217.157H164.911C166.849 217.128 167.543 217.648 167.543 218.921ZM164.275 210.157C166.242 210.157 166.907 210.62 166.907 211.777C166.907 212.934 166.242 213.425 164.275 213.425H161.556V210.157H164.275ZM172.171 219.586C172.171 217.185 170.811 215.681 168.295 215.19C170.349 214.582 171.477 213.194 171.477 211.112C171.477 208.219 169.307 206.368 165.808 206.368H157.102V224.416H166.444C169.973 224.416 172.171 222.565 172.171 219.586ZM150.739 215.421C150.739 218.429 148.772 220.54 145.88 220.54C142.959 220.54 141.021 218.429 141.021 215.421C141.021 212.413 142.988 210.244 145.88 210.244C148.801 210.244 150.739 212.413 150.739 215.421ZM136.307 215.421C136.22 220.714 140.385 224.879 145.88 224.763C151.375 224.879 155.511 220.685 155.453 215.421C155.54 210.128 151.375 205.906 145.88 206.021C140.385 205.934 136.249 210.157 136.307 215.421ZM129.22 206.397L124.361 215.103L119.502 206.397H114.094V224.445H118.519V212.818L122.684 220.251H126.01L130.175 212.818V224.445H134.6V206.397H129.22ZM91.8233 220.859C93.1537 223.346 96.1328 224.792 99.7481 224.792C104.318 224.792 107.037 222.42 107.037 218.95C107.037 216.26 105.446 214.467 102.149 213.657L99.1408 212.934C97.3765 212.529 96.8269 212.066 96.8269 211.401C96.8269 210.562 97.6657 210.013 99.3143 210.013C101.05 210.013 102.438 210.591 103.537 211.806L106.574 209.318C105.272 207.265 102.64 206.021 99.3432 206.021C94.947 206.021 92.2861 208.277 92.2861 211.517C92.2861 214.177 94.0214 216.029 97.4054 216.838L100.327 217.533C101.975 217.909 102.525 218.4 102.525 219.152C102.525 220.165 101.657 220.743 99.9217 220.743C97.8392 220.743 96.0171 219.875 94.8602 218.342L91.8233 220.859ZM76.4653 220.859C77.7958 223.346 80.7748 224.792 84.3901 224.792C88.9599 224.792 91.6787 222.42 91.6787 218.95C91.6787 216.26 90.0879 214.467 86.7907 213.657L83.7828 212.934C82.0185 212.529 81.4689 212.066 81.4689 211.401C81.4689 210.562 82.3077 210.013 83.9563 210.013C85.6917 210.013 87.08 210.591 88.179 211.806L91.2159 209.318C89.9144 207.265 87.2824 206.021 83.9852 206.021C79.589 206.021 76.9281 208.277 76.9281 211.517C76.9281 214.177 78.6634 216.029 82.0474 216.838L84.9686 217.533C86.6172 217.909 87.1667 218.4 87.1667 219.152C87.1667 220.165 86.299 220.743 84.5637 220.743C82.4812 220.743 80.6591 219.875 79.5022 218.342L76.4653 220.859ZM59.0249 215.421C58.9381 220.801 62.9294 224.85 68.4248 224.763C72.2136 224.763 75.1638 222.999 76.6099 219.702L72.7053 217.706C71.8666 219.557 70.3047 220.512 68.4248 220.512C65.6482 220.512 63.6525 218.371 63.6525 215.363C63.6525 212.355 65.6482 210.215 68.4248 210.215C70.3047 210.215 71.8666 211.17 72.7053 213.021L76.6099 211.025C75.1638 207.757 72.2136 205.963 68.4248 205.963C62.8137 205.934 58.9381 210.128 59.0249 215.421Z" fill="black"/>
<path fill-rule="evenodd" clip-rule="evenodd" d="M160.021 103.664L160.108 104.705C160.166 104.763 160.137 104.82 160.166 105.11C160.253 105.804 160.513 106.787 160.716 107.395C161.294 109.014 161.93 110.2 163.029 111.531C163.319 111.878 164.013 112.63 164.389 112.948C165.228 113.7 166.327 114.481 167.397 115.001C168.264 115.406 168.612 115.58 169.566 115.869C170.405 116.1 171.157 116.245 172.082 116.361C172.314 116.39 172.545 116.39 172.776 116.39C172.892 116.39 173.008 116.39 173.124 116.39L173.442 116.419H173.471L175.148 116.274C175.206 116.216 175.379 116.216 175.466 116.216L176.507 116.014C177.607 115.782 179.024 115.146 179.949 114.625C181.743 113.584 183.218 112.196 184.374 110.489C184.49 110.345 184.548 110.171 184.664 110.027C185.647 108.436 186.37 106.324 186.515 104.387C186.544 104.155 186.544 103.924 186.573 103.693L186.602 102.969L186.457 101.118C186.37 100.974 186.341 100.598 186.312 100.395C186.226 99.8168 185.965 99.0359 185.763 98.4864C185.474 97.6766 185.126 97.0403 184.722 96.2883C184.143 95.2471 183.102 94.0612 182.234 93.2514C182.09 93.1068 181.974 93.02 181.829 92.8754C181.366 92.4705 180.962 92.2391 180.47 91.892C178.706 90.7062 176.334 89.9831 174.223 89.8385C173.991 89.8096 173.76 89.8096 173.528 89.8096C173.355 89.8096 172.892 89.8674 172.805 89.8096L171.446 89.9253H171.417H171.388L170.723 90.041C169.248 90.3591 167.802 90.8508 166.558 91.6317C165.633 92.2102 164.62 92.9332 163.868 93.7431C163.695 93.9166 163.637 94.0034 163.492 94.148C162.943 94.7264 162.249 95.7098 161.844 96.404C160.947 97.9947 160.571 99.0359 160.224 100.887C160.079 101.61 159.993 102.709 160.05 103.49L160.021 103.664ZM181.193 102.738C181.395 102.651 181.685 102.478 181.771 102.275C181.974 101.813 181.569 101.118 180.788 101.581C180.586 101.726 180.354 101.841 180.123 101.986C179.891 102.131 179.689 102.246 179.458 102.391C179.226 102.536 179.024 102.651 179.024 102.969C179.024 103.288 179.226 103.519 179.487 103.577C179.891 103.664 180.036 103.345 180.239 103.345C180.325 104.589 180.354 105.312 180.007 106.527C179.863 107.019 179.718 107.395 179.487 107.8L178.995 108.638L178.387 109.39C178.272 109.535 178.069 109.708 177.925 109.853C176.826 110.808 175.495 111.444 173.904 111.588C172.805 111.675 171.735 111.502 170.868 111.126C170.347 110.894 169.826 110.692 169.392 110.316C169.277 110.2 169.016 110.056 168.872 109.911C168.785 109.824 168.727 109.766 168.64 109.68C168.554 109.593 168.496 109.535 168.409 109.448C167.802 108.754 167.512 108.465 167.05 107.51C166.847 107.048 166.674 106.614 166.529 106.093C166.413 105.63 166.269 104.878 166.298 104.387C166.645 104.502 166.905 104.705 167.252 104.387C167.541 104.126 167.455 103.693 167.194 103.49C167.079 103.403 165.546 102.796 165.343 102.709C164.938 102.565 164.591 102.796 164.505 103.114C164.447 103.317 164.533 103.519 164.649 103.635C164.881 103.895 165.228 103.837 165.257 104.011C165.257 104.068 165.257 104.242 165.257 104.329C165.228 106.296 166.095 108.465 167.368 109.882C168.293 110.894 169.161 111.531 170.52 112.08C173.384 113.208 176.507 112.485 178.706 110.46C180.181 109.13 181.077 107.163 181.28 105.139C181.309 104.705 181.309 104.358 181.309 103.895C181.309 103.548 181.222 103.143 181.193 102.738ZM169.508 95.0735C168.322 95.3049 168.004 97.2138 168.12 98.5153C168.38 101.523 170.463 102.767 171.301 100.28C171.706 99.0649 171.533 97.2427 170.925 96.1147C170.694 95.652 170.144 94.9578 169.508 95.0735ZM175.553 94.5818C174.251 94.8711 174.107 97.0113 174.194 98.0526C174.28 99.1516 174.917 101.263 176.218 101.118C176.826 101.032 177.202 100.309 177.375 99.7879C177.78 98.5153 177.607 96.78 176.999 95.5941C176.739 95.1314 176.189 94.4661 175.553 94.5818ZM172.053 90.5905C172.429 90.5037 173.152 90.5326 173.557 90.5326C174.743 90.5326 176.334 90.8219 177.375 91.1979C178.33 91.5449 179.168 91.9209 179.978 92.4415C180.152 92.5572 180.267 92.644 180.441 92.7597L181.309 93.4249C181.366 93.4828 181.366 93.4538 181.424 93.5117C181.453 93.5406 181.511 93.5695 181.54 93.5985C182.755 94.6975 183.391 95.4206 184.23 96.8667C184.606 97.503 185.011 98.4286 185.242 99.1227C185.792 100.771 186.052 103.056 185.792 104.763C185.474 106.874 184.837 108.523 183.68 110.258L183.102 111.039C183.073 111.097 183.044 111.097 183.015 111.155L182.639 111.588C181.887 112.456 180.499 113.555 179.544 114.076C178.069 114.857 176.45 115.493 174.57 115.667C172.603 115.811 171.157 115.695 169.248 115.059C166.905 114.278 164.389 112.427 163.029 110.345C162.74 109.882 162.711 109.882 162.422 109.361C162.046 108.696 161.67 107.915 161.41 107.105C161.005 105.862 161.005 105.601 160.831 104.358C160.716 103.49 160.773 102.333 160.889 101.494C161.149 99.2673 162.22 96.8089 163.666 95.1314C163.897 94.8421 164.157 94.5529 164.418 94.2926C165.257 93.4828 166.066 92.8175 167.137 92.2102C168.612 91.4003 169.74 90.9954 171.388 90.7062C171.562 90.6483 171.851 90.6483 172.053 90.5905Z" fill="white"/>
<path fill-rule="evenodd" clip-rule="evenodd" d="M133.357 132.008C130.841 132.21 129.452 132.905 127.63 133.946C127.283 134.148 127.225 134.206 126.936 134.409C125.143 135.681 123.552 137.85 122.8 139.875C122.222 141.437 121.874 143.201 122.019 145.197C122.222 147.8 123.292 150.403 124.94 152.254C125.316 152.688 125.634 153.035 126.097 153.44C127.833 154.973 129.886 155.985 132.345 156.419C135.034 156.882 137.637 156.361 140.038 155.175C141.571 154.394 143.133 153.035 144.174 151.646C144.839 150.75 145.418 149.738 145.823 148.667C147.355 144.56 146.69 140.135 144 136.722C143.885 136.578 143.798 136.433 143.653 136.317C143.596 136.231 143.538 136.173 143.48 136.115C143.248 135.855 142.41 135.045 142.12 134.813C142.12 134.813 142.092 134.813 142.092 134.785L140.038 133.425C139.633 133.223 139.228 133.02 138.794 132.847C138.042 132.586 137.204 132.297 136.278 132.153C135.324 131.979 134.34 131.921 133.357 132.008ZM126.762 136.491C126.849 136.317 127.052 136.202 127.196 136.057C127.514 135.768 128.295 135.189 128.671 134.958C129.105 134.698 130.551 133.946 130.985 133.917L130.609 134.293C130.291 134.64 129.886 135.161 129.626 135.565C129.423 135.884 129.25 136.173 129.047 136.52L128.585 137.532C128.266 137.474 126.936 136.665 126.762 136.491ZM140.009 137.532C139.749 136.867 139.344 136.115 138.968 135.565C138.736 135.247 137.927 134.148 137.637 133.946C137.898 133.975 138.621 134.293 138.852 134.409L139.98 134.987C140.414 135.247 141.108 135.739 141.455 136.086C141.629 136.26 141.802 136.346 141.86 136.491C141.629 136.693 140.414 137.445 140.009 137.532ZM133.588 133.801V138.718C132.952 138.718 132.258 138.602 131.679 138.487C131.072 138.371 130.522 138.197 129.973 138.053C130.117 137.272 131.419 135.479 132.142 134.813C132.489 134.524 133.097 133.975 133.588 133.801ZM135.034 138.718V133.801C135.468 133.946 136.336 134.669 136.712 135.045C137.319 135.652 138.476 137.214 138.679 138.082C137.319 138.4 136.596 138.689 135.034 138.718ZM127.428 143.519L123.494 143.548C123.552 141.928 124.159 140.164 124.94 138.805C125.114 138.516 125.577 137.792 125.779 137.59C125.982 137.677 127.196 138.573 128.122 138.892C128.122 138.978 127.746 140.511 127.659 141.09C127.514 141.871 127.457 142.68 127.428 143.519ZM140.53 138.892C140.906 138.747 141.397 138.487 141.744 138.284L142.872 137.59C143.538 138.226 144.579 140.396 144.839 141.495C144.984 142.102 145.128 142.941 145.157 143.548H141.224C141.195 142.304 141.05 141.176 140.79 139.991C140.703 139.672 140.53 139.152 140.53 138.892ZM129.452 139.441C129.626 139.47 130.783 139.817 131.361 139.933C132.055 140.077 132.836 140.164 133.559 140.193V143.548H128.845C128.874 142.102 129.105 140.714 129.452 139.441ZM135.034 140.164C136.104 140.135 137.175 139.962 138.187 139.701C138.476 139.644 138.91 139.47 139.141 139.441C139.488 140.772 139.72 142.044 139.749 143.519H135.034V140.164ZM139.141 149.159C138.505 149.015 138.013 148.841 137.204 148.696C136.856 148.639 136.509 148.581 136.162 148.552C135.902 148.523 135.237 148.494 135.063 148.465L135.034 144.994H139.749C139.72 146.411 139.46 147.973 139.141 149.159ZM123.465 144.965H127.399C127.428 145.862 127.572 147.713 127.833 148.581C127.89 148.725 128.093 149.506 128.093 149.651L125.75 150.923C125.634 150.779 125.403 150.49 125.316 150.345C124.854 149.651 124.593 149.217 124.246 148.349C123.87 147.366 123.523 146.18 123.465 144.965ZM142.844 150.923C142.67 150.895 142.468 150.692 142.294 150.576L140.501 149.651C140.472 149.535 140.674 148.841 140.732 148.61C140.992 147.771 141.137 145.833 141.195 144.965L145.128 144.936C145.099 146.354 144.608 147.8 144.058 148.986C143.769 149.651 143.248 150.49 142.844 150.923ZM128.845 144.994H133.559V148.465C133.357 148.523 132.721 148.523 132.46 148.552C131.94 148.61 130.898 148.754 130.407 148.899C130.089 148.986 129.741 149.13 129.452 149.159C129.279 148.378 129.163 148.089 129.018 147.221C128.961 146.498 128.874 145.717 128.845 144.994ZM129.973 150.519C131.361 150.229 131.882 149.969 133.559 149.911V154.712C133.183 154.568 132.663 154.134 132.373 153.931C131.795 153.498 130.956 152.398 130.609 151.82C130.493 151.589 130.002 150.75 129.973 150.519ZM135.034 154.712V149.911C135.671 149.94 136.336 149.998 136.943 150.114C137.58 150.229 138.303 150.461 138.65 150.519C138.332 151.415 137.666 152.341 137.175 152.948C136.799 153.382 135.671 154.481 135.034 154.712ZM126.762 152.022C126.994 151.907 127.37 151.675 127.659 151.502C127.89 151.386 128.411 151.097 128.671 151.039C128.903 151.878 129.799 153.122 130.32 153.816C130.465 154.018 130.812 154.423 131.014 154.568C130.32 154.539 128.382 153.382 127.688 152.832C127.486 152.688 126.849 152.225 126.762 152.022ZM137.637 154.568C137.869 154.394 138.158 154.018 138.332 153.816C138.823 153.179 139.778 151.82 139.98 151.039C140.53 151.155 141.571 151.907 141.86 152.022C141.744 152.341 140.212 153.382 139.98 153.526C139.575 153.758 138.1 154.539 137.637 154.568Z" fill="white"/>
<path d="M167.457 234.337C167.601 233.585 168.093 233.122 168.845 233.122C169.568 233.122 170.06 233.556 170.146 234.337H167.457ZM170.927 234.973C170.956 234.828 170.956 234.713 170.956 234.568C170.956 233.267 170.06 232.37 168.845 232.37C167.543 232.37 166.618 233.382 166.618 234.742C166.618 236.13 167.543 237.084 168.932 237.084C169.742 237.084 170.436 236.737 170.87 236.159L170.32 235.696C169.973 236.13 169.481 236.361 168.932 236.361C168.093 236.361 167.543 235.87 167.457 235.002H170.927V234.973ZM165.403 234.076C165.403 232.977 164.883 232.37 163.899 232.37C163.176 232.37 162.598 232.717 162.337 233.296C162.135 232.717 161.643 232.37 160.978 232.37C160.313 232.37 159.763 232.688 159.532 233.209V232.486H158.693V236.94H159.532V234.308C159.532 233.585 160.024 233.122 160.747 233.122C161.383 233.122 161.643 233.469 161.643 234.25V236.94H162.482V234.308C162.482 233.585 162.974 233.122 163.697 233.122C164.333 233.122 164.593 233.469 164.593 234.25V236.94H165.403V234.076ZM154.008 234.337C154.152 233.585 154.644 233.122 155.396 233.122C156.119 233.122 156.611 233.556 156.697 234.337H154.008ZM157.478 234.973C157.507 234.828 157.507 234.713 157.507 234.568C157.507 233.267 156.611 232.37 155.396 232.37C154.094 232.37 153.169 233.382 153.169 234.742C153.169 236.13 154.094 237.084 155.483 237.084C156.292 237.084 156.987 236.737 157.42 236.159L156.871 235.696C156.524 236.13 156.032 236.361 155.483 236.361C154.644 236.361 154.094 235.87 154.008 235.002H157.478V234.973ZM152.648 232.486C152.533 232.428 152.388 232.428 152.243 232.428C151.607 232.428 151.115 232.746 150.913 233.296V232.486H150.103V236.94H150.913V234.684C150.913 233.671 151.376 233.18 152.243 233.18C152.388 233.18 152.533 233.18 152.648 233.209V232.486ZM148.049 234.713C148.049 235.175 147.905 235.551 147.645 235.841C147.384 236.13 147.037 236.275 146.603 236.275C146.169 236.275 145.822 236.13 145.562 235.841C145.302 235.551 145.157 235.175 145.157 234.713C145.157 233.787 145.736 233.122 146.603 233.122C147.037 233.122 147.384 233.267 147.645 233.556C147.905 233.874 148.049 234.25 148.049 234.713ZM148.888 234.713C148.888 233.324 148.021 232.37 146.806 232.37C146.083 232.37 145.446 232.717 145.186 233.296V232.515H144.347V238.704H145.186V236.159C145.446 236.708 146.054 237.084 146.806 237.084C148.021 237.055 148.888 236.101 148.888 234.713ZM139.054 235.291C139.054 236.361 139.835 237.084 140.992 237.084C141.571 237.084 142.062 236.94 142.41 236.593C142.757 236.275 142.93 235.841 142.93 235.291V232.515H142.12V235.233C142.12 235.956 141.715 236.332 140.992 236.332C140.269 236.332 139.864 235.956 139.864 235.233V232.515H139.026V235.291H139.054ZM134.224 236.13C134.571 236.708 135.323 237.055 136.22 237.055C137.348 237.055 138.013 236.506 138.013 235.638C138.013 235.002 137.637 234.626 136.741 234.423L135.96 234.25C135.41 234.105 135.208 233.961 135.208 233.7C135.208 233.353 135.526 233.122 136.104 233.122C136.654 233.122 137.059 233.295 137.406 233.643L137.927 233.151C137.551 232.688 136.914 232.399 136.133 232.399C135.034 232.399 134.369 232.948 134.369 233.729C134.369 234.366 134.803 234.742 135.699 234.973L136.423 235.118C136.943 235.233 137.146 235.436 137.146 235.725C137.146 236.101 136.799 236.361 136.191 236.361C135.584 236.361 135.063 236.13 134.745 235.696L134.224 236.13ZM127.717 236.13C128.064 236.708 128.816 237.055 129.712 237.055C130.84 237.055 131.506 236.506 131.506 235.638C131.506 235.002 131.13 234.626 130.233 234.423L129.452 234.25C128.903 234.105 128.7 233.961 128.7 233.7C128.7 233.353 129.018 233.122 129.597 233.122C130.117 233.122 130.551 233.295 130.898 233.643L131.419 233.151C131.043 232.688 130.407 232.399 129.626 232.399C128.527 232.399 127.861 232.948 127.861 233.729C127.861 234.366 128.295 234.742 129.192 234.973L129.915 235.118C130.436 235.233 130.638 235.436 130.638 235.725C130.638 236.101 130.291 236.361 129.684 236.361C129.076 236.361 128.556 236.13 128.237 235.696L127.717 236.13ZM125.779 236.94H126.618V232.486H125.779V236.94ZM125.634 231.068C125.634 231.387 125.866 231.618 126.184 231.618C126.502 231.618 126.733 231.387 126.733 231.068C126.733 230.75 126.502 230.519 126.184 230.519C125.866 230.519 125.634 230.75 125.634 231.068ZM121.441 234.713C121.441 235.175 121.296 235.551 121.036 235.841C120.775 236.13 120.428 236.275 119.994 236.275C119.561 236.275 119.213 236.13 118.953 235.841C118.693 235.551 118.548 235.175 118.548 234.713C118.548 234.25 118.693 233.874 118.953 233.585C119.213 233.295 119.589 233.151 119.994 233.151C120.891 233.151 121.441 233.787 121.441 234.713ZM121.412 232.486V233.267C121.151 232.717 120.544 232.341 119.792 232.341C118.577 232.341 117.681 233.324 117.681 234.684C117.681 236.043 118.577 237.027 119.792 237.027C120.515 237.027 121.151 236.679 121.412 236.101V236.882H122.25V232.428H121.412V232.486ZM114.817 235.754C114.817 236.593 115.28 236.998 116.206 236.998C116.495 236.998 116.755 236.969 117.015 236.882V236.188C116.755 236.246 116.524 236.275 116.321 236.275C115.83 236.275 115.627 236.101 115.627 235.667V233.18H116.986V232.457H115.627V231.155H114.788V232.457H113.921V233.18H114.788V235.754H114.817ZM112.185 234.713C112.185 235.175 112.041 235.551 111.78 235.841C111.52 236.13 111.173 236.275 110.739 236.275C110.305 236.275 109.958 236.13 109.698 235.841C109.438 235.551 109.293 235.175 109.293 234.713C109.293 234.25 109.438 233.874 109.698 233.585C109.958 233.295 110.334 233.151 110.739 233.151C111.607 233.151 112.185 233.787 112.185 234.713ZM112.156 232.486V233.267C111.896 232.717 111.289 232.341 110.566 232.341C109.351 232.341 108.454 233.324 108.454 234.684C108.454 236.043 109.351 237.027 110.566 237.027C111.289 237.027 111.925 236.679 112.156 236.101V236.882H112.966V232.428H112.156V232.486ZM106.43 234.713C106.43 235.175 106.285 235.551 106.025 235.841C105.764 236.13 105.417 236.275 104.983 236.275C104.55 236.275 104.203 236.13 103.942 235.841C103.682 235.551 103.537 235.175 103.537 234.713C103.537 234.25 103.682 233.874 103.942 233.585C104.203 233.295 104.579 233.151 104.983 233.151C105.88 233.151 106.43 233.787 106.43 234.713ZM106.401 230.519V233.296C106.14 232.746 105.504 232.37 104.781 232.37C103.566 232.37 102.67 233.353 102.67 234.713C102.67 236.072 103.566 237.055 104.781 237.055C105.504 237.055 106.14 236.708 106.401 236.13V236.911H107.211V230.49H106.401V230.519ZM100.761 236.448C100.761 236.795 100.992 237.027 101.339 237.027C101.686 237.027 101.918 236.795 101.918 236.448C101.918 236.101 101.686 235.899 101.339 235.899C100.992 235.87 100.761 236.101 100.761 236.448ZM98.5337 236.448C98.5337 236.795 98.7651 237.027 99.1122 237.027C99.4592 237.027 99.6906 236.795 99.6906 236.448C99.6906 236.101 99.4592 235.899 99.1122 235.899C98.7651 235.87 98.5337 236.101 98.5337 236.448ZM96.3066 236.448C96.3066 236.795 96.538 237.027 96.8851 237.027C97.2322 237.027 97.4636 236.795 97.4636 236.448C97.4636 236.101 97.2322 235.899 96.8851 235.899C96.5091 235.87 96.3066 236.101 96.3066 236.448Z" fill="#666667"/>
</g>
<rect x="6" y="5" width="256" height="314" rx="16" stroke="#FFFAEF" shape-rendering="crispEdges"/>
</g>
<defs>
<filter id="filter0_d_1298_12601" x="0.5" y="0.5" width="267" height="325" filterUnits="userSpaceOnUse" color-interpolation-filters="sRGB">
<feFlood flood-opacity="0" result="BackgroundImageFix"/>
<feColorMatrix in="SourceAlpha" type="matrix" values="0 0 0 0 0 0 0 0 0 0 0 0 0 0 0 0 0 0 127 0" result="hardAlpha"/>
<feOffset dy="1"/>
<feGaussianBlur stdDeviation="2.5"/>
<feComposite in2="hardAlpha" operator="out"/>
<feColorMatrix type="matrix" values="0 0 0 0 0 0 0 0 0 0 0 0 0 0 0 0 0 0 0.15 0"/>
<feBlend mode="normal" in2="BackgroundImageFix" result="effect1_dropShadow_1298_12601"/>
<feBlend mode="normal" in="SourceGraphic" in2="effect1_dropShadow_1298_12601" result="shape"/>
</filter>
<filter id="filter1_d_1298_12601" x="-12.802" y="200.558" width="195.899" height="195.898" filterUnits="userSpaceOnUse" color-interpolation-filters="sRGB">
<feFlood flood-opacity="0" result="BackgroundImageFix"/>
<feColorMatrix in="SourceAlpha" type="matrix" values="0 0 0 0 0 0 0 0 0 0 0 0 0 0 0 0 0 0 127 0" result="hardAlpha"/>
<feOffset dy="1.36041"/>
<feGaussianBlur stdDeviation="3.40102"/>
<feComposite in2="hardAlpha" operator="out"/>
<feColorMatrix type="matrix" values="0 0 0 0 0 0 0 0 0 0 0 0 0 0 0 0 0 0 0.15 0"/>
<feBlend mode="normal" in2="BackgroundImageFix" result="effect1_dropShadow_1298_12601"/>
<feBlend mode="normal" in="SourceGraphic" in2="effect1_dropShadow_1298_12601" result="shape"/>
</filter>
<filter id="filter2_d_1298_12601" x="120.518" y="248.173" width="148.284" height="148.284" filterUnits="userSpaceOnUse" color-interpolation-filters="sRGB">
<feFlood flood-opacity="0" result="BackgroundImageFix"/>
<feColorMatrix in="SourceAlpha" type="matrix" values="0 0 0 0 0 0 0 0 0 0 0 0 0 0 0 0 0 0 127 0" result="hardAlpha"/>
<feOffset dy="1.36041"/>
<feGaussianBlur stdDeviation="3.40102"/>
<feComposite in2="hardAlpha" operator="out"/>
<feColorMatrix type="matrix" values="0 0 0 0 0 0 0 0 0 0 0 0 0 0 0 0 0 0 0.15 0"/>
<feBlend mode="normal" in2="BackgroundImageFix" result="effect1_dropShadow_1298_12601"/>
<feBlend mode="normal" in="SourceGraphic" in2="effect1_dropShadow_1298_12601" result="shape"/>
</filter>
<linearGradient id="paint0_linear_1298_12601" x1="104.682" y1="124.087" x2="157.842" y2="209.265" gradientUnits="userSpaceOnUse">
<stop stop-color="#F47E20"/>
<stop offset="1" stop-color="white"/>
</linearGradient>
<clipPath id="clip0_1298_12601">
<rect x="6" y="5" width="256" height="314" rx="16" fill="white"/>
</clipPath>
</defs>
</svg>
