<svg width="268" height="326" viewBox="0 0 268 326" fill="none" xmlns="http://www.w3.org/2000/svg">
<g filter="url(#filter0_d_1298_12602)">
<g clip-path="url(#clip0_1298_12602)">
<rect x="6" y="5" width="256" height="314" rx="16" fill="#FFFAEF"/>
<g filter="url(#filter1_d_1298_12602)">
<circle cx="85.1472" cy="297.147" r="90.1472" stroke="#FFD9B4" stroke-width="2" shape-rendering="crispEdges"/>
</g>
<g filter="url(#filter2_d_1298_12602)">
<circle cx="194.66" cy="320.954" r="66.3401" stroke="#FFD9B4" stroke-width="2" shape-rendering="crispEdges"/>
</g>
<path d="M127.175 155.204C126.871 154.787 126.587 154.331 126.264 153.933C122.868 149.626 120.706 144.732 119.34 139.458C118.904 137.769 118.429 136.1 117.917 134.431C117.139 131.907 115.603 129.915 113.516 128.322C110.594 126.121 107.331 124.964 103.651 124.964C96.6884 124.964 89.745 124.964 82.7826 124.964C75.7633 124.964 68.744 124.945 61.7437 124.964C55.1797 125.002 49.2987 129.119 46.9463 135.227C46.1495 137.314 45.7891 139.477 45.7891 141.696C45.7891 155.204 45.7891 168.711 45.7891 182.219C45.7891 182.56 45.7891 182.921 45.808 183.262C45.9788 185.709 46.472 188.1 47.6862 190.262C50.7785 195.764 55.4833 198.742 61.8196 198.894C67.492 199.008 73.1833 198.932 78.8556 198.913C87.2029 198.913 95.5502 198.951 103.897 198.894C110.955 198.837 116.741 194.379 118.676 187.606C119.093 186.165 119.397 184.685 119.7 183.205C120.687 178.481 122.489 174.137 125.524 170.343C126.094 169.622 126.606 168.844 127.175 168.104C129.755 164.614 129.907 158.884 127.175 155.204Z" fill="black" fill-opacity="0.9"/>
<path d="M100.919 160.649H65.1583C60.3397 160.649 56.4316 156.74 56.4316 151.922V149.399C56.4316 144.58 60.3397 140.672 65.1583 140.672H100.919C105.737 140.672 109.645 144.58 109.645 149.399V151.922C109.645 156.74 105.737 160.649 100.919 160.649Z" fill="#FF7F00"/>
<path d="M69.0095 158.163C73.0328 158.163 76.2944 154.902 76.2944 150.878C76.2944 146.855 73.0328 143.594 69.0095 143.594C64.9862 143.594 61.7246 146.855 61.7246 150.878C61.7246 154.902 64.9862 158.163 69.0095 158.163Z" fill="white"/>
<path d="M65.1583 163.248H100.919C105.737 163.248 109.645 167.156 109.645 171.974V174.497C109.645 179.316 105.737 183.224 100.919 183.224H65.1583C60.3397 183.224 56.4316 179.316 56.4316 174.497V171.974C56.4316 167.156 60.3397 163.248 65.1583 163.248Z" fill="#FF7F00"/>
<path d="M96.3083 180.53C100.332 180.53 103.593 177.269 103.593 173.245C103.593 169.222 100.332 165.96 96.3083 165.96C92.285 165.96 89.0234 169.222 89.0234 173.245C89.0234 177.269 92.285 180.53 96.3083 180.53Z" fill="white"/>
<path d="M160.888 143.669C159.654 142.968 158.44 142.626 157.283 142.626C156.012 142.626 154.855 142.949 153.811 143.613C152.787 144.258 151.971 145.168 151.364 146.325C150.757 147.483 150.473 148.773 150.473 150.214C150.473 151.656 150.776 152.946 151.364 154.104C151.952 155.261 152.768 156.171 153.811 156.835C154.836 157.499 155.993 157.841 157.283 157.841C158.364 157.841 159.522 157.537 160.774 156.949C162.007 156.361 163.126 155.545 164.094 154.502L168.988 159.719C167.433 161.407 165.573 162.754 163.392 163.76C161.21 164.765 159.028 165.259 156.885 165.259C154.039 165.259 151.459 164.614 149.164 163.323C146.868 162.033 145.066 160.25 143.757 157.955C142.448 155.659 141.803 153.117 141.803 150.29C141.803 147.521 142.467 145.016 143.795 142.778C145.123 140.539 146.963 138.775 149.296 137.504C151.63 136.233 154.248 135.588 157.169 135.588C159.313 135.588 161.457 136.043 163.6 136.973C165.744 137.902 167.546 139.135 168.988 140.691L164.094 146.515C163.183 145.32 162.121 144.371 160.888 143.669Z" fill="#FF7F00"/>
<path d="M187.069 143.043C185.247 142.417 183.749 142.114 182.591 142.114C181.852 142.114 181.282 142.266 180.865 142.55C180.448 142.835 180.239 143.252 180.239 143.802C180.239 144.561 180.637 145.149 181.453 145.567C182.269 145.984 183.559 146.439 185.323 146.932C187.334 147.502 188.985 148.09 190.294 148.659C191.603 149.247 192.741 150.139 193.69 151.334C194.657 152.529 195.131 154.104 195.131 156.058C195.131 158.05 194.6 159.719 193.557 161.085C192.513 162.451 191.09 163.475 189.326 164.158C187.543 164.841 185.551 165.183 183.35 165.183C180.903 165.183 178.456 164.765 175.99 163.931C173.523 163.096 171.399 161.977 169.615 160.535L172.802 154.104C174.244 155.356 176.008 156.399 178.076 157.272C180.144 158.144 181.946 158.562 183.445 158.562C184.375 158.562 185.096 158.391 185.608 158.031C186.12 157.67 186.386 157.177 186.386 156.532C186.386 155.735 185.968 155.147 185.115 154.711C184.28 154.293 182.971 153.857 181.207 153.383C179.215 152.87 177.583 152.339 176.274 151.77C174.965 151.22 173.846 150.347 172.897 149.19C171.949 148.014 171.474 146.496 171.474 144.58C171.474 142.74 171.968 141.127 172.935 139.742C173.922 138.377 175.288 137.314 177.071 136.574C178.854 135.834 180.922 135.474 183.293 135.474C185.437 135.474 187.581 135.778 189.687 136.385C191.792 136.992 193.652 137.807 195.226 138.813L192.096 145.339C190.559 144.428 188.89 143.669 187.069 143.043Z" fill="#FF7F00"/>
<path d="M213.76 143.043C211.939 142.417 210.44 142.114 209.283 142.114C208.543 142.114 207.974 142.266 207.556 142.55C207.139 142.835 206.93 143.252 206.93 143.802C206.93 144.561 207.329 145.149 208.145 145.567C208.96 145.984 210.25 146.439 212.015 146.932C214.026 147.502 215.676 148.09 216.985 148.659C218.294 149.247 219.432 150.139 220.381 151.334C221.348 152.529 221.823 154.104 221.823 156.058C221.823 158.05 221.292 159.719 220.248 161.085C219.205 162.451 217.782 163.475 216.018 164.158C214.234 164.841 212.242 165.183 210.042 165.183C207.594 165.183 205.147 164.765 202.681 163.931C200.215 163.096 198.09 161.977 196.307 160.535L199.494 154.104C200.936 155.356 202.7 156.399 204.768 157.272C206.836 158.144 208.638 158.562 210.137 158.562C211.066 158.562 211.787 158.391 212.299 158.031C212.811 157.67 213.077 157.177 213.077 156.532C213.077 155.735 212.66 155.147 211.806 154.711C210.971 154.293 209.662 153.857 207.898 153.383C205.906 152.87 204.274 152.339 202.965 151.77C201.656 151.22 200.537 150.347 199.589 149.19C198.64 148.014 198.166 146.496 198.166 144.58C198.166 142.74 198.659 141.127 199.627 139.742C200.613 138.377 201.979 137.314 203.762 136.574C205.546 135.834 207.613 135.474 209.985 135.474C212.129 135.474 214.272 135.778 216.378 136.385C218.484 136.992 220.343 137.807 221.918 138.813L218.787 145.339C217.251 144.428 215.581 143.669 213.76 143.043Z" fill="#FF7F00"/>
<path d="M149.332 172.012C148.573 171.766 147.909 171.652 147.34 171.652C146.695 171.652 146.202 171.766 145.823 172.012C145.443 172.259 145.272 172.581 145.272 173.018C145.272 173.397 145.405 173.72 145.671 173.985C145.936 174.251 146.259 174.459 146.657 174.63C147.056 174.801 147.587 174.972 148.27 175.18C149.218 175.465 149.996 175.731 150.603 176.015C151.21 176.3 151.723 176.717 152.159 177.248C152.576 177.798 152.804 178.519 152.804 179.411C152.804 180.265 152.576 181.004 152.121 181.649C151.666 182.276 151.021 182.769 150.224 183.091C149.408 183.433 148.498 183.585 147.454 183.585C146.354 183.585 145.291 183.376 144.248 182.977C143.205 182.579 142.294 182.029 141.535 181.346L142.654 179.069C143.356 179.714 144.153 180.246 145.026 180.606C145.898 180.985 146.733 181.175 147.492 181.175C148.232 181.175 148.82 181.023 149.256 180.739C149.693 180.454 149.901 180.056 149.901 179.563C149.901 179.164 149.769 178.842 149.503 178.576C149.237 178.311 148.915 178.102 148.517 177.95C148.118 177.798 147.568 177.609 146.885 177.419C145.936 177.134 145.159 176.869 144.571 176.603C143.982 176.338 143.451 175.939 143.034 175.389C142.598 174.839 142.389 174.137 142.389 173.264C142.389 172.449 142.598 171.747 143.034 171.14C143.47 170.532 144.077 170.058 144.874 169.736C145.671 169.394 146.581 169.242 147.625 169.242C148.535 169.242 149.427 169.375 150.319 169.641C151.21 169.906 151.988 170.267 152.69 170.722L151.609 173.056C150.812 172.6 150.072 172.259 149.332 172.012Z" fill="#8F8F8F"/>
<path d="M172.286 169.432H175.055L170.313 183.433H167.524L164.318 172.809L161.055 183.433H158.304L153.58 169.432H156.464L159.765 180.53L163.047 169.432H165.684L168.985 180.568L172.286 169.432Z" fill="#8F8F8F"/>
<path d="M176.82 169.432H179.495V183.433H176.82V169.432Z" fill="#8F8F8F"/>
<path d="M181.375 169.432H192.796V171.803H188.432V183.433H185.738V171.803H181.375V169.432Z" fill="#8F8F8F"/>
<path d="M202.299 172.145C201.616 171.822 200.934 171.671 200.251 171.671C199.378 171.671 198.581 171.879 197.879 172.297C197.158 172.714 196.589 173.283 196.172 174.004C195.754 174.725 195.546 175.522 195.546 176.394C195.546 177.267 195.754 178.064 196.172 178.785C196.589 179.506 197.158 180.075 197.879 180.511C198.6 180.948 199.397 181.137 200.251 181.137C200.915 181.137 201.597 180.985 202.261 180.701C202.944 180.416 203.533 179.999 204.045 179.487L205.619 181.251C204.879 181.991 204.026 182.598 203.058 183.015C202.091 183.452 201.104 183.66 200.099 183.66C198.752 183.66 197.519 183.338 196.399 182.693C195.28 182.048 194.407 181.175 193.762 180.075C193.117 178.975 192.795 177.76 192.795 176.432C192.795 175.104 193.117 173.89 193.781 172.79C194.426 171.69 195.318 170.836 196.456 170.21C197.576 169.584 198.828 169.261 200.213 169.261C201.218 169.261 202.186 169.47 203.153 169.868C204.121 170.267 204.936 170.817 205.619 171.538L204.064 173.492C203.552 172.904 202.982 172.449 202.299 172.145Z" fill="#8F8F8F"/>
<path d="M207.84 169.432H210.515V175.408H217.496V169.432H220.171V183.433H217.496V177.741H210.515V183.433H207.84V169.432Z" fill="#8F8F8F"/>
</g>
<rect x="6" y="5" width="256" height="314" rx="16" stroke="#FFFAEF" shape-rendering="crispEdges"/>
</g>
<defs>
<filter id="filter0_d_1298_12602" x="0.5" y="0.5" width="267" height="325" filterUnits="userSpaceOnUse" color-interpolation-filters="sRGB">
<feFlood flood-opacity="0" result="BackgroundImageFix"/>
<feColorMatrix in="SourceAlpha" type="matrix" values="0 0 0 0 0 0 0 0 0 0 0 0 0 0 0 0 0 0 127 0" result="hardAlpha"/>
<feOffset dy="1"/>
<feGaussianBlur stdDeviation="2.5"/>
<feComposite in2="hardAlpha" operator="out"/>
<feColorMatrix type="matrix" values="0 0 0 0 0 0 0 0 0 0 0 0 0 0 0 0 0 0 0.15 0"/>
<feBlend mode="normal" in2="BackgroundImageFix" result="effect1_dropShadow_1298_12602"/>
<feBlend mode="normal" in="SourceGraphic" in2="effect1_dropShadow_1298_12602" result="shape"/>
</filter>
<filter id="filter1_d_1298_12602" x="-12.802" y="200.558" width="195.899" height="195.898" filterUnits="userSpaceOnUse" color-interpolation-filters="sRGB">
<feFlood flood-opacity="0" result="BackgroundImageFix"/>
<feColorMatrix in="SourceAlpha" type="matrix" values="0 0 0 0 0 0 0 0 0 0 0 0 0 0 0 0 0 0 127 0" result="hardAlpha"/>
<feOffset dy="1.36041"/>
<feGaussianBlur stdDeviation="3.40102"/>
<feComposite in2="hardAlpha" operator="out"/>
<feColorMatrix type="matrix" values="0 0 0 0 0 0 0 0 0 0 0 0 0 0 0 0 0 0 0.15 0"/>
<feBlend mode="normal" in2="BackgroundImageFix" result="effect1_dropShadow_1298_12602"/>
<feBlend mode="normal" in="SourceGraphic" in2="effect1_dropShadow_1298_12602" result="shape"/>
</filter>
<filter id="filter2_d_1298_12602" x="120.518" y="248.173" width="148.284" height="148.284" filterUnits="userSpaceOnUse" color-interpolation-filters="sRGB">
<feFlood flood-opacity="0" result="BackgroundImageFix"/>
<feColorMatrix in="SourceAlpha" type="matrix" values="0 0 0 0 0 0 0 0 0 0 0 0 0 0 0 0 0 0 127 0" result="hardAlpha"/>
<feOffset dy="1.36041"/>
<feGaussianBlur stdDeviation="3.40102"/>
<feComposite in2="hardAlpha" operator="out"/>
<feColorMatrix type="matrix" values="0 0 0 0 0 0 0 0 0 0 0 0 0 0 0 0 0 0 0.15 0"/>
<feBlend mode="normal" in2="BackgroundImageFix" result="effect1_dropShadow_1298_12602"/>
<feBlend mode="normal" in="SourceGraphic" in2="effect1_dropShadow_1298_12602" result="shape"/>
</filter>
<clipPath id="clip0_1298_12602">
<rect x="6" y="5" width="256" height="314" rx="16" fill="white"/>
</clipPath>
</defs>
</svg>
