<svg width="193" height="192" viewBox="0 0 193 192" fill="none" xmlns="http://www.w3.org/2000/svg">
<path d="M160.5 96C160.5 112.974 153.757 129.253 141.755 141.255C129.753 153.257 113.474 160 96.5 160C79.5261 160 63.2475 153.257 51.2452 141.255C39.2428 129.253 32.5 112.974 32.5 96C32.5 79.0261 39.2428 62.7475 51.2452 50.7452C63.2475 38.7428 79.5261 32 96.5 32C102.58 32 108.5 32.88 114.1 34.48L126.66 21.92C117.094 17.9805 106.845 15.9687 96.5 16C85.9942 16 75.5914 18.0693 65.8853 22.0896C56.1793 26.11 47.3601 32.0028 39.9315 39.4314C24.9285 54.4344 16.5 74.7827 16.5 96C16.5 117.217 24.9285 137.566 39.9315 152.569C47.3601 159.997 56.1793 165.89 65.8853 169.91C75.5914 173.931 85.9942 176 96.5 176C117.717 176 138.066 167.571 153.069 152.569C168.071 137.566 176.5 117.217 176.5 96M63.78 80.64L52.5 92L88.5 128L168.5 48L157.22 36.64L88.5 105.36L63.78 80.64Z" fill="#FF7F00"/>
</svg>
