<svg width="28" height="35" viewBox="0 0 28 35" fill="none" xmlns="http://www.w3.org/2000/svg">
<path d="M23.1148 18.5546C23.0761 14.3647 26.6335 12.3263 26.7961 12.2314C24.7815 9.36747 21.6588 8.97617 20.5615 8.94497C17.9388 8.67587 15.3948 10.4751 14.0588 10.4751C12.6961 10.4751 10.6388 8.97097 8.42146 9.01517C5.56813 9.05807 2.89879 10.6688 1.43479 13.17C-1.58654 18.2699 0.666794 25.7644 3.56146 29.8867C5.00946 31.9056 6.70146 34.1598 8.91613 34.0805C11.0828 33.9934 11.8921 32.7337 14.5068 32.7337C17.0975 32.7337 17.8575 34.0805 20.1161 34.0298C22.4415 33.9934 23.9055 32.0018 25.3028 29.9647C26.9761 27.6507 27.6481 25.3718 27.6748 25.2548C27.6201 25.2366 23.1588 23.5765 23.1148 18.5546Z" fill="#8F8F8F"/>
<path d="M18.8481 6.23317C20.0135 4.81227 20.8108 2.87917 20.5895 0.917469C18.9028 0.990269 16.7935 2.05497 15.5788 3.44467C14.5041 4.66927 13.5441 6.67647 13.7921 8.56407C15.6868 8.70187 17.6321 7.63197 18.8481 6.23317Z" fill="#8F8F8F"/>
</svg>
