<svg width="64" height="64" viewBox="0 0 64 64" fill="none" xmlns="http://www.w3.org/2000/svg">
<rect width="64" height="64" rx="16" fill="#FFF7EF"/>
<path fill-rule="evenodd" clip-rule="evenodd" d="M33.6422 17.8133C34.4848 16.8026 36.1262 17.4933 35.9928 18.8026L35.0515 28H42.6662C42.9195 28.0001 43.1676 28.0723 43.3814 28.2083C43.5951 28.3443 43.7657 28.5384 43.8732 28.7679C43.9806 28.9973 44.0205 29.2526 43.988 29.5039C43.9556 29.7551 43.8523 29.992 43.6902 30.1866L30.3568 46.1866C29.5142 47.1973 27.8728 46.5066 28.0062 45.1973L28.9475 36H21.3328C21.0795 35.9999 20.8314 35.9276 20.6176 35.7916C20.4039 35.6556 20.2333 35.4615 20.1258 35.2321C20.0184 35.0027 19.9785 34.7474 20.011 34.4961C20.0434 34.2448 20.1467 34.008 20.3088 33.8133L33.6422 17.8133ZM24.1795 33.3333H31.3102C31.3847 33.3333 31.4584 33.3489 31.5265 33.3792C31.5947 33.4094 31.6557 33.4536 31.7057 33.5089C31.7557 33.5641 31.7936 33.6293 31.8168 33.7001C31.8401 33.7709 31.8483 33.8458 31.8408 33.92L31.1035 41.1266L39.8195 30.6666H32.6888C32.6143 30.6666 32.5406 30.651 32.4725 30.6208C32.4043 30.5905 32.3433 30.5464 32.2933 30.4911C32.2433 30.4358 32.2054 30.3707 32.1822 30.2999C32.1589 30.229 32.1507 30.1541 32.1582 30.08L32.8955 22.8746L24.1795 33.3333Z" fill="#FF7F00"/>
</svg>
