<svg width="64" height="64" viewBox="0 0 64 64" fill="none" xmlns="http://www.w3.org/2000/svg">
<rect width="64" height="64" rx="16" fill="#FFF7EF"/>
<path d="M25.0013 42.2467C26.9959 43.8179 29.4622 44.6705 32.0013 44.6667C34.6433 44.6667 37.0746 43.7627 39.0013 42.2467M28.668 22.498C24.0353 23.9213 20.668 28.234 20.668 33.3333C20.668 34.6167 20.8813 35.85 21.2746 37M35.3346 22.498C39.9673 23.9213 43.3346 28.234 43.3346 33.3333C43.3346 34.6167 43.1213 35.85 42.728 37" stroke="#FF7F00" stroke-width="2.66667"/>
<path d="M44.6673 40C44.6673 40.8946 44.3153 41.7066 43.742 42.3053C43.2066 42.8647 42.4931 43.2202 41.7242 43.3108C40.9552 43.4014 40.1787 43.2216 39.5279 42.802C38.8771 42.3825 38.3927 41.7495 38.1578 41.0117C37.9228 40.2739 37.9521 39.4773 38.2405 38.7587C38.529 38.0402 39.0586 37.4444 39.7384 37.0738C40.4182 36.7031 41.2059 36.5807 41.9661 36.7275C42.7263 36.8744 43.4118 37.2813 43.9047 37.8784C44.3976 38.4756 44.6672 39.2257 44.6673 40ZM26.0007 40C26.0007 40.8946 25.6487 41.7066 25.0753 42.3053C24.5399 42.8647 23.8265 43.2202 23.0575 43.3108C22.2885 43.4014 21.512 43.2216 20.8612 42.802C20.2104 42.3825 19.726 41.7495 19.4911 41.0117C19.2562 40.2739 19.2855 39.4773 19.5739 38.7587C19.8623 38.0402 20.3919 37.4444 21.0717 37.0738C21.7515 36.7031 22.5392 36.5807 23.2994 36.7275C24.0597 36.8744 24.7451 37.2813 25.238 37.8784C25.7309 38.4756 26.0006 39.2257 26.0007 40ZM35.334 22C35.334 22.8946 34.982 23.7066 34.4087 24.3053C33.8732 24.8647 33.1598 25.2202 32.3908 25.3108C31.6219 25.4014 30.8453 25.2216 30.1945 24.802C29.5438 24.3825 29.0593 23.7495 28.8244 23.0117C28.5895 22.2739 28.6188 21.4773 28.9072 20.7587C29.1956 20.0402 29.7252 19.4444 30.405 19.0738C31.0849 18.7031 31.8725 18.5807 32.6328 18.7275C33.393 18.8744 34.0784 19.2813 34.5713 19.8784C35.0642 20.4756 35.3339 21.2257 35.334 22Z" stroke="#FF7F00" stroke-width="2.66667" stroke-linecap="round" stroke-linejoin="round"/>
</svg>
