<svg width="286" height="344" viewBox="0 0 286 344" fill="none" xmlns="http://www.w3.org/2000/svg">
<g filter="url(#filter0_d_1152_7389)">
<g clip-path="url(#clip0_1152_7389)">
<rect x="15" y="5" width="256" height="314" rx="16" fill="#FF7F00"/>
<g filter="url(#filter1_d_1152_7389)">
<circle cx="94.1472" cy="297.147" r="91.1472" fill="url(#paint0_radial_1152_7389)"/>
</g>
<g filter="url(#filter2_d_1152_7389)">
<circle cx="203.659" cy="320.954" r="67.3401" fill="url(#paint1_radial_1152_7389)"/>
</g>
<path d="M142.721 145.796C169.962 145.796 192.045 134.841 192.045 121.328C192.045 107.815 169.962 96.8606 142.721 96.8606C115.48 96.8606 93.3975 107.815 93.3975 121.328C93.3975 134.841 115.48 145.796 142.721 145.796Z" stroke="white" stroke-width="5.13694" stroke-miterlimit="10"/>
<path d="M111.626 111.814L114.835 112.584C115.168 112.584 115.44 112.856 115.44 113.19V118.117C115.44 118.451 115.712 118.723 116.046 118.723H121.669C122.003 118.723 122.275 118.451 122.275 118.117V112.422C122.275 112.088 122.546 111.817 122.88 111.817L126.089 112.587C126.422 112.587 126.694 112.858 126.694 113.192V128.143C126.694 128.477 126.422 128.749 126.089 128.749H122.88C122.546 128.749 122.275 128.477 122.275 128.143V122.859C122.275 122.525 122.003 122.253 121.669 122.253H116.046C115.712 122.253 115.44 122.525 115.44 122.859V128.143C115.44 128.477 115.168 128.749 114.835 128.749H111.626C111.292 128.749 111.021 128.477 111.021 128.143V112.425C111.021 112.091 111.292 111.819 111.626 111.819V111.814Z" fill="white"/>
<path d="M134.182 132.742C133.346 133.331 132.306 133.624 131.067 133.624C130.342 133.624 129.665 133.514 129.038 133.297C128.561 133.133 128.094 132.897 127.636 132.587C127.386 132.418 127.315 132.082 127.472 131.822L128.669 129.834C128.831 129.564 129.184 129.471 129.451 129.64C129.591 129.729 129.727 129.8 129.861 129.855C130.135 129.967 130.423 130.024 130.731 130.024C131.439 130.024 131.963 129.693 132.302 129.035L132.492 128.67C132.571 128.52 132.578 128.341 132.511 128.186L127.541 116.472C127.381 116.098 127.658 115.681 128.066 115.681L131.229 116.708C131.467 116.708 131.682 116.858 131.763 117.083L134.178 122.642C134.364 123.149 135.086 123.135 135.253 122.623L137.391 116.074C137.467 115.841 137.687 115.681 137.932 115.681L140.962 116.708C141.362 116.708 141.639 117.111 141.491 117.485L136.19 130.029C135.691 131.252 135.022 132.158 134.185 132.747L134.182 132.742Z" fill="white"/>
<path d="M146.766 118.479C146.397 118.479 146.099 118.549 145.872 118.684C145.646 118.82 145.534 119.028 145.534 119.3C145.534 119.59 145.71 119.824 146.066 120C146.418 120.177 146.983 120.37 147.756 120.58C148.69 120.854 149.467 121.123 150.087 121.388C150.707 121.652 151.243 122.055 151.694 122.596C152.144 123.135 152.371 123.841 152.371 124.711C152.371 126.031 151.858 127.066 150.838 127.814C149.815 128.563 148.483 128.937 146.84 128.937C145.729 128.937 144.666 128.78 143.651 128.465C142.828 128.21 142.08 127.857 141.405 127.407C141.136 127.226 141.045 126.873 141.186 126.58L141.975 124.959C142.144 124.613 142.571 124.491 142.902 124.689C143.458 125.021 144.032 125.288 144.626 125.493C145.439 125.774 146.209 125.915 146.933 125.915C147.353 125.915 147.687 125.845 147.937 125.71C148.187 125.574 148.311 125.376 148.311 125.118C148.311 124.797 148.13 124.546 147.768 124.37C147.405 124.193 146.838 124 146.066 123.791C145.148 123.516 144.39 123.247 143.796 122.983C143.2 122.718 142.68 122.317 142.237 121.786C141.794 121.254 141.572 120.563 141.572 119.71C141.572 118.389 142.07 117.354 143.069 116.606C144.068 115.857 145.355 115.483 146.933 115.483C147.884 115.483 148.821 115.612 149.746 115.869C150.464 116.069 151.15 116.341 151.803 116.687C152.12 116.854 152.242 117.247 152.077 117.564L151.215 119.233C151.052 119.547 150.666 119.671 150.347 119.519C148.912 118.825 147.717 118.479 146.764 118.479H146.766Z" fill="white"/>
<path d="M157.577 110.303C158.003 110.73 158.216 111.28 158.216 111.957C158.216 112.634 158.001 113.166 157.577 113.6C157.15 114.034 156.606 114.253 155.946 114.253C155.286 114.253 154.742 114.036 154.316 113.6C153.889 113.166 153.677 112.618 153.677 111.957C153.677 111.297 153.889 110.73 154.316 110.303C154.742 109.876 155.286 109.664 155.946 109.664C156.606 109.664 157.15 109.879 157.577 110.303ZM154.425 115.678L157.536 116.706C157.858 116.706 158.118 116.966 158.118 117.288V128.163C158.118 128.484 157.858 128.744 157.536 128.744H154.425C154.103 128.744 153.844 128.484 153.844 128.163V116.26C153.844 115.938 154.103 115.678 154.425 115.678Z" fill="white"/>
<path d="M170.978 116.367C171.896 116.923 172.609 117.712 173.117 118.735C173.624 119.757 173.877 120.937 173.877 122.272C173.877 123.607 173.631 124.751 173.14 125.75C172.649 126.749 171.948 127.521 171.038 128.07C170.127 128.618 169.078 128.892 167.886 128.892C167.066 128.892 166.32 128.735 165.653 128.42C164.985 128.105 164.418 127.652 163.951 127.056V133.433H159.65V115.681H163.951V117.371C164.9 116.148 166.18 115.535 167.791 115.535C169 115.535 170.061 115.814 170.978 116.37V116.367ZM168.768 124.518C169.291 123.922 169.553 123.14 169.553 122.174C169.553 121.209 169.291 120.422 168.768 119.819C168.244 119.216 167.565 118.913 166.728 118.913C165.891 118.913 165.238 119.216 164.723 119.819C164.208 120.422 163.951 121.209 163.951 122.174C163.951 123.14 164.208 123.922 164.723 124.518C165.238 125.114 165.906 125.412 166.728 125.412C167.55 125.412 168.246 125.114 168.768 124.518Z" fill="white"/>
<path d="M142.72 153.361C147.03 153.361 150.524 149.867 150.524 145.557C150.524 141.248 147.03 137.754 142.72 137.754C138.411 137.754 134.917 141.248 134.917 145.557C134.917 149.867 138.411 153.361 142.72 153.361Z" fill="white" stroke="#FF7F00" stroke-width="2"/>
<rect x="74" y="186" width="139" height="40" rx="16" fill="white"/>
<path d="M92.926 208.946H96.146V210.5H90.966V200.728H92.926V208.946ZM104.602 206.454C104.602 206.734 104.583 206.986 104.546 207.21H98.8758C98.9224 207.77 99.1184 208.209 99.4638 208.526C99.8091 208.843 100.234 209.002 100.738 209.002C101.466 209.002 101.984 208.689 102.292 208.064H104.406C104.182 208.811 103.752 209.427 103.118 209.912C102.483 210.388 101.704 210.626 100.78 210.626C100.033 210.626 99.3611 210.463 98.7638 210.136C98.1758 209.8 97.7138 209.329 97.3778 208.722C97.0511 208.115 96.8878 207.415 96.8878 206.622C96.8878 205.819 97.0511 205.115 97.3778 204.508C97.7044 203.901 98.1618 203.435 98.7498 203.108C99.3378 202.781 100.014 202.618 100.78 202.618C101.517 202.618 102.175 202.777 102.754 203.094C103.342 203.411 103.794 203.864 104.112 204.452C104.438 205.031 104.602 205.698 104.602 206.454ZM102.572 205.894C102.562 205.39 102.38 204.989 102.026 204.69C101.671 204.382 101.237 204.228 100.724 204.228C100.238 204.228 99.8278 204.377 99.4918 204.676C99.1651 204.965 98.9644 205.371 98.8898 205.894H102.572ZM105.528 206.594C105.528 205.81 105.682 205.115 105.99 204.508C106.308 203.901 106.732 203.435 107.264 203.108C107.806 202.781 108.408 202.618 109.07 202.618C109.649 202.618 110.153 202.735 110.582 202.968C111.021 203.201 111.371 203.495 111.632 203.85V202.744H113.606V210.5H111.632V209.366C111.38 209.73 111.03 210.033 110.582 210.276C110.144 210.509 109.635 210.626 109.056 210.626C108.403 210.626 107.806 210.458 107.264 210.122C106.732 209.786 106.308 209.315 105.99 208.708C105.682 208.092 105.528 207.387 105.528 206.594ZM111.632 206.622C111.632 206.146 111.539 205.74 111.352 205.404C111.166 205.059 110.914 204.797 110.596 204.62C110.279 204.433 109.938 204.34 109.574 204.34C109.21 204.34 108.874 204.429 108.566 204.606C108.258 204.783 108.006 205.045 107.81 205.39C107.624 205.726 107.53 206.127 107.53 206.594C107.53 207.061 107.624 207.471 107.81 207.826C108.006 208.171 108.258 208.437 108.566 208.624C108.884 208.811 109.22 208.904 109.574 208.904C109.938 208.904 110.279 208.815 110.596 208.638C110.914 208.451 111.166 208.19 111.352 207.854C111.539 207.509 111.632 207.098 111.632 206.622ZM117.481 203.948C117.733 203.537 118.059 203.215 118.461 202.982C118.871 202.749 119.338 202.632 119.861 202.632V204.69H119.343C118.727 204.69 118.26 204.835 117.943 205.124C117.635 205.413 117.481 205.917 117.481 206.636V210.5H115.521V202.744H117.481V203.948ZM125.479 202.632C126.403 202.632 127.15 202.926 127.719 203.514C128.288 204.093 128.573 204.905 128.573 205.95V210.5H126.613V206.216C126.613 205.6 126.459 205.129 126.151 204.802C125.843 204.466 125.423 204.298 124.891 204.298C124.35 204.298 123.92 204.466 123.603 204.802C123.295 205.129 123.141 205.6 123.141 206.216V210.5H121.181V202.744H123.141V203.71C123.402 203.374 123.734 203.113 124.135 202.926C124.546 202.73 124.994 202.632 125.479 202.632ZM143.405 202.632C144.357 202.632 145.122 202.926 145.701 203.514C146.289 204.093 146.583 204.905 146.583 205.95V210.5H144.623V206.216C144.623 205.609 144.469 205.147 144.161 204.83C143.853 204.503 143.433 204.34 142.901 204.34C142.369 204.34 141.944 204.503 141.627 204.83C141.319 205.147 141.165 205.609 141.165 206.216V210.5H139.205V206.216C139.205 205.609 139.051 205.147 138.743 204.83C138.435 204.503 138.015 204.34 137.483 204.34C136.941 204.34 136.512 204.503 136.195 204.83C135.887 205.147 135.733 205.609 135.733 206.216V210.5H133.773V202.744H135.733V203.682C135.985 203.355 136.307 203.099 136.699 202.912C137.1 202.725 137.539 202.632 138.015 202.632C138.621 202.632 139.163 202.763 139.639 203.024C140.115 203.276 140.483 203.64 140.745 204.116C140.997 203.668 141.361 203.309 141.837 203.038C142.322 202.767 142.845 202.632 143.405 202.632ZM151.887 210.626C151.14 210.626 150.468 210.463 149.871 210.136C149.273 209.8 148.802 209.329 148.457 208.722C148.121 208.115 147.953 207.415 147.953 206.622C147.953 205.829 148.125 205.129 148.471 204.522C148.825 203.915 149.306 203.449 149.913 203.122C150.519 202.786 151.196 202.618 151.943 202.618C152.689 202.618 153.366 202.786 153.973 203.122C154.579 203.449 155.055 203.915 155.401 204.522C155.755 205.129 155.933 205.829 155.933 206.622C155.933 207.415 155.751 208.115 155.387 208.722C155.032 209.329 154.547 209.8 153.931 210.136C153.324 210.463 152.643 210.626 151.887 210.626ZM151.887 208.918C152.241 208.918 152.573 208.834 152.881 208.666C153.198 208.489 153.45 208.227 153.637 207.882C153.823 207.537 153.917 207.117 153.917 206.622C153.917 205.885 153.721 205.32 153.329 204.928C152.946 204.527 152.475 204.326 151.915 204.326C151.355 204.326 150.883 204.527 150.501 204.928C150.127 205.32 149.941 205.885 149.941 206.622C149.941 207.359 150.123 207.929 150.487 208.33C150.86 208.722 151.327 208.918 151.887 208.918ZM159.33 203.948C159.582 203.537 159.909 203.215 160.31 202.982C160.721 202.749 161.188 202.632 161.71 202.632V204.69H161.192C160.576 204.69 160.11 204.835 159.792 205.124C159.484 205.413 159.33 205.917 159.33 206.636V210.5H157.37V202.744H159.33V203.948ZM170.24 206.454C170.24 206.734 170.222 206.986 170.184 207.21H164.514C164.561 207.77 164.757 208.209 165.102 208.526C165.448 208.843 165.872 209.002 166.376 209.002C167.104 209.002 167.622 208.689 167.93 208.064H170.044C169.82 208.811 169.391 209.427 168.756 209.912C168.122 210.388 167.342 210.626 166.418 210.626C165.672 210.626 165 210.463 164.402 210.136C163.814 209.8 163.352 209.329 163.016 208.722C162.69 208.115 162.526 207.415 162.526 206.622C162.526 205.819 162.69 205.115 163.016 204.508C163.343 203.901 163.8 203.435 164.388 203.108C164.976 202.781 165.653 202.618 166.418 202.618C167.156 202.618 167.814 202.777 168.392 203.094C168.98 203.411 169.433 203.864 169.75 204.452C170.077 205.031 170.24 205.698 170.24 206.454ZM168.21 205.894C168.201 205.39 168.019 204.989 167.664 204.69C167.31 204.382 166.876 204.228 166.362 204.228C165.877 204.228 165.466 204.377 165.13 204.676C164.804 204.965 164.603 205.371 164.528 205.894H168.21Z" fill="#FF7F00"/>
<path d="M183 200H179C178.47 200 177.961 200.211 177.586 200.586C177.211 200.961 177 201.47 177 202V212C177 212.53 177.211 213.039 177.586 213.414C177.961 213.789 178.47 214 179 214H189C189.53 214 190.039 213.789 190.414 213.414C190.789 213.039 191 212.53 191 212V208M187 198H193M193 198V204M193 198L183 208" stroke="#FF7F00" stroke-width="2" stroke-linecap="round" stroke-linejoin="round"/>
</g>
</g>
<defs>
<filter id="filter0_d_1152_7389" x="0" y="0" width="286" height="344" filterUnits="userSpaceOnUse" color-interpolation-filters="sRGB">
<feFlood flood-opacity="0" result="BackgroundImageFix"/>
<feColorMatrix in="SourceAlpha" type="matrix" values="0 0 0 0 0 0 0 0 0 0 0 0 0 0 0 0 0 0 127 0" result="hardAlpha"/>
<feOffset dy="10"/>
<feGaussianBlur stdDeviation="7.5"/>
<feComposite in2="hardAlpha" operator="out"/>
<feColorMatrix type="matrix" values="0 0 0 0 0 0 0 0 0 0 0 0 0 0 0 0 0 0 0.2 0"/>
<feBlend mode="normal" in2="BackgroundImageFix" result="effect1_dropShadow_1152_7389"/>
<feBlend mode="normal" in="SourceGraphic" in2="effect1_dropShadow_1152_7389" result="shape"/>
</filter>
<filter id="filter1_d_1152_7389" x="-3.80203" y="200.558" width="195.898" height="195.898" filterUnits="userSpaceOnUse" color-interpolation-filters="sRGB">
<feFlood flood-opacity="0" result="BackgroundImageFix"/>
<feColorMatrix in="SourceAlpha" type="matrix" values="0 0 0 0 0 0 0 0 0 0 0 0 0 0 0 0 0 0 127 0" result="hardAlpha"/>
<feOffset dy="1.36041"/>
<feGaussianBlur stdDeviation="3.40102"/>
<feComposite in2="hardAlpha" operator="out"/>
<feColorMatrix type="matrix" values="0 0 0 0 0 0 0 0 0 0 0 0 0 0 0 0 0 0 0.15 0"/>
<feBlend mode="normal" in2="BackgroundImageFix" result="effect1_dropShadow_1152_7389"/>
<feBlend mode="normal" in="SourceGraphic" in2="effect1_dropShadow_1152_7389" result="shape"/>
</filter>
<filter id="filter2_d_1152_7389" x="129.517" y="248.173" width="148.285" height="148.284" filterUnits="userSpaceOnUse" color-interpolation-filters="sRGB">
<feFlood flood-opacity="0" result="BackgroundImageFix"/>
<feColorMatrix in="SourceAlpha" type="matrix" values="0 0 0 0 0 0 0 0 0 0 0 0 0 0 0 0 0 0 127 0" result="hardAlpha"/>
<feOffset dy="1.36041"/>
<feGaussianBlur stdDeviation="3.40102"/>
<feComposite in2="hardAlpha" operator="out"/>
<feColorMatrix type="matrix" values="0 0 0 0 0 0 0 0 0 0 0 0 0 0 0 0 0 0 0.15 0"/>
<feBlend mode="normal" in2="BackgroundImageFix" result="effect1_dropShadow_1152_7389"/>
<feBlend mode="normal" in="SourceGraphic" in2="effect1_dropShadow_1152_7389" result="shape"/>
</filter>
<radialGradient id="paint0_radial_1152_7389" cx="0" cy="0" r="1" gradientUnits="userSpaceOnUse" gradientTransform="translate(68 258) rotate(71.2742) scale(124.595)">
<stop stop-color="#FF7F00"/>
<stop offset="1" stop-color="#FFD9B4"/>
</radialGradient>
<radialGradient id="paint1_radial_1152_7389" cx="0" cy="0" r="1" gradientUnits="userSpaceOnUse" gradientTransform="translate(182.553 293.817) rotate(77.4067) scale(96.8061)">
<stop stop-color="#FF7F00"/>
<stop offset="1" stop-color="#FFD9B4"/>
</radialGradient>
<clipPath id="clip0_1152_7389">
<rect x="15" y="5" width="256" height="314" rx="16" fill="white"/>
</clipPath>
</defs>
</svg>
