<svg width="286" height="344" viewBox="0 0 286 344" fill="none" xmlns="http://www.w3.org/2000/svg">
<g filter="url(#filter0_d_1152_7059)">
<g clip-path="url(#clip0_1152_7059)">
<rect x="15" y="5" width="256" height="314" rx="16" fill="#FF7F00"/>
<g filter="url(#filter1_d_1152_7059)">
<circle cx="94.1472" cy="297.147" r="91.1472" fill="url(#paint0_radial_1152_7059)"/>
</g>
<g filter="url(#filter2_d_1152_7059)">
<circle cx="203.659" cy="320.954" r="67.3401" fill="url(#paint1_radial_1152_7059)"/>
</g>
<path d="M137.846 119.892C137.618 119.579 137.405 119.237 137.163 118.939C134.616 115.709 132.994 112.038 131.97 108.082C131.642 106.816 131.287 105.564 130.903 104.312C130.319 102.419 129.167 100.925 127.602 99.7303C125.41 98.0798 122.963 97.2119 120.203 97.2119C114.981 97.2119 109.774 97.2119 104.552 97.2119C99.2873 97.2119 94.0229 97.1977 88.7726 97.2119C83.8496 97.2403 79.4389 100.328 77.6746 104.909C77.077 106.475 76.8066 108.097 76.8066 109.761C76.8066 119.892 76.8066 130.022 76.8066 140.153C76.8066 140.409 76.8066 140.679 76.8209 140.935C76.9489 142.771 77.3189 144.564 78.2295 146.186C80.5487 150.312 84.0773 152.546 88.8295 152.66C93.0838 152.745 97.3523 152.688 101.607 152.674C107.867 152.674 114.127 152.702 120.388 152.66C125.681 152.617 130.02 149.273 131.472 144.194C131.785 143.112 132.012 142.003 132.24 140.893C132.98 137.35 134.332 134.092 136.608 131.246C137.035 130.705 137.419 130.122 137.846 129.567C139.781 126.949 139.895 122.652 137.846 119.892Z" fill="white"/>
<path d="M118.154 123.975H91.3341C87.7201 123.975 84.7891 121.044 84.7891 117.43V115.538C84.7891 111.924 87.7201 108.993 91.3341 108.993H118.154C121.768 108.993 124.699 111.924 124.699 115.538V117.43C124.699 121.044 121.768 123.975 118.154 123.975Z" fill="#F69221"/>
<path d="M94.2224 122.111C97.2399 122.111 99.6861 119.665 99.6861 116.648C99.6861 113.63 97.2399 111.184 94.2224 111.184C91.205 111.184 88.7588 113.63 88.7588 116.648C88.7588 119.665 91.205 122.111 94.2224 122.111Z" fill="white"/>
<path d="M91.3341 125.925H118.154C121.768 125.925 124.699 128.856 124.699 132.47V134.362C124.699 137.976 121.768 140.907 118.154 140.907H91.3341C87.7201 140.907 84.7891 137.976 84.7891 134.362V132.47C84.7891 128.856 87.7201 125.925 91.3341 125.925Z" fill="#F69221"/>
<path d="M114.696 138.887C117.714 138.887 120.16 136.44 120.16 133.423C120.16 130.405 117.714 127.959 114.696 127.959C111.679 127.959 109.232 130.405 109.232 133.423C109.232 136.44 111.679 138.887 114.696 138.887Z" fill="white"/>
<path d="M163.13 111.241C162.205 110.715 161.295 110.458 160.427 110.458C159.473 110.458 158.605 110.7 157.823 111.198C157.055 111.682 156.443 112.365 155.987 113.233C155.532 114.101 155.319 115.068 155.319 116.15C155.319 117.231 155.546 118.199 155.987 119.067C156.429 119.934 157.04 120.617 157.823 121.115C158.591 121.613 159.459 121.87 160.427 121.87C161.238 121.87 162.106 121.642 163.045 121.201C163.97 120.76 164.809 120.148 165.535 119.365L169.206 123.278C168.039 124.544 166.644 125.555 165.008 126.309C163.372 127.063 161.736 127.433 160.128 127.433C157.994 127.433 156.059 126.949 154.337 125.981C152.615 125.014 151.264 123.677 150.282 121.955C149.3 120.233 148.816 118.327 148.816 116.207C148.816 114.129 149.314 112.251 150.31 110.572C151.306 108.893 152.686 107.57 154.437 106.617C156.187 105.663 158.15 105.18 160.341 105.18C161.949 105.18 163.557 105.521 165.165 106.218C166.772 106.916 168.124 107.84 169.206 109.007L165.535 113.375C164.852 112.479 164.055 111.767 163.13 111.241Z" fill="white"/>
<path d="M182.765 110.771C181.399 110.302 180.275 110.074 179.407 110.074C178.852 110.074 178.425 110.188 178.112 110.402C177.799 110.615 177.643 110.928 177.643 111.341C177.643 111.91 177.941 112.351 178.553 112.664C179.165 112.977 180.133 113.318 181.456 113.688C182.964 114.115 184.202 114.556 185.184 114.983C186.165 115.424 187.019 116.093 187.73 116.989C188.456 117.886 188.812 119.067 188.812 120.532C188.812 122.026 188.413 123.278 187.631 124.303C186.848 125.327 185.781 126.095 184.458 126.608C183.121 127.12 181.627 127.376 179.976 127.376C178.141 127.376 176.305 127.063 174.456 126.437C172.606 125.811 171.012 124.971 169.675 123.89L172.065 119.067C173.147 120.006 174.47 120.788 176.021 121.443C177.571 122.097 178.923 122.41 180.047 122.41C180.744 122.41 181.285 122.282 181.669 122.012C182.053 121.741 182.253 121.372 182.253 120.888C182.253 120.29 181.94 119.849 181.299 119.522C180.673 119.209 179.692 118.882 178.368 118.526C176.874 118.142 175.651 117.743 174.669 117.316C173.687 116.904 172.848 116.249 172.136 115.381C171.425 114.499 171.069 113.361 171.069 111.924C171.069 110.544 171.439 109.334 172.165 108.296C172.905 107.271 173.929 106.475 175.267 105.92C176.604 105.365 178.155 105.094 179.933 105.094C181.541 105.094 183.149 105.322 184.728 105.777C186.308 106.233 187.702 106.844 188.883 107.599L186.535 112.493C185.383 111.81 184.131 111.241 182.765 110.771Z" fill="white"/>
<path d="M202.785 110.771C201.419 110.302 200.295 110.074 199.427 110.074C198.873 110.074 198.446 110.188 198.133 110.402C197.82 110.615 197.663 110.928 197.663 111.341C197.663 111.91 197.962 112.351 198.574 112.664C199.186 112.977 200.153 113.318 201.476 113.688C202.985 114.115 204.222 114.556 205.204 114.983C206.186 115.424 207.04 116.093 207.751 116.989C208.477 117.886 208.832 119.067 208.832 120.532C208.832 122.026 208.434 123.278 207.651 124.303C206.869 125.327 205.802 126.095 204.478 126.608C203.141 127.12 201.647 127.376 199.997 127.376C198.161 127.376 196.326 127.063 194.476 126.437C192.626 125.811 191.033 124.971 189.695 123.89L192.086 119.067C193.167 120.006 194.49 120.788 196.041 121.443C197.592 122.097 198.944 122.41 200.068 122.41C200.765 122.41 201.306 122.282 201.69 122.012C202.074 121.741 202.273 121.372 202.273 120.888C202.273 120.29 201.96 119.849 201.32 119.522C200.694 119.209 199.712 118.882 198.389 118.526C196.895 118.142 195.671 117.743 194.689 117.316C193.708 116.904 192.868 116.249 192.157 115.381C191.445 114.499 191.09 113.361 191.09 111.924C191.09 110.544 191.46 109.334 192.185 108.296C192.925 107.271 193.95 106.475 195.287 105.92C196.624 105.365 198.175 105.094 199.954 105.094C201.562 105.094 203.169 105.322 204.749 105.777C206.328 106.233 207.723 106.844 208.903 107.599L206.556 112.493C205.403 111.81 204.151 111.241 202.785 110.771Z" fill="white"/>
<path d="M154.465 132.498C153.896 132.313 153.398 132.228 152.971 132.228C152.487 132.228 152.117 132.313 151.833 132.498C151.548 132.683 151.42 132.925 151.42 133.252C151.42 133.537 151.52 133.779 151.719 133.978C151.918 134.177 152.16 134.333 152.459 134.462C152.758 134.59 153.156 134.718 153.668 134.874C154.38 135.088 154.963 135.287 155.418 135.5C155.874 135.714 156.258 136.027 156.585 136.425C156.898 136.838 157.069 137.378 157.069 138.047C157.069 138.687 156.898 139.242 156.557 139.726C156.215 140.196 155.731 140.565 155.134 140.807C154.522 141.063 153.839 141.177 153.056 141.177C152.231 141.177 151.434 141.021 150.652 140.722C149.869 140.423 149.186 140.011 148.617 139.498L149.457 137.791C149.983 138.275 150.581 138.673 151.235 138.943C151.89 139.228 152.516 139.37 153.085 139.37C153.64 139.37 154.081 139.256 154.408 139.043C154.735 138.83 154.892 138.531 154.892 138.161C154.892 137.862 154.792 137.62 154.593 137.421C154.394 137.222 154.152 137.065 153.853 136.951C153.554 136.838 153.142 136.695 152.63 136.553C151.918 136.34 151.335 136.14 150.894 135.941C150.453 135.742 150.054 135.443 149.741 135.031C149.414 134.618 149.257 134.092 149.257 133.437C149.257 132.825 149.414 132.299 149.741 131.844C150.068 131.388 150.524 131.033 151.121 130.791C151.719 130.535 152.402 130.421 153.184 130.421C153.867 130.421 154.536 130.52 155.205 130.719C155.874 130.919 156.457 131.189 156.983 131.53L156.172 133.281C155.575 132.939 155.02 132.683 154.465 132.498Z" fill="#F5F5F7"/>
<path d="M171.68 130.563H173.758L170.201 141.063H168.109L165.705 133.096L163.257 141.063H161.194L157.651 130.563H159.814L162.29 138.886L164.751 130.563H166.729L169.205 138.915L171.68 130.563Z" fill="#F5F5F7"/>
<path d="M175.081 130.563H177.087V141.063H175.081V130.563Z" fill="#F5F5F7"/>
<path d="M178.496 130.563H187.062V132.341H183.789V141.063H181.769V132.341H178.496V130.563Z" fill="#F5F5F7"/>
<path d="M194.19 132.598C193.678 132.356 193.165 132.242 192.653 132.242C191.999 132.242 191.401 132.398 190.875 132.711C190.334 133.024 189.907 133.451 189.594 133.992C189.281 134.533 189.125 135.13 189.125 135.785C189.125 136.439 189.281 137.037 189.594 137.578C189.907 138.118 190.334 138.545 190.875 138.872C191.415 139.2 192.013 139.342 192.653 139.342C193.151 139.342 193.663 139.228 194.161 139.015C194.674 138.801 195.115 138.488 195.499 138.104L196.68 139.427C196.125 139.982 195.485 140.437 194.759 140.75C194.033 141.078 193.294 141.234 192.539 141.234C191.529 141.234 190.604 140.992 189.765 140.509C188.925 140.025 188.271 139.37 187.787 138.545C187.303 137.72 187.062 136.809 187.062 135.813C187.062 134.817 187.303 133.907 187.801 133.081C188.285 132.256 188.954 131.616 189.808 131.146C190.647 130.677 191.586 130.435 192.625 130.435C193.379 130.435 194.105 130.591 194.83 130.89C195.556 131.189 196.168 131.602 196.68 132.142L195.513 133.608C195.129 133.167 194.702 132.825 194.19 132.598Z" fill="#F5F5F7"/>
<path d="M198.346 130.563H200.352V135.045H205.588V130.563H207.594V141.063H205.588V136.795H200.352V141.063H198.346V130.563Z" fill="#F5F5F7"/>
<rect x="74" y="186" width="139" height="40" rx="16" fill="white"/>
<path d="M92.926 208.946H96.146V210.5H90.966V200.728H92.926V208.946ZM104.602 206.454C104.602 206.734 104.583 206.986 104.546 207.21H98.8758C98.9224 207.77 99.1184 208.209 99.4638 208.526C99.8091 208.843 100.234 209.002 100.738 209.002C101.466 209.002 101.984 208.689 102.292 208.064H104.406C104.182 208.811 103.752 209.427 103.118 209.912C102.483 210.388 101.704 210.626 100.78 210.626C100.033 210.626 99.3611 210.463 98.7638 210.136C98.1758 209.8 97.7138 209.329 97.3778 208.722C97.0511 208.115 96.8878 207.415 96.8878 206.622C96.8878 205.819 97.0511 205.115 97.3778 204.508C97.7044 203.901 98.1618 203.435 98.7498 203.108C99.3378 202.781 100.014 202.618 100.78 202.618C101.517 202.618 102.175 202.777 102.754 203.094C103.342 203.411 103.794 203.864 104.112 204.452C104.438 205.031 104.602 205.698 104.602 206.454ZM102.572 205.894C102.562 205.39 102.38 204.989 102.026 204.69C101.671 204.382 101.237 204.228 100.724 204.228C100.238 204.228 99.8278 204.377 99.4918 204.676C99.1651 204.965 98.9644 205.371 98.8898 205.894H102.572ZM105.528 206.594C105.528 205.81 105.682 205.115 105.99 204.508C106.308 203.901 106.732 203.435 107.264 203.108C107.806 202.781 108.408 202.618 109.07 202.618C109.649 202.618 110.153 202.735 110.582 202.968C111.021 203.201 111.371 203.495 111.632 203.85V202.744H113.606V210.5H111.632V209.366C111.38 209.73 111.03 210.033 110.582 210.276C110.144 210.509 109.635 210.626 109.056 210.626C108.403 210.626 107.806 210.458 107.264 210.122C106.732 209.786 106.308 209.315 105.99 208.708C105.682 208.092 105.528 207.387 105.528 206.594ZM111.632 206.622C111.632 206.146 111.539 205.74 111.352 205.404C111.166 205.059 110.914 204.797 110.596 204.62C110.279 204.433 109.938 204.34 109.574 204.34C109.21 204.34 108.874 204.429 108.566 204.606C108.258 204.783 108.006 205.045 107.81 205.39C107.624 205.726 107.53 206.127 107.53 206.594C107.53 207.061 107.624 207.471 107.81 207.826C108.006 208.171 108.258 208.437 108.566 208.624C108.884 208.811 109.22 208.904 109.574 208.904C109.938 208.904 110.279 208.815 110.596 208.638C110.914 208.451 111.166 208.19 111.352 207.854C111.539 207.509 111.632 207.098 111.632 206.622ZM117.481 203.948C117.733 203.537 118.059 203.215 118.461 202.982C118.871 202.749 119.338 202.632 119.861 202.632V204.69H119.343C118.727 204.69 118.26 204.835 117.943 205.124C117.635 205.413 117.481 205.917 117.481 206.636V210.5H115.521V202.744H117.481V203.948ZM125.479 202.632C126.403 202.632 127.15 202.926 127.719 203.514C128.288 204.093 128.573 204.905 128.573 205.95V210.5H126.613V206.216C126.613 205.6 126.459 205.129 126.151 204.802C125.843 204.466 125.423 204.298 124.891 204.298C124.35 204.298 123.92 204.466 123.603 204.802C123.295 205.129 123.141 205.6 123.141 206.216V210.5H121.181V202.744H123.141V203.71C123.402 203.374 123.734 203.113 124.135 202.926C124.546 202.73 124.994 202.632 125.479 202.632ZM143.405 202.632C144.357 202.632 145.122 202.926 145.701 203.514C146.289 204.093 146.583 204.905 146.583 205.95V210.5H144.623V206.216C144.623 205.609 144.469 205.147 144.161 204.83C143.853 204.503 143.433 204.34 142.901 204.34C142.369 204.34 141.944 204.503 141.627 204.83C141.319 205.147 141.165 205.609 141.165 206.216V210.5H139.205V206.216C139.205 205.609 139.051 205.147 138.743 204.83C138.435 204.503 138.015 204.34 137.483 204.34C136.941 204.34 136.512 204.503 136.195 204.83C135.887 205.147 135.733 205.609 135.733 206.216V210.5H133.773V202.744H135.733V203.682C135.985 203.355 136.307 203.099 136.699 202.912C137.1 202.725 137.539 202.632 138.015 202.632C138.621 202.632 139.163 202.763 139.639 203.024C140.115 203.276 140.483 203.64 140.745 204.116C140.997 203.668 141.361 203.309 141.837 203.038C142.322 202.767 142.845 202.632 143.405 202.632ZM151.887 210.626C151.14 210.626 150.468 210.463 149.871 210.136C149.273 209.8 148.802 209.329 148.457 208.722C148.121 208.115 147.953 207.415 147.953 206.622C147.953 205.829 148.125 205.129 148.471 204.522C148.825 203.915 149.306 203.449 149.913 203.122C150.519 202.786 151.196 202.618 151.943 202.618C152.689 202.618 153.366 202.786 153.973 203.122C154.579 203.449 155.055 203.915 155.401 204.522C155.755 205.129 155.933 205.829 155.933 206.622C155.933 207.415 155.751 208.115 155.387 208.722C155.032 209.329 154.547 209.8 153.931 210.136C153.324 210.463 152.643 210.626 151.887 210.626ZM151.887 208.918C152.241 208.918 152.573 208.834 152.881 208.666C153.198 208.489 153.45 208.227 153.637 207.882C153.823 207.537 153.917 207.117 153.917 206.622C153.917 205.885 153.721 205.32 153.329 204.928C152.946 204.527 152.475 204.326 151.915 204.326C151.355 204.326 150.883 204.527 150.501 204.928C150.127 205.32 149.941 205.885 149.941 206.622C149.941 207.359 150.123 207.929 150.487 208.33C150.86 208.722 151.327 208.918 151.887 208.918ZM159.33 203.948C159.582 203.537 159.909 203.215 160.31 202.982C160.721 202.749 161.188 202.632 161.71 202.632V204.69H161.192C160.576 204.69 160.11 204.835 159.792 205.124C159.484 205.413 159.33 205.917 159.33 206.636V210.5H157.37V202.744H159.33V203.948ZM170.24 206.454C170.24 206.734 170.222 206.986 170.184 207.21H164.514C164.561 207.77 164.757 208.209 165.102 208.526C165.448 208.843 165.872 209.002 166.376 209.002C167.104 209.002 167.622 208.689 167.93 208.064H170.044C169.82 208.811 169.391 209.427 168.756 209.912C168.122 210.388 167.342 210.626 166.418 210.626C165.672 210.626 165 210.463 164.402 210.136C163.814 209.8 163.352 209.329 163.016 208.722C162.69 208.115 162.526 207.415 162.526 206.622C162.526 205.819 162.69 205.115 163.016 204.508C163.343 203.901 163.8 203.435 164.388 203.108C164.976 202.781 165.653 202.618 166.418 202.618C167.156 202.618 167.814 202.777 168.392 203.094C168.98 203.411 169.433 203.864 169.75 204.452C170.077 205.031 170.24 205.698 170.24 206.454ZM168.21 205.894C168.201 205.39 168.019 204.989 167.664 204.69C167.31 204.382 166.876 204.228 166.362 204.228C165.877 204.228 165.466 204.377 165.13 204.676C164.804 204.965 164.603 205.371 164.528 205.894H168.21Z" fill="#FF7F00"/>
<path d="M183 200H179C178.47 200 177.961 200.211 177.586 200.586C177.211 200.961 177 201.47 177 202V212C177 212.53 177.211 213.039 177.586 213.414C177.961 213.789 178.47 214 179 214H189C189.53 214 190.039 213.789 190.414 213.414C190.789 213.039 191 212.53 191 212V208M187 198H193M193 198V204M193 198L183 208" stroke="#FF7F00" stroke-width="2" stroke-linecap="round" stroke-linejoin="round"/>
</g>
</g>
<defs>
<filter id="filter0_d_1152_7059" x="0" y="0" width="286" height="344" filterUnits="userSpaceOnUse" color-interpolation-filters="sRGB">
<feFlood flood-opacity="0" result="BackgroundImageFix"/>
<feColorMatrix in="SourceAlpha" type="matrix" values="0 0 0 0 0 0 0 0 0 0 0 0 0 0 0 0 0 0 127 0" result="hardAlpha"/>
<feOffset dy="10"/>
<feGaussianBlur stdDeviation="7.5"/>
<feComposite in2="hardAlpha" operator="out"/>
<feColorMatrix type="matrix" values="0 0 0 0 0 0 0 0 0 0 0 0 0 0 0 0 0 0 0.2 0"/>
<feBlend mode="normal" in2="BackgroundImageFix" result="effect1_dropShadow_1152_7059"/>
<feBlend mode="normal" in="SourceGraphic" in2="effect1_dropShadow_1152_7059" result="shape"/>
</filter>
<filter id="filter1_d_1152_7059" x="-3.80203" y="200.558" width="195.898" height="195.898" filterUnits="userSpaceOnUse" color-interpolation-filters="sRGB">
<feFlood flood-opacity="0" result="BackgroundImageFix"/>
<feColorMatrix in="SourceAlpha" type="matrix" values="0 0 0 0 0 0 0 0 0 0 0 0 0 0 0 0 0 0 127 0" result="hardAlpha"/>
<feOffset dy="1.36041"/>
<feGaussianBlur stdDeviation="3.40102"/>
<feComposite in2="hardAlpha" operator="out"/>
<feColorMatrix type="matrix" values="0 0 0 0 0 0 0 0 0 0 0 0 0 0 0 0 0 0 0.15 0"/>
<feBlend mode="normal" in2="BackgroundImageFix" result="effect1_dropShadow_1152_7059"/>
<feBlend mode="normal" in="SourceGraphic" in2="effect1_dropShadow_1152_7059" result="shape"/>
</filter>
<filter id="filter2_d_1152_7059" x="129.517" y="248.173" width="148.285" height="148.284" filterUnits="userSpaceOnUse" color-interpolation-filters="sRGB">
<feFlood flood-opacity="0" result="BackgroundImageFix"/>
<feColorMatrix in="SourceAlpha" type="matrix" values="0 0 0 0 0 0 0 0 0 0 0 0 0 0 0 0 0 0 127 0" result="hardAlpha"/>
<feOffset dy="1.36041"/>
<feGaussianBlur stdDeviation="3.40102"/>
<feComposite in2="hardAlpha" operator="out"/>
<feColorMatrix type="matrix" values="0 0 0 0 0 0 0 0 0 0 0 0 0 0 0 0 0 0 0.15 0"/>
<feBlend mode="normal" in2="BackgroundImageFix" result="effect1_dropShadow_1152_7059"/>
<feBlend mode="normal" in="SourceGraphic" in2="effect1_dropShadow_1152_7059" result="shape"/>
</filter>
<radialGradient id="paint0_radial_1152_7059" cx="0" cy="0" r="1" gradientUnits="userSpaceOnUse" gradientTransform="translate(68 258) rotate(71.2742) scale(124.595)">
<stop stop-color="#FF7F00"/>
<stop offset="1" stop-color="#FFD9B4"/>
</radialGradient>
<radialGradient id="paint1_radial_1152_7059" cx="0" cy="0" r="1" gradientUnits="userSpaceOnUse" gradientTransform="translate(182.553 293.817) rotate(77.4067) scale(96.8061)">
<stop stop-color="#FF7F00"/>
<stop offset="1" stop-color="#FFD9B4"/>
</radialGradient>
<clipPath id="clip0_1152_7059">
<rect x="15" y="5" width="256" height="314" rx="16" fill="white"/>
</clipPath>
</defs>
</svg>
