<svg width="286" height="344" viewBox="0 0 286 344" fill="none" xmlns="http://www.w3.org/2000/svg">
<g filter="url(#filter0_d_1152_6729)">
<g clip-path="url(#clip0_1152_6729)">
<rect x="15" y="5" width="256" height="314" rx="16" fill="#FF7F00"/>
<g filter="url(#filter1_d_1152_6729)">
<circle cx="94.1472" cy="297.147" r="91.1472" fill="url(#paint0_radial_1152_6729)"/>
</g>
<g filter="url(#filter2_d_1152_6729)">
<circle cx="203.659" cy="320.954" r="67.3401" fill="url(#paint1_radial_1152_6729)"/>
</g>
<path fill-rule="evenodd" clip-rule="evenodd" d="M135.17 75.9688C122.219 78.984 112.61 87.3788 108.662 99.0491C105.148 109.418 106.211 120.329 111.72 129.722C113.933 133.496 114.627 133.67 117.447 136.468C120.05 139.049 120.245 139.722 123.781 141.826C145.343 154.776 172.523 142.889 177.881 119.028C182.285 99.4396 166.948 100.199 162.892 106.49C161.005 109.396 161.872 113.062 160.701 116.772C156.666 129.396 140.202 134.993 129.443 124.472C118.792 114.082 124.671 97.3138 136.406 93.2574C139.812 92.086 151.721 93.4309 151.222 83.1705C150.788 75.036 143.022 74.1466 135.17 75.9688Z" fill="white"/>
<mask id="mask0_1152_6729" style="mask-type:luminance" maskUnits="userSpaceOnUse" x="106" y="75" width="73" height="73">
<path d="M135.17 75.9688C122.219 78.984 112.61 87.3788 108.662 99.0491C105.148 109.418 106.211 120.329 111.72 129.722C113.933 133.496 114.627 133.67 117.447 136.468C120.05 139.049 120.245 139.722 123.781 141.826C145.343 154.776 172.523 142.889 177.881 119.028C182.285 99.4396 166.948 100.199 162.892 106.49C161.005 109.396 161.872 113.062 160.701 116.772C156.666 129.396 140.202 134.993 129.443 124.472C118.792 114.082 124.671 97.3138 136.406 93.2574C139.812 92.086 151.721 93.4309 151.222 83.1705C150.788 75.036 143.022 74.1466 135.17 75.9688Z" fill="white"/>
</mask>
<g mask="url(#mask0_1152_6729)">
<mask id="mask1_1152_6729" style="mask-type:luminance" maskUnits="userSpaceOnUse" x="90" y="68" width="73" height="74">
<path d="M126.187 68.9839C146.078 68.9839 162.195 85.1011 162.195 104.993C162.195 124.884 146.078 141.002 126.187 141.002C106.295 141.002 90.1777 124.884 90.1777 104.993C90.1777 85.1011 106.295 68.9839 126.187 68.9839Z" fill="white"/>
</mask>
<g mask="url(#mask1_1152_6729)">
<path d="M162.195 68.9839H90.1777V141.002H162.195V68.9839Z" fill="white"/>
</g>
</g>
<path fill-rule="evenodd" clip-rule="evenodd" d="M162.11 72.5849C157.902 77.7042 160.526 85.7737 154.366 92.585C148.487 99.0926 140.483 96.9885 134.778 101.132C128.162 105.947 128.227 115.514 133.433 120.828C138.878 126.381 148.184 126.056 153.129 119.7C157.533 114.06 154.908 106.099 160.96 99.7434C163.802 96.7499 167.62 95.188 170.743 94.4722C173.802 93.7563 177.403 93.5394 180.396 91.2618C187.078 86.1641 187.208 76.8799 181.785 71.4135C176.166 65.7736 167.121 66.4894 162.11 72.5849Z" fill="white"/>
<path d="M191.829 168.811V166.511H197.946V163.496H191.829V161.327H198.467V158.29H188.489V171.826H198.662V168.789H191.829V168.811ZM181.33 168.724V158.312H177.968V171.848H187.512V168.746H181.33V168.724ZM172.74 171.826H176.102V158.29H172.74V171.826ZM168.076 167.705C168.076 168.659 167.556 169.028 166.102 169.028H163.586V166.381H166.102C167.556 166.36 168.076 166.75 168.076 167.705ZM165.625 161.132C167.1 161.132 167.599 161.479 167.599 162.347C167.599 163.214 167.1 163.583 165.625 163.583H163.586V161.132H165.625ZM171.547 168.203C171.547 166.403 170.527 165.275 168.64 164.906C170.18 164.451 171.026 163.41 171.026 161.848C171.026 159.678 169.399 158.29 166.775 158.29H160.245V171.826H167.252C169.898 171.826 171.547 170.438 171.547 168.203ZM155.473 165.08C155.473 167.336 153.998 168.919 151.829 168.919C149.638 168.919 148.185 167.336 148.185 165.08C148.185 162.824 149.66 161.197 151.829 161.197C154.02 161.197 155.473 162.824 155.473 165.08ZM144.649 165.08C144.584 169.049 147.707 172.173 151.829 172.086C155.95 172.173 159.052 169.028 159.009 165.08C159.074 161.11 155.95 157.943 151.829 158.03C147.707 157.965 144.605 161.132 144.649 165.08ZM139.334 158.312L135.69 164.841L132.046 158.312H127.989V171.848H131.308V163.128L134.432 168.702H136.926L140.05 163.128V171.848H143.369V158.312H139.334ZM111.286 169.158C112.284 171.023 114.519 172.108 117.23 172.108C120.657 172.108 122.696 170.329 122.696 167.726C122.696 165.709 121.503 164.364 119.03 163.757L116.775 163.214C115.451 162.911 115.039 162.564 115.039 162.065C115.039 161.436 115.668 161.023 116.905 161.023C118.206 161.023 119.247 161.457 120.072 162.368L122.349 160.503C121.373 158.963 119.399 158.03 116.926 158.03C113.629 158.03 111.633 159.722 111.633 162.151C111.633 164.147 112.935 165.535 115.473 166.143L117.664 166.663C118.9 166.945 119.312 167.314 119.312 167.878C119.312 168.637 118.662 169.071 117.36 169.071C115.798 169.071 114.432 168.42 113.564 167.271L111.286 169.158ZM99.7679 169.158C100.766 171.023 103 172.108 105.712 172.108C109.139 172.108 111.178 170.329 111.178 167.726C111.178 165.709 109.985 164.364 107.512 163.757L105.256 163.214C103.933 162.911 103.521 162.564 103.521 162.065C103.521 161.436 104.15 161.023 105.386 161.023C106.688 161.023 107.729 161.457 108.553 162.368L110.831 160.503C109.855 158.963 107.881 158.03 105.408 158.03C102.111 158.03 100.115 159.722 100.115 162.151C100.115 164.147 101.417 165.535 103.954 166.143L106.145 166.663C107.382 166.945 107.794 167.314 107.794 167.878C107.794 168.637 107.143 169.071 105.842 169.071C104.28 169.071 102.913 168.42 102.046 167.271L99.7679 169.158ZM86.6876 165.08C86.6225 169.115 89.616 172.151 93.7375 172.086C96.5792 172.086 98.7918 170.763 99.8764 168.29L96.948 166.793C96.3189 168.182 95.1475 168.898 93.7375 168.898C91.6551 168.898 90.1583 167.292 90.1583 165.036C90.1583 162.78 91.6551 161.175 93.7375 161.175C95.1475 161.175 96.3189 161.891 96.948 163.279L99.8764 161.783C98.7918 159.331 96.5792 157.987 93.7375 157.987C89.5293 157.965 86.6225 161.11 86.6876 165.08Z" fill="white"/>
<path fill-rule="evenodd" clip-rule="evenodd" d="M162.436 81.2616L162.501 82.0426C162.544 82.0859 162.522 82.1293 162.544 82.3462C162.609 82.8669 162.804 83.6044 162.956 84.0599C163.39 85.2747 163.867 86.1641 164.692 87.1619C164.908 87.4222 165.429 87.9862 165.711 88.2248C166.34 88.7888 167.164 89.3745 167.967 89.7649C168.618 90.0686 168.878 90.1988 169.594 90.4157C170.223 90.5892 170.787 90.6977 171.481 90.7845C171.655 90.8062 171.828 90.8062 172.002 90.8062C172.089 90.8062 172.175 90.8062 172.262 90.8062L172.501 90.8279H172.522L173.781 90.7194C173.824 90.676 173.954 90.676 174.019 90.676L174.8 90.5242C175.624 90.3506 176.687 89.8734 177.381 89.4829C178.726 88.702 179.833 87.6608 180.7 86.381C180.787 86.2725 180.83 86.1424 180.917 86.0339C181.655 84.8408 182.197 83.2573 182.305 81.804C182.327 81.6304 182.327 81.4569 182.349 81.2833L182.371 80.741L182.262 79.3527C182.197 79.2443 182.175 78.9623 182.154 78.8104C182.089 78.3766 181.893 77.7909 181.741 77.3788C181.525 76.7714 181.264 76.2942 180.961 75.7302C180.527 74.9493 179.746 74.0599 179.095 73.4525C178.987 73.344 178.9 73.279 178.791 73.1705C178.444 72.8668 178.141 72.6933 177.772 72.433C176.449 71.5436 174.67 71.0013 173.086 70.8928C172.913 70.8711 172.739 70.8711 172.566 70.8711C172.436 70.8711 172.089 70.9145 172.023 70.8711L171.004 70.9579H170.982H170.961L170.462 71.0447C169.355 71.2833 168.271 71.6521 167.338 72.2377C166.644 72.6716 165.885 73.2139 165.321 73.8213C165.19 73.9514 165.147 74.0165 165.039 74.125C164.626 74.5588 164.106 75.2963 163.802 75.8169C163.13 77.01 162.848 77.7909 162.587 79.1792C162.479 79.7215 162.414 80.5458 162.457 81.1315L162.436 81.2616ZM178.314 80.5675C178.466 80.5024 178.683 80.3723 178.748 80.2204C178.9 79.8734 178.596 79.3527 178.01 79.6998C177.859 79.8083 177.685 79.895 177.512 80.0035C177.338 80.112 177.186 80.1987 177.013 80.3072C176.839 80.4157 176.687 80.5024 176.687 80.741C176.687 80.9797 176.839 81.1532 177.034 81.1966C177.338 81.2616 177.446 81.023 177.598 81.023C177.663 81.9558 177.685 82.4981 177.425 83.4092C177.316 83.7779 177.208 84.0599 177.034 84.3636L176.666 84.9927L176.21 85.5567C176.123 85.6651 175.971 85.7953 175.863 85.9038C175.039 86.6196 174.041 87.0968 172.848 87.2053C172.023 87.2704 171.221 87.1402 170.57 86.8582C170.18 86.6847 169.789 86.5328 169.464 86.2508C169.377 86.1641 169.182 86.0556 169.073 85.9471C169.008 85.8821 168.965 85.8387 168.9 85.7736C168.835 85.7085 168.791 85.6651 168.726 85.6001C168.271 85.0794 168.054 84.8625 167.707 84.1467C167.555 83.7996 167.425 83.4742 167.316 83.0838C167.229 82.7367 167.121 82.1727 167.143 81.804C167.403 81.8907 167.598 82.0426 167.859 81.804C168.075 81.6087 168.01 81.2833 167.815 81.1315C167.728 81.0664 166.579 80.6109 166.427 80.5458C166.123 80.4373 165.863 80.6109 165.798 80.8495C165.754 81.0013 165.82 81.1532 165.906 81.24C166.08 81.4352 166.34 81.3918 166.362 81.522C166.362 81.5653 166.362 81.6955 166.362 81.7606C166.34 83.2356 166.991 84.8625 167.945 85.9254C168.639 86.6847 169.29 87.1619 170.31 87.574C172.457 88.42 174.8 87.8777 176.449 86.3593C177.555 85.3615 178.227 83.8864 178.379 82.3679C178.401 82.0426 178.401 81.7823 178.401 81.4352C178.401 81.1749 178.336 80.8712 178.314 80.5675ZM169.551 74.8191C168.661 74.9926 168.423 76.4243 168.509 77.4005C168.705 79.6564 170.266 80.5892 170.895 78.7237C171.199 77.8126 171.069 76.446 170.613 75.6C170.44 75.2529 170.028 74.7323 169.551 74.8191ZM174.084 74.4503C173.108 74.6673 173 76.2725 173.065 77.0534C173.13 77.8777 173.607 79.4612 174.583 79.3527C175.039 79.2877 175.321 78.7454 175.451 78.3549C175.754 77.4005 175.624 76.0989 175.169 75.2096C174.974 74.8625 174.561 74.3636 174.084 74.4503ZM171.459 71.4568C171.741 71.3918 172.284 71.4134 172.587 71.4134C173.477 71.4134 174.67 71.6304 175.451 71.9124C176.167 72.1727 176.796 72.4547 177.403 72.8451C177.533 72.9319 177.62 72.997 177.75 73.0837L178.401 73.5826C178.444 73.626 178.444 73.6043 178.488 73.6477C178.509 73.6694 178.553 73.6911 178.574 73.7128C179.486 74.5371 179.963 75.0794 180.592 76.164C180.874 76.6412 181.178 77.3354 181.351 77.856C181.763 79.0924 181.958 80.8061 181.763 82.0859C181.525 83.6695 181.047 84.9059 180.18 86.2074L179.746 86.7931C179.724 86.8365 179.702 86.8365 179.681 86.8799L179.399 87.2053C178.835 87.856 177.794 88.6803 177.078 89.0708C175.971 89.6565 174.757 90.1337 173.347 90.2639C171.872 90.3723 170.787 90.2856 169.355 89.8083C167.598 89.2226 165.711 87.8343 164.692 86.2725C164.475 85.9254 164.453 85.9254 164.236 85.535C163.954 85.0361 163.672 84.4504 163.477 83.843C163.173 82.9102 163.173 82.715 163.043 81.7823C162.956 81.1315 163 80.2638 163.086 79.6347C163.282 77.9645 164.084 76.1206 165.169 74.8625C165.342 74.6456 165.538 74.4286 165.733 74.2334C166.362 73.626 166.969 73.1271 167.772 72.6716C168.878 72.0642 169.724 71.7605 170.961 71.5436C171.091 71.5002 171.308 71.5002 171.459 71.4568Z" fill="#FF7F00"/>
<path fill-rule="evenodd" clip-rule="evenodd" d="M142.436 102.52C140.549 102.672 139.508 103.192 138.141 103.973C137.881 104.125 137.837 104.169 137.62 104.32C136.276 105.275 135.082 106.902 134.518 108.42C134.085 109.592 133.824 110.915 133.933 112.412C134.085 114.364 134.887 116.316 136.124 117.704C136.406 118.03 136.644 118.29 136.991 118.594C138.293 119.743 139.833 120.503 141.677 120.828C143.694 121.175 145.647 120.785 147.447 119.895C148.597 119.31 149.768 118.29 150.549 117.249C151.048 116.576 151.482 115.817 151.785 115.015C152.935 111.934 152.436 108.615 150.419 106.056C150.332 105.947 150.267 105.839 150.158 105.752C150.115 105.687 150.072 105.644 150.028 105.6C149.855 105.405 149.226 104.798 149.009 104.624C149.009 104.624 148.987 104.624 148.987 104.602L147.447 103.583C147.143 103.431 146.84 103.279 146.514 103.149C145.95 102.954 145.321 102.737 144.627 102.628C143.911 102.498 143.174 102.455 142.436 102.52ZM137.49 105.882C137.555 105.752 137.707 105.665 137.816 105.557C138.054 105.34 138.64 104.906 138.922 104.733C139.247 104.537 140.332 103.973 140.657 103.952L140.375 104.234C140.137 104.494 139.833 104.884 139.638 105.188C139.486 105.427 139.356 105.644 139.204 105.904L138.857 106.663C138.618 106.62 137.62 106.012 137.49 105.882ZM147.425 106.663C147.23 106.164 146.926 105.6 146.644 105.188C146.471 104.949 145.863 104.125 145.647 103.973C145.842 103.995 146.384 104.234 146.558 104.32L147.404 104.754C147.729 104.949 148.25 105.318 148.51 105.579C148.64 105.709 148.77 105.774 148.814 105.882C148.64 106.034 147.729 106.598 147.425 106.663ZM142.61 103.865V107.552C142.132 107.552 141.612 107.466 141.178 107.379C140.722 107.292 140.31 107.162 139.898 107.054C140.007 106.468 140.983 105.123 141.525 104.624C141.785 104.407 142.241 103.995 142.61 103.865ZM143.694 107.552V103.865C144.02 103.973 144.67 104.516 144.952 104.798C145.408 105.253 146.276 106.424 146.427 107.075C145.408 107.314 144.866 107.531 143.694 107.552ZM137.989 111.153L135.039 111.175C135.082 109.96 135.538 108.637 136.124 107.618C136.254 107.401 136.601 106.858 136.753 106.706C136.905 106.772 137.816 107.444 138.51 107.683C138.51 107.748 138.228 108.897 138.163 109.331C138.054 109.917 138.011 110.524 137.989 111.153ZM147.816 107.683C148.098 107.574 148.466 107.379 148.727 107.227L149.573 106.706C150.072 107.184 150.853 108.811 151.048 109.635C151.156 110.09 151.265 110.72 151.286 111.175H148.336C148.315 110.242 148.206 109.396 148.011 108.507C147.946 108.268 147.816 107.878 147.816 107.683ZM139.508 108.095C139.638 108.116 140.505 108.377 140.939 108.464C141.46 108.572 142.046 108.637 142.588 108.659V111.175H139.052C139.074 110.09 139.247 109.049 139.508 108.095ZM143.694 108.637C144.497 108.615 145.299 108.485 146.059 108.29C146.276 108.247 146.601 108.116 146.775 108.095C147.035 109.093 147.208 110.047 147.23 111.153H143.694V108.637ZM146.775 115.383C146.297 115.275 145.929 115.145 145.321 115.036C145.061 114.993 144.801 114.949 144.54 114.928C144.345 114.906 143.846 114.884 143.716 114.863L143.694 112.26H147.23C147.208 113.323 147.013 114.494 146.775 115.383ZM135.017 112.238H137.968C137.989 112.91 138.098 114.299 138.293 114.949C138.336 115.058 138.488 115.644 138.488 115.752L136.731 116.707C136.644 116.598 136.471 116.381 136.406 116.273C136.059 115.752 135.863 115.427 135.603 114.776C135.321 114.038 135.061 113.149 135.017 112.238ZM149.551 116.707C149.421 116.685 149.269 116.533 149.139 116.446L147.794 115.752C147.772 115.665 147.924 115.145 147.968 114.971C148.163 114.342 148.271 112.889 148.315 112.238L151.265 112.216C151.243 113.279 150.874 114.364 150.462 115.253C150.245 115.752 149.855 116.381 149.551 116.707ZM139.052 112.26H142.588V114.863C142.436 114.906 141.959 114.906 141.764 114.928C141.373 114.971 140.592 115.08 140.223 115.188C139.985 115.253 139.725 115.362 139.508 115.383C139.377 114.798 139.291 114.581 139.182 113.93C139.139 113.388 139.074 112.802 139.052 112.26ZM139.898 116.403C140.939 116.186 141.33 115.991 142.588 115.947V119.548C142.306 119.44 141.915 119.114 141.699 118.963C141.265 118.637 140.636 117.813 140.375 117.379C140.289 117.205 139.92 116.576 139.898 116.403ZM143.694 119.548V115.947C144.171 115.969 144.67 116.012 145.126 116.099C145.603 116.186 146.145 116.359 146.406 116.403C146.167 117.075 145.668 117.769 145.299 118.225C145.017 118.55 144.171 119.375 143.694 119.548ZM137.49 117.531C137.664 117.444 137.946 117.271 138.163 117.14C138.336 117.054 138.727 116.837 138.922 116.793C139.096 117.422 139.768 118.355 140.158 118.876C140.267 119.028 140.527 119.331 140.679 119.44C140.158 119.418 138.705 118.55 138.184 118.138C138.033 118.03 137.555 117.683 137.49 117.531ZM145.647 119.44C145.82 119.31 146.037 119.028 146.167 118.876C146.536 118.399 147.252 117.379 147.404 116.793C147.816 116.88 148.597 117.444 148.814 117.531C148.727 117.769 147.577 118.55 147.404 118.659C147.1 118.832 145.994 119.418 145.647 119.44Z" fill="#FF7F00"/>
<path d="M168.011 179.267C168.119 178.703 168.488 178.355 169.052 178.355C169.594 178.355 169.963 178.681 170.028 179.267H168.011ZM170.614 179.744C170.636 179.635 170.636 179.549 170.636 179.44C170.636 178.464 169.963 177.791 169.052 177.791C168.076 177.791 167.382 178.551 167.382 179.57C167.382 180.611 168.076 181.327 169.117 181.327C169.725 181.327 170.245 181.067 170.571 180.633L170.158 180.286C169.898 180.611 169.529 180.785 169.117 180.785C168.488 180.785 168.076 180.416 168.011 179.765H170.614V179.744ZM166.471 179.071C166.471 178.247 166.08 177.791 165.343 177.791C164.801 177.791 164.367 178.052 164.171 178.486C164.02 178.052 163.651 177.791 163.152 177.791C162.653 177.791 162.241 178.03 162.067 178.421V177.878H161.438V181.219H162.067V179.245C162.067 178.703 162.436 178.355 162.978 178.355C163.456 178.355 163.651 178.616 163.651 179.201V181.219H164.28V179.245C164.28 178.703 164.649 178.355 165.191 178.355C165.668 178.355 165.863 178.616 165.863 179.201V181.219H166.471V179.071ZM157.924 179.267C158.033 178.703 158.401 178.355 158.965 178.355C159.508 178.355 159.876 178.681 159.942 179.267H157.924ZM160.527 179.744C160.549 179.635 160.549 179.549 160.549 179.44C160.549 178.464 159.876 177.791 158.965 177.791C157.989 177.791 157.295 178.551 157.295 179.57C157.295 180.611 157.989 181.327 159.03 181.327C159.638 181.327 160.158 181.067 160.484 180.633L160.072 180.286C159.811 180.611 159.443 180.785 159.03 180.785C158.401 180.785 157.989 180.416 157.924 179.765H160.527V179.744ZM156.905 177.878C156.818 177.835 156.709 177.835 156.601 177.835C156.124 177.835 155.755 178.073 155.603 178.486V177.878H154.996V181.219H155.603V179.527C155.603 178.768 155.95 178.399 156.601 178.399C156.709 178.399 156.818 178.399 156.905 178.421V177.878ZM153.456 179.549C153.456 179.896 153.347 180.178 153.152 180.395C152.957 180.611 152.696 180.72 152.371 180.72C152.046 180.72 151.785 180.611 151.59 180.395C151.395 180.178 151.286 179.896 151.286 179.549C151.286 178.854 151.72 178.355 152.371 178.355C152.696 178.355 152.957 178.464 153.152 178.681C153.347 178.919 153.456 179.201 153.456 179.549ZM154.085 179.549C154.085 178.507 153.434 177.791 152.523 177.791C151.981 177.791 151.503 178.052 151.308 178.486V177.9H150.679V182.542H151.308V180.633C151.503 181.045 151.959 181.327 152.523 181.327C153.434 181.306 154.085 180.59 154.085 179.549ZM146.709 179.982C146.709 180.785 147.295 181.327 148.163 181.327C148.597 181.327 148.965 181.219 149.226 180.958C149.486 180.72 149.616 180.394 149.616 179.982V177.9H149.009V179.939C149.009 180.481 148.705 180.763 148.163 180.763C147.62 180.763 147.317 180.481 147.317 179.939V177.9H146.688V179.982H146.709ZM143.087 180.611C143.347 181.045 143.911 181.306 144.584 181.306C145.43 181.306 145.928 180.893 145.928 180.243C145.928 179.765 145.646 179.483 144.974 179.332L144.388 179.201C143.976 179.093 143.824 178.985 143.824 178.789C143.824 178.529 144.063 178.355 144.497 178.355C144.909 178.355 145.213 178.486 145.473 178.746L145.863 178.377C145.581 178.03 145.104 177.813 144.518 177.813C143.694 177.813 143.195 178.225 143.195 178.811C143.195 179.288 143.521 179.57 144.193 179.744L144.735 179.852C145.126 179.939 145.278 180.091 145.278 180.308C145.278 180.59 145.017 180.785 144.562 180.785C144.106 180.785 143.716 180.611 143.477 180.286L143.087 180.611ZM138.206 180.611C138.466 181.045 139.03 181.306 139.703 181.306C140.549 181.306 141.048 180.893 141.048 180.243C141.048 179.765 140.766 179.483 140.093 179.332L139.508 179.201C139.095 179.093 138.944 178.985 138.944 178.789C138.944 178.529 139.182 178.355 139.616 178.355C140.006 178.355 140.332 178.486 140.592 178.746L140.983 178.377C140.701 178.03 140.223 177.813 139.638 177.813C138.813 177.813 138.315 178.225 138.315 178.811C138.315 179.288 138.64 179.57 139.312 179.744L139.855 179.852C140.245 179.939 140.397 180.091 140.397 180.308C140.397 180.59 140.137 180.785 139.681 180.785C139.226 180.785 138.835 180.611 138.596 180.286L138.206 180.611ZM136.753 181.219H137.382V177.878H136.753V181.219ZM136.644 176.815C136.644 177.054 136.818 177.227 137.056 177.227C137.295 177.227 137.469 177.054 137.469 176.815C137.469 176.577 137.295 176.403 137.056 176.403C136.818 176.403 136.644 176.577 136.644 176.815ZM133.499 179.549C133.499 179.896 133.39 180.178 133.195 180.395C133 180.611 132.74 180.72 132.414 180.72C132.089 180.72 131.829 180.611 131.633 180.395C131.438 180.178 131.33 179.896 131.33 179.549C131.33 179.201 131.438 178.919 131.633 178.703C131.829 178.486 132.111 178.377 132.414 178.377C133.087 178.377 133.499 178.854 133.499 179.549ZM133.477 177.878V178.464C133.282 178.052 132.826 177.77 132.262 177.77C131.351 177.77 130.679 178.507 130.679 179.527C130.679 180.546 131.351 181.284 132.262 181.284C132.805 181.284 133.282 181.024 133.477 180.59V181.175H134.106V177.835H133.477V177.878ZM128.531 180.329C128.531 180.958 128.878 181.262 129.573 181.262C129.79 181.262 129.985 181.24 130.18 181.175V180.655C129.985 180.698 129.811 180.72 129.659 180.72C129.291 180.72 129.139 180.59 129.139 180.264V178.399H130.158V177.857H129.139V176.88H128.51V177.857H127.859V178.399H128.51V180.329H128.531ZM126.557 179.549C126.557 179.896 126.449 180.178 126.254 180.395C126.058 180.611 125.798 180.72 125.473 180.72C125.147 180.72 124.887 180.611 124.692 180.395C124.497 180.178 124.388 179.896 124.388 179.549C124.388 179.201 124.497 178.919 124.692 178.703C124.887 178.486 125.169 178.377 125.473 178.377C126.124 178.377 126.557 178.854 126.557 179.549ZM126.536 177.878V178.464C126.34 178.052 125.885 177.77 125.343 177.77C124.432 177.77 123.759 178.507 123.759 179.527C123.759 180.546 124.432 181.284 125.343 181.284C125.885 181.284 126.362 181.024 126.536 180.59V181.175H127.143V177.835H126.536V177.878ZM122.241 179.549C122.241 179.896 122.132 180.178 121.937 180.395C121.742 180.611 121.481 180.72 121.156 180.72C120.831 180.72 120.57 180.611 120.375 180.395C120.18 180.178 120.071 179.896 120.071 179.549C120.071 179.201 120.18 178.919 120.375 178.703C120.57 178.486 120.852 178.377 121.156 178.377C121.829 178.377 122.241 178.854 122.241 179.549ZM122.219 176.403V178.486C122.024 178.073 121.547 177.791 121.004 177.791C120.093 177.791 119.421 178.529 119.421 179.549C119.421 180.568 120.093 181.306 121.004 181.306C121.547 181.306 122.024 181.045 122.219 180.611V181.197H122.826V176.381H122.219V176.403ZM117.989 180.85C117.989 181.11 118.163 181.284 118.423 181.284C118.683 181.284 118.857 181.11 118.857 180.85C118.857 180.59 118.683 180.438 118.423 180.438C118.163 180.416 117.989 180.59 117.989 180.85ZM116.319 180.85C116.319 181.11 116.492 181.284 116.753 181.284C117.013 181.284 117.186 181.11 117.186 180.85C117.186 180.59 117.013 180.438 116.753 180.438C116.492 180.416 116.319 180.59 116.319 180.85ZM114.648 180.85C114.648 181.11 114.822 181.284 115.082 181.284C115.343 181.284 115.516 181.11 115.516 180.85C115.516 180.59 115.343 180.438 115.082 180.438C114.8 180.416 114.648 180.59 114.648 180.85Z" fill="#F5F5F7"/>
<rect x="74" y="198.542" width="128" height="37" rx="16" fill="white"/>
<path d="M90.5086 216.642C90.5086 215.681 90.7232 214.822 91.1526 214.066C91.5912 213.301 92.1839 212.708 92.9306 212.288C93.6866 211.859 94.5312 211.644 95.4646 211.644C96.5566 211.644 97.5132 211.924 98.3346 212.484C99.1559 213.044 99.7299 213.819 100.057 214.808H97.8026C97.5786 214.341 97.2612 213.991 96.8506 213.758C96.4492 213.525 95.9826 213.408 95.4506 213.408C94.8812 213.408 94.3726 213.543 93.9246 213.814C93.4859 214.075 93.1406 214.449 92.8886 214.934C92.6459 215.419 92.5246 215.989 92.5246 216.642C92.5246 217.286 92.6459 217.855 92.8886 218.35C93.1406 218.835 93.4859 219.213 93.9246 219.484C94.3726 219.745 94.8812 219.876 95.4506 219.876C95.9826 219.876 96.4492 219.759 96.8506 219.526C97.2612 219.283 97.5786 218.929 97.8026 218.462H100.057C99.7299 219.461 99.1559 220.24 98.3346 220.8C97.5226 221.351 96.5659 221.626 95.4646 221.626C94.5312 221.626 93.6866 221.416 92.9306 220.996C92.1839 220.567 91.5912 219.974 91.1526 219.218C90.7232 218.462 90.5086 217.603 90.5086 216.642ZM105.175 221.668C104.428 221.668 103.756 221.505 103.159 221.178C102.561 220.842 102.09 220.371 101.745 219.764C101.409 219.157 101.241 218.457 101.241 217.664C101.241 216.871 101.413 216.171 101.759 215.564C102.113 214.957 102.594 214.491 103.201 214.164C103.807 213.828 104.484 213.66 105.231 213.66C105.977 213.66 106.654 213.828 107.261 214.164C107.867 214.491 108.343 214.957 108.689 215.564C109.043 216.171 109.221 216.871 109.221 217.664C109.221 218.457 109.039 219.157 108.675 219.764C108.32 220.371 107.835 220.842 107.219 221.178C106.612 221.505 105.931 221.668 105.175 221.668ZM105.175 219.96C105.529 219.96 105.861 219.876 106.169 219.708C106.486 219.531 106.738 219.269 106.925 218.924C107.111 218.579 107.205 218.159 107.205 217.664C107.205 216.927 107.009 216.362 106.617 215.97C106.234 215.569 105.763 215.368 105.203 215.368C104.643 215.368 104.171 215.569 103.789 215.97C103.415 216.362 103.229 216.927 103.229 217.664C103.229 218.401 103.411 218.971 103.775 219.372C104.148 219.764 104.615 219.96 105.175 219.96ZM120.29 213.674C121.242 213.674 122.008 213.968 122.586 214.556C123.174 215.135 123.468 215.947 123.468 216.992V221.542H121.508V217.258C121.508 216.651 121.354 216.189 121.046 215.872C120.738 215.545 120.318 215.382 119.786 215.382C119.254 215.382 118.83 215.545 118.512 215.872C118.204 216.189 118.05 216.651 118.05 217.258V221.542H116.09V217.258C116.09 216.651 115.936 216.189 115.628 215.872C115.32 215.545 114.9 215.382 114.368 215.382C113.827 215.382 113.398 215.545 113.08 215.872C112.772 216.189 112.618 216.651 112.618 217.258V221.542H110.658V213.786H112.618V214.724C112.87 214.397 113.192 214.141 113.584 213.954C113.986 213.767 114.424 213.674 114.9 213.674C115.507 213.674 116.048 213.805 116.524 214.066C117 214.318 117.369 214.682 117.63 215.158C117.882 214.71 118.246 214.351 118.722 214.08C119.208 213.809 119.73 213.674 120.29 213.674ZM126.322 212.862C125.977 212.862 125.688 212.755 125.454 212.54C125.23 212.316 125.118 212.041 125.118 211.714C125.118 211.387 125.23 211.117 125.454 210.902C125.688 210.678 125.977 210.566 126.322 210.566C126.668 210.566 126.952 210.678 127.176 210.902C127.41 211.117 127.526 211.387 127.526 211.714C127.526 212.041 127.41 212.316 127.176 212.54C126.952 212.755 126.668 212.862 126.322 212.862ZM127.288 213.786V221.542H125.328V213.786H127.288ZM133.523 213.674C134.447 213.674 135.193 213.968 135.763 214.556C136.332 215.135 136.617 215.947 136.617 216.992V221.542H134.657V217.258C134.657 216.642 134.503 216.171 134.195 215.844C133.887 215.508 133.467 215.34 132.935 215.34C132.393 215.34 131.964 215.508 131.647 215.844C131.339 216.171 131.185 216.642 131.185 217.258V221.542H129.225V213.786H131.185V214.752C131.446 214.416 131.777 214.155 132.179 213.968C132.589 213.772 133.037 213.674 133.523 213.674ZM141.519 213.66C142.097 213.66 142.606 213.777 143.045 214.01C143.483 214.234 143.829 214.528 144.081 214.892V213.786H146.055V221.598C146.055 222.317 145.91 222.956 145.621 223.516C145.331 224.085 144.897 224.533 144.319 224.86C143.74 225.196 143.04 225.364 142.219 225.364C141.117 225.364 140.212 225.107 139.503 224.594C138.803 224.081 138.406 223.381 138.313 222.494H140.259C140.361 222.849 140.581 223.129 140.917 223.334C141.262 223.549 141.677 223.656 142.163 223.656C142.732 223.656 143.194 223.483 143.549 223.138C143.903 222.802 144.081 222.289 144.081 221.598V220.394C143.829 220.758 143.479 221.061 143.031 221.304C142.592 221.547 142.088 221.668 141.519 221.668C140.865 221.668 140.268 221.5 139.727 221.164C139.185 220.828 138.756 220.357 138.439 219.75C138.131 219.134 137.977 218.429 137.977 217.636C137.977 216.852 138.131 216.157 138.439 215.55C138.756 214.943 139.181 214.477 139.713 214.15C140.254 213.823 140.856 213.66 141.519 213.66ZM144.081 217.664C144.081 217.188 143.987 216.782 143.801 216.446C143.614 216.101 143.362 215.839 143.045 215.662C142.727 215.475 142.387 215.382 142.023 215.382C141.659 215.382 141.323 215.471 141.015 215.648C140.707 215.825 140.455 216.087 140.259 216.432C140.072 216.768 139.979 217.169 139.979 217.636C139.979 218.103 140.072 218.513 140.259 218.868C140.455 219.213 140.707 219.479 141.015 219.666C141.332 219.853 141.668 219.946 142.023 219.946C142.387 219.946 142.727 219.857 143.045 219.68C143.362 219.493 143.614 219.232 143.801 218.896C143.987 218.551 144.081 218.14 144.081 217.664ZM154.679 221.64C153.998 221.64 153.382 221.523 152.831 221.29C152.29 221.057 151.86 220.721 151.543 220.282C151.226 219.843 151.062 219.325 151.053 218.728H153.153C153.181 219.129 153.321 219.447 153.573 219.68C153.834 219.913 154.189 220.03 154.637 220.03C155.094 220.03 155.454 219.923 155.715 219.708C155.976 219.484 156.107 219.195 156.107 218.84C156.107 218.551 156.018 218.313 155.841 218.126C155.664 217.939 155.44 217.795 155.169 217.692C154.908 217.58 154.544 217.459 154.077 217.328C153.442 217.141 152.924 216.959 152.523 216.782C152.131 216.595 151.79 216.32 151.501 215.956C151.221 215.583 151.081 215.088 151.081 214.472C151.081 213.893 151.226 213.389 151.515 212.96C151.804 212.531 152.21 212.204 152.733 211.98C153.256 211.747 153.853 211.63 154.525 211.63C155.533 211.63 156.35 211.877 156.975 212.372C157.61 212.857 157.96 213.539 158.025 214.416H155.869C155.85 214.08 155.706 213.805 155.435 213.59C155.174 213.366 154.824 213.254 154.385 213.254C154.002 213.254 153.694 213.352 153.461 213.548C153.237 213.744 153.125 214.029 153.125 214.402C153.125 214.663 153.209 214.883 153.377 215.06C153.554 215.228 153.769 215.368 154.021 215.48C154.282 215.583 154.646 215.704 155.113 215.844C155.748 216.031 156.266 216.217 156.667 216.404C157.068 216.591 157.414 216.871 157.703 217.244C157.992 217.617 158.137 218.107 158.137 218.714C158.137 219.237 158.002 219.722 157.731 220.17C157.46 220.618 157.064 220.977 156.541 221.248C156.018 221.509 155.398 221.64 154.679 221.64ZM163.28 221.668C162.533 221.668 161.861 221.505 161.264 221.178C160.667 220.842 160.195 220.371 159.85 219.764C159.514 219.157 159.346 218.457 159.346 217.664C159.346 216.871 159.519 216.171 159.864 215.564C160.219 214.957 160.699 214.491 161.306 214.164C161.913 213.828 162.589 213.66 163.336 213.66C164.083 213.66 164.759 213.828 165.366 214.164C165.973 214.491 166.449 214.957 166.794 215.564C167.149 216.171 167.326 216.871 167.326 217.664C167.326 218.457 167.144 219.157 166.78 219.764C166.425 220.371 165.94 220.842 165.324 221.178C164.717 221.505 164.036 221.668 163.28 221.668ZM163.28 219.96C163.635 219.96 163.966 219.876 164.274 219.708C164.591 219.531 164.843 219.269 165.03 218.924C165.217 218.579 165.31 218.159 165.31 217.664C165.31 216.927 165.114 216.362 164.722 215.97C164.339 215.569 163.868 215.368 163.308 215.368C162.748 215.368 162.277 215.569 161.894 215.97C161.521 216.362 161.334 216.927 161.334 217.664C161.334 218.401 161.516 218.971 161.88 219.372C162.253 219.764 162.72 219.96 163.28 219.96ZM172.208 221.668C171.461 221.668 170.789 221.505 170.192 221.178C169.595 220.842 169.123 220.371 168.778 219.764C168.442 219.157 168.274 218.457 168.274 217.664C168.274 216.871 168.447 216.171 168.792 215.564C169.147 214.957 169.627 214.491 170.234 214.164C170.841 213.828 171.517 213.66 172.264 213.66C173.011 213.66 173.687 213.828 174.294 214.164C174.901 214.491 175.377 214.957 175.722 215.564C176.077 216.171 176.254 216.871 176.254 217.664C176.254 218.457 176.072 219.157 175.708 219.764C175.353 220.371 174.868 220.842 174.252 221.178C173.645 221.505 172.964 221.668 172.208 221.668ZM172.208 219.96C172.563 219.96 172.894 219.876 173.202 219.708C173.519 219.531 173.771 219.269 173.958 218.924C174.145 218.579 174.238 218.159 174.238 217.664C174.238 216.927 174.042 216.362 173.65 215.97C173.267 215.569 172.796 215.368 172.236 215.368C171.676 215.368 171.205 215.569 170.822 215.97C170.449 216.362 170.262 216.927 170.262 217.664C170.262 218.401 170.444 218.971 170.808 219.372C171.181 219.764 171.648 219.96 172.208 219.96ZM181.99 213.674C182.914 213.674 183.66 213.968 184.23 214.556C184.799 215.135 185.084 215.947 185.084 216.992V221.542H183.124V217.258C183.124 216.642 182.97 216.171 182.662 215.844C182.354 215.508 181.934 215.34 181.402 215.34C180.86 215.34 180.431 215.508 180.114 215.844C179.806 216.171 179.652 216.642 179.652 217.258V221.542H177.692V213.786H179.652V214.752C179.913 214.416 180.244 214.155 180.646 213.968C181.056 213.772 181.504 213.674 181.99 213.674Z" fill="#FF7F00"/>
</g>
</g>
<defs>
<filter id="filter0_d_1152_6729" x="0" y="0" width="286" height="344" filterUnits="userSpaceOnUse" color-interpolation-filters="sRGB">
<feFlood flood-opacity="0" result="BackgroundImageFix"/>
<feColorMatrix in="SourceAlpha" type="matrix" values="0 0 0 0 0 0 0 0 0 0 0 0 0 0 0 0 0 0 127 0" result="hardAlpha"/>
<feOffset dy="10"/>
<feGaussianBlur stdDeviation="7.5"/>
<feComposite in2="hardAlpha" operator="out"/>
<feColorMatrix type="matrix" values="0 0 0 0 0 0 0 0 0 0 0 0 0 0 0 0 0 0 0.2 0"/>
<feBlend mode="normal" in2="BackgroundImageFix" result="effect1_dropShadow_1152_6729"/>
<feBlend mode="normal" in="SourceGraphic" in2="effect1_dropShadow_1152_6729" result="shape"/>
</filter>
<filter id="filter1_d_1152_6729" x="-3.80203" y="200.558" width="195.898" height="195.898" filterUnits="userSpaceOnUse" color-interpolation-filters="sRGB">
<feFlood flood-opacity="0" result="BackgroundImageFix"/>
<feColorMatrix in="SourceAlpha" type="matrix" values="0 0 0 0 0 0 0 0 0 0 0 0 0 0 0 0 0 0 127 0" result="hardAlpha"/>
<feOffset dy="1.36041"/>
<feGaussianBlur stdDeviation="3.40102"/>
<feComposite in2="hardAlpha" operator="out"/>
<feColorMatrix type="matrix" values="0 0 0 0 0 0 0 0 0 0 0 0 0 0 0 0 0 0 0.15 0"/>
<feBlend mode="normal" in2="BackgroundImageFix" result="effect1_dropShadow_1152_6729"/>
<feBlend mode="normal" in="SourceGraphic" in2="effect1_dropShadow_1152_6729" result="shape"/>
</filter>
<filter id="filter2_d_1152_6729" x="129.517" y="248.173" width="148.285" height="148.284" filterUnits="userSpaceOnUse" color-interpolation-filters="sRGB">
<feFlood flood-opacity="0" result="BackgroundImageFix"/>
<feColorMatrix in="SourceAlpha" type="matrix" values="0 0 0 0 0 0 0 0 0 0 0 0 0 0 0 0 0 0 127 0" result="hardAlpha"/>
<feOffset dy="1.36041"/>
<feGaussianBlur stdDeviation="3.40102"/>
<feComposite in2="hardAlpha" operator="out"/>
<feColorMatrix type="matrix" values="0 0 0 0 0 0 0 0 0 0 0 0 0 0 0 0 0 0 0.15 0"/>
<feBlend mode="normal" in2="BackgroundImageFix" result="effect1_dropShadow_1152_6729"/>
<feBlend mode="normal" in="SourceGraphic" in2="effect1_dropShadow_1152_6729" result="shape"/>
</filter>
<radialGradient id="paint0_radial_1152_6729" cx="0" cy="0" r="1" gradientUnits="userSpaceOnUse" gradientTransform="translate(68 258) rotate(71.2742) scale(124.595)">
<stop stop-color="#FF7F00"/>
<stop offset="1" stop-color="#FFD9B4"/>
</radialGradient>
<radialGradient id="paint1_radial_1152_6729" cx="0" cy="0" r="1" gradientUnits="userSpaceOnUse" gradientTransform="translate(182.553 293.817) rotate(77.4067) scale(96.8061)">
<stop stop-color="#FF7F00"/>
<stop offset="1" stop-color="#FFD9B4"/>
</radialGradient>
<clipPath id="clip0_1152_6729">
<rect x="15" y="5" width="256" height="314" rx="16" fill="white"/>
</clipPath>
</defs>
</svg>
