<svg width="234" height="65" viewBox="0 0 234 65" fill="none" xmlns="http://www.w3.org/2000/svg">
<path d="M173.783 11.3202C176.417 14.2365 177.734 18.3444 177.734 23.5498C177.734 24.4905 177.703 25.2117 177.672 25.7135H155.062C155.564 27.689 156.536 29.2569 157.979 30.3544C159.421 31.4833 161.177 32.0164 163.184 32.0164C164.658 32.0164 166.1 31.7342 167.449 31.1697C168.829 30.6053 170.052 29.7586 171.149 28.6925L175.884 33.4902C174.285 35.2776 172.341 36.6574 170.052 37.6295C167.762 38.6016 165.222 39.0719 162.4 39.0719C159.076 39.0719 156.191 38.4134 153.714 37.065C151.237 35.748 149.324 33.8665 147.976 31.452C146.659 29.0688 146 26.2779 146 23.1108C146 19.9122 146.69 17.09 148.038 14.6441C149.418 12.1982 151.331 10.3167 153.777 8.96833C156.223 7.61994 159.045 6.96143 162.212 6.96143C167.292 6.93007 171.149 8.40389 173.783 11.3202ZM169.236 20.414C169.174 18.3444 168.484 16.6824 167.229 15.4281C165.975 14.1738 164.313 13.5466 162.243 13.5466C160.299 13.5466 158.669 14.1737 157.352 15.3967C156.035 16.6197 155.219 18.2816 154.874 20.414H169.236Z" fill="white"/>
<path d="M196.171 14.6128C193.913 14.6128 192.063 15.3967 190.62 16.9332C189.178 18.4698 188.488 20.5081 188.488 23.048C188.488 25.588 189.178 27.6577 190.589 29.2255C192 30.7934 193.788 31.6088 195.983 31.6088C199.275 31.6088 201.69 30.3858 203.289 27.9085L209.498 32.1418C208.181 34.3682 206.299 36.0929 203.916 37.2845C201.502 38.5075 198.711 39.1033 195.512 39.1033C192.345 39.1033 189.554 38.4448 187.14 37.0964C184.725 35.7794 182.844 33.8979 181.495 31.4833C180.147 29.0688 179.488 26.2779 179.488 23.1108C179.488 19.9122 180.147 17.09 181.495 14.6441C182.844 12.1982 184.725 10.3167 187.171 8.96833C189.617 7.61994 192.439 6.96143 195.638 6.96143C198.648 6.96143 201.313 7.52587 203.665 8.68611C206.017 9.84635 207.899 11.477 209.278 13.578L203.195 17.9681C201.407 15.7416 199.087 14.6128 196.171 14.6128Z" fill="white"/>
<path d="M233.206 37.0023C232.046 37.6922 230.729 38.2567 229.318 38.6016C227.875 38.9779 226.464 39.1661 225.022 39.1661C222.106 39.1661 219.722 38.3194 217.872 36.6574C216.022 34.9641 215.113 32.5809 215.113 29.4451V14.8637H210.723V8.65479H215.113V0H224.081V8.65479H232.642V14.9264H224.081V27.9399C224.081 30.3545 225.022 31.5774 226.966 31.5774C228.283 31.5774 229.757 31.2011 231.356 30.4172L233.206 37.0023Z" fill="white"/>
<path d="M95.1713 5.70703H90.1854C83.0044 5.70703 77.1719 11.2887 77.1719 18.1875V37.4099H85.4504V20.3825C85.4504 15.6789 87.7708 11.8845 92.6627 11.8845C95.1086 11.8845 96.7706 12.8253 98.3698 14.3618C99.9691 15.8984 100.408 18.0307 100.408 20.3825V37.4099H108.122V18.1875C108.185 11.2887 102.352 5.70703 95.1713 5.70703Z" fill="white"/>
<path d="M129.414 5.70703H124.428C117.247 5.70703 111.414 11.2887 111.414 18.1875V37.4099H119.693V20.3825C119.693 15.6789 122.013 11.8845 126.905 11.8845C129.351 11.8845 131.013 12.8253 132.612 14.3618C134.211 15.8984 134.65 18.0307 134.65 20.3825V37.4099H142.364V18.1875C142.396 11.2887 136.594 5.70703 129.414 5.70703Z" fill="white"/>
<path d="M27.6891 10.3797C25.8076 9.40761 23.8948 8.93725 21.9819 8.93725C19.6928 8.93725 17.5604 9.50168 15.6476 10.6306C13.7348 11.7595 12.2296 13.296 11.1321 15.2715C10.0345 17.2471 9.50146 19.3794 9.50146 21.7626C9.50146 24.1458 10.0345 26.3095 11.1321 28.2851C12.2296 30.2606 13.7348 31.8285 15.6476 32.9574C17.5604 34.1177 19.6614 34.6821 21.9819 34.6821C23.832 34.6821 25.6822 34.2431 27.5636 33.3651C29.4451 32.487 31.1384 31.2954 32.6436 29.8216L38.0999 35.7483C35.9048 38.006 33.3335 39.8248 30.3858 41.1418C27.4382 42.4589 24.4905 43.1174 21.5115 43.1174C17.4977 43.1174 13.8289 42.208 10.5676 40.3265C7.27505 38.4764 4.70369 35.9364 2.82222 32.6752C0.940743 29.4453 0 25.8078 0 21.8253C0 17.8742 0.940744 14.2994 2.88494 11.1009C4.79777 7.90243 7.43183 5.3938 10.7558 3.54368C14.0797 1.69356 17.78 0.78418 21.8565 0.78418C24.8355 0.78418 27.7518 1.41134 30.6367 2.6343C33.5216 3.85726 35.9989 5.51923 38.0058 7.65157L32.6123 14.2681C31.2325 12.6688 29.5705 11.3518 27.6891 10.3797Z" fill="white"/>
<path d="M63.2788 23.3621C63.2788 27.564 59.8922 30.9507 55.6902 30.9507C51.4882 30.9507 48.1016 27.564 48.1016 23.3621C48.1016 19.1601 51.4882 15.7734 55.6902 15.7734C59.8922 15.7734 63.2788 19.1601 63.2788 23.3621Z" fill="#F47E20"/>
<path d="M55.6928 5.89551C46.0659 5.89551 38.2578 13.7036 38.2578 23.3619C38.2578 32.9888 46.0659 40.7969 55.6928 40.7969C65.3197 40.7969 73.1278 32.9888 73.1278 23.3619C73.1278 13.7036 65.3197 5.89551 55.6928 5.89551ZM55.6928 36.4381C48.4805 36.4381 42.6166 30.5742 42.6166 23.3619C42.6166 16.1495 48.4805 10.2856 55.6928 10.2856C62.9052 10.2856 68.7691 16.1495 68.7691 23.3619C68.7691 30.5742 62.9052 36.4381 55.6928 36.4381Z" fill="#F47E20"/>
<path d="M7.93031 53.9356C7.17772 53.6847 6.51919 53.5593 5.98611 53.5593C5.48438 53.5593 5.07673 53.6534 4.76315 53.8415C4.44957 54.0297 4.32414 54.3119 4.32414 54.6568C4.32414 55.1272 4.54364 55.4721 4.98266 55.723C5.42167 55.9738 6.08019 56.2247 6.95821 56.4756C7.86759 56.7264 8.58882 57.0087 9.18462 57.2595C9.74906 57.5104 10.2508 57.918 10.6584 58.4511C11.0661 58.9842 11.2856 59.6741 11.2856 60.5207C11.2856 61.3674 11.0661 62.0886 10.6271 62.6844C10.1881 63.2802 9.59228 63.7506 8.80833 64.0642C8.02438 64.3778 7.14636 64.5346 6.17426 64.5346C5.10809 64.5346 4.07328 64.3464 3.03847 63.9701C2.00365 63.5938 1.12564 63.0921 0.373047 62.4336L1.56464 60.019C2.22316 60.6148 2.97575 61.0852 3.85377 61.4615C4.70043 61.8378 5.48438 61.9946 6.20561 61.9946C6.80141 61.9946 7.30315 61.8691 7.64809 61.6496C7.99302 61.4301 8.14981 61.1165 8.14981 60.6775C8.14981 60.3326 8.02438 60.0504 7.80487 59.8309C7.58537 59.6114 7.27179 59.4232 6.92686 59.2978C6.58192 59.1723 6.08019 59.0156 5.45303 58.8274C4.54365 58.5766 3.82241 58.3257 3.25797 58.0748C2.69353 57.824 2.1918 57.4477 1.78414 56.9459C1.37649 56.4442 1.157 55.7543 1.157 54.9077C1.157 54.1237 1.37649 53.4339 1.78414 52.8381C2.1918 52.2423 2.78761 51.8032 3.57156 51.4897C4.32415 51.1761 5.20217 51.0193 6.23698 51.0193C7.14636 51.0193 8.02438 51.1447 8.9024 51.3956C9.78042 51.6464 10.533 51.9914 11.2229 52.4304L10.094 54.8763C9.40413 54.5314 8.6829 54.1864 7.93031 53.9356Z" fill="white"/>
<path d="M22.4796 61.1794C23.0127 61.7125 23.7026 61.9947 24.612 61.9947C25.4587 61.9947 26.1485 61.7125 26.6816 61.1794C27.1833 60.6463 27.4342 59.8937 27.4342 58.9529V51.2703H30.3819V58.9529C30.3819 60.1132 30.1623 61.0853 29.692 61.932C29.2216 62.7786 28.5631 63.4058 27.6851 63.8761C26.807 64.3465 25.7722 64.566 24.612 64.566C23.4204 64.566 22.3856 64.3465 21.5075 63.8761C20.6295 63.4371 19.9397 62.7786 19.4693 61.932C18.9989 61.0853 18.748 60.0818 18.748 58.9529V51.2703H21.6957V58.9529C21.6957 59.8937 21.9466 60.6463 22.4796 61.1794Z" fill="white"/>
<path d="M46.6897 64.3778L44.6201 60.6462H44.3379H41.6098V64.3778H38.6621V51.3015H44.3379C46.0312 51.3015 47.3796 51.7092 48.289 52.4931C49.2297 53.2771 49.7001 54.406 49.7001 55.8484C49.7001 56.8519 49.4806 57.7299 49.0729 58.4511C48.6653 59.1723 48.0381 59.7054 47.2542 60.0817L50.045 64.4091H46.6897V64.3778ZM41.6098 58.1689H44.3379C45.1532 58.1689 45.7804 57.9807 46.2194 57.6045C46.6584 57.2282 46.8779 56.6637 46.8779 55.9425C46.8779 55.2213 46.6584 54.6882 46.2194 54.3119C45.7804 53.9356 45.1532 53.7474 44.3379 53.7474H41.6098V58.1689Z" fill="white"/>
<path d="M57.7871 51.2703H67.1945L67.1631 53.7162H60.7348V56.946H66.63V59.4233H60.7348V64.3779H57.7871V51.2703Z" fill="white"/>
<path d="M94.1615 64.3778L93.1266 61.8378H87.0746L86.0397 64.3778H82.998L88.6738 51.3015H91.7155L97.2973 64.3778H94.1615ZM88.0467 59.4546H92.1859L90.1163 54.3746L88.0467 59.4546Z" fill="white"/>
<path d="M113.322 51.2703H116.113V64.3465H113.416L107.082 55.9426V64.3465H104.26V51.2703H106.957L113.322 59.7055V51.2703Z" fill="white"/>
<path d="M133.736 52.1167C134.771 52.6812 135.586 53.4338 136.182 54.4372C136.747 55.4407 137.06 56.5696 137.06 57.8239C137.06 59.0782 136.778 60.2384 136.182 61.2105C135.586 62.214 134.771 62.9666 133.705 63.531C132.639 64.0955 131.447 64.3777 130.067 64.3777H124.643V51.3014H130.193C131.51 51.2701 132.702 51.5523 133.736 52.1167ZM132.2 61.3673C132.796 61.0224 133.235 60.552 133.548 59.9249C133.862 59.3291 134.05 58.6078 134.05 57.8239C134.05 57.0399 133.893 56.3187 133.548 55.7229C133.203 55.1271 132.733 54.6254 132.137 54.2804C131.541 53.9355 130.883 53.7787 130.13 53.7787H127.59V61.9004H130.256C130.977 61.8691 131.635 61.7123 132.2 61.3673Z" fill="white"/>
<path d="M161.083 53.9356C160.33 53.6847 159.672 53.5593 159.138 53.5593C158.637 53.5593 158.229 53.6534 157.916 53.8415C157.602 54.0297 157.476 54.3119 157.476 54.6568C157.476 55.1272 157.696 55.4721 158.135 55.723C158.574 55.9738 159.233 56.2247 160.111 56.4756C161.02 56.7264 161.741 57.0087 162.337 57.2595C162.901 57.5104 163.403 57.918 163.811 58.4511C164.218 58.9842 164.438 59.6741 164.438 60.5207C164.438 61.3674 164.218 62.0886 163.779 62.6844C163.34 63.2802 162.745 63.7506 161.961 64.0642C161.177 64.3778 160.299 64.5346 159.327 64.5346C158.26 64.5346 157.226 64.3464 156.191 63.9701C155.156 63.5938 154.278 63.0921 153.525 62.4336L154.717 60.019C155.376 60.6148 156.128 61.0852 157.006 61.4615C157.853 61.8378 158.637 61.9946 159.358 61.9946C159.954 61.9946 160.455 61.8691 160.8 61.6496C161.145 61.4301 161.302 61.1165 161.302 60.6775C161.302 60.3326 161.177 60.0504 160.957 59.8309C160.738 59.6114 160.424 59.4232 160.079 59.2978C159.734 59.1723 159.233 59.0156 158.605 58.8274C157.696 58.5766 156.975 58.3257 156.41 58.0748C155.846 57.824 155.344 57.4477 154.936 56.9459C154.529 56.4442 154.309 55.7543 154.309 54.9077C154.309 54.1237 154.529 53.4339 154.936 52.8381C155.344 52.2423 155.94 51.8032 156.724 51.4897C157.476 51.1761 158.354 51.0193 159.389 51.0193C160.299 51.0193 161.177 51.1447 162.055 51.3956C162.933 51.6464 163.685 51.9914 164.375 52.4304L163.246 54.8763C162.525 54.5314 161.835 54.1864 161.083 53.9356Z" fill="white"/>
<path d="M172.119 51.2703H175.412L179.488 59.2979L183.534 51.2703H186.764V64.3465H184.098V55.5349L180.366 63.0608H178.454L174.722 55.5349V64.3779H172.057V51.2703H172.119Z" fill="white"/>
<path d="M195.295 51.2703H198.243V64.3465H195.295V51.2703Z" fill="white"/>
<path d="M206.736 51.2703H209.684V61.7752H215.297V64.3465H206.736V51.2703Z" fill="white"/>
<path d="M222.666 51.2703H232.638V53.7162H225.614V56.5697H231.917V59.0157H225.614V61.9006H232.826V64.3465H222.666V51.2703Z" fill="white"/>
</svg>
