<svg width="146" height="110" viewBox="0 0 146 110" fill="none" xmlns="http://www.w3.org/2000/svg">
<mask id="mask0_1446_15127" style="mask-type:alpha" maskUnits="userSpaceOnUse" x="39" y="14" width="67" height="67">
<circle cx="72.8522" cy="47.6584" r="32.9831" fill="#D9D9D9"/>
</mask>
<g mask="url(#mask0_1446_15127)">
<path d="M662.375 34.9684C690.133 32.7165 701.864 48.359 712.599 69.6373C722.695 89.6502 712.599 127.035 712.599 127.035H101.813C101.813 127.035 93.7402 76.5236 101.813 62.4625C109.885 48.4014 117.252 39.1326 132.922 34.9684C156.107 28.8069 164.227 66.6156 187.855 62.4625C205.61 59.3417 207.376 39.0548 224.934 34.9684C251.207 28.8534 261.355 63.7043 288.302 62.4625C312.687 61.3388 320.041 35.7422 344.44 34.9684C370.542 34.1405 379.304 63.5051 405.398 62.4625C429.388 61.504 436.413 36.2709 460.387 34.9684C487.323 33.5049 497.693 69.4266 523.755 62.4625C540.449 58.0015 541.481 38.3661 558.423 34.9684C581.552 30.3301 588.786 65.2733 612.207 62.4625C635.221 59.7005 639.272 36.8427 662.375 34.9684Z" fill="url(#paint0_linear_1446_15127)"/>
<path d="M662.375 34.9684C690.133 32.7165 701.864 48.359 712.599 69.6373C722.695 89.6502 712.599 127.035 712.599 127.035H101.813C101.813 127.035 93.7402 76.5236 101.813 62.4625C109.885 48.4014 117.252 39.1326 132.922 34.9684C156.107 28.8069 164.227 66.6156 187.855 62.4625C205.61 59.3417 207.376 39.0548 224.934 34.9684C251.207 28.8534 261.355 63.7043 288.302 62.4625C312.687 61.3388 320.041 35.7422 344.44 34.9684C370.542 34.1405 379.304 63.5051 405.398 62.4625C429.388 61.504 436.413 36.2709 460.387 34.9684C487.323 33.5049 497.693 69.4266 523.755 62.4625C540.449 58.0015 541.481 38.3661 558.423 34.9684C581.552 30.3301 588.786 65.2733 612.207 62.4625C635.221 59.7005 639.272 36.8427 662.375 34.9684Z" fill="black" fill-opacity="0.2"/>
<path d="M-408.866 48.379C-436.623 46.1271 -448.355 61.7697 -459.089 83.0479C-469.185 103.061 -459.089 140.446 -459.089 140.446H151.697C151.697 140.446 159.77 89.9343 151.697 75.8732C143.625 61.812 136.258 52.5433 120.588 48.379C97.4031 42.2176 89.2823 80.0263 65.6547 75.8732C47.9002 72.7524 46.1333 52.4654 28.576 48.379C2.30252 42.264 -7.84494 77.115 -34.792 75.8732C-59.1776 74.7494 -66.5312 49.1529 -90.9305 48.379C-117.032 47.5512 -125.794 76.9158 -151.889 75.8732C-175.878 74.9146 -182.903 49.6816 -206.877 48.379C-233.813 46.9155 -244.184 82.8373 -270.245 75.8732C-286.939 71.4122 -287.971 51.7767 -304.914 48.379C-328.042 43.7407 -335.276 78.684 -358.697 75.8732C-381.711 73.1112 -385.762 50.2533 -408.866 48.379Z" fill="url(#paint1_linear_1446_15127)"/>
</g>
<defs>
<linearGradient id="paint0_linear_1446_15127" x1="407.206" y1="34.2478" x2="407.206" y2="127.035" gradientUnits="userSpaceOnUse">
<stop stop-color="#FFE7B0"/>
<stop offset="1" stop-color="#FFB711"/>
</linearGradient>
<linearGradient id="paint1_linear_1446_15127" x1="-153.696" y1="47.6584" x2="-153.696" y2="140.446" gradientUnits="userSpaceOnUse">
<stop stop-color="#FFE7B0"/>
<stop offset="1" stop-color="#FFB711"/>
</linearGradient>
</defs>
</svg>
