<svg width="117" height="34" viewBox="0 0 117 34" fill="none" xmlns="http://www.w3.org/2000/svg">
<path d="M86.8915 6.5186C88.2086 7.97674 88.8671 10.0307 88.8671 12.6334C88.8671 13.1038 88.8514 13.4644 88.8357 13.7152H77.5312C77.7821 14.703 78.2681 15.4869 78.9893 16.0357C79.7106 16.6001 80.5886 16.8667 81.5921 16.8667C82.329 16.8667 83.0502 16.7256 83.7244 16.4434C84.4142 16.1611 85.0257 15.7378 85.5745 15.2047L87.942 17.6036C87.1424 18.4973 86.1703 19.1872 85.0257 19.6732C83.8812 20.1593 82.6112 20.3944 81.2001 20.3944C79.5381 20.3944 78.0956 20.0652 76.857 19.391C75.6184 18.7325 74.662 17.7917 73.9878 16.5845C73.3293 15.3929 73 13.9974 73 12.4139C73 10.8146 73.3449 9.40353 74.0191 8.18057C74.709 6.95762 75.6654 6.01688 76.8884 5.34268C78.1113 4.66849 79.5224 4.33923 81.106 4.33923C83.646 4.32356 85.5745 5.06046 86.8915 6.5186ZM84.6181 11.0655C84.5867 10.0307 84.2418 9.1997 83.6146 8.57254C82.9875 7.94539 82.1565 7.63181 81.1217 7.63181C80.1496 7.63181 79.3343 7.94538 78.6758 8.55686C78.0173 9.16834 77.6096 9.99933 77.4371 11.0655H84.6181Z" fill="#231F20"/>
<path d="M98.0853 8.16495C96.9564 8.16495 96.0314 8.55692 95.3102 9.32519C94.5889 10.0935 94.244 11.1126 94.244 12.3826C94.244 13.6526 94.5889 14.6874 95.2945 15.4713C96 16.2553 96.8937 16.6629 97.9913 16.6629C99.6375 16.6629 100.845 16.0514 101.644 14.8128L104.749 16.9295C104.09 18.0427 103.15 18.905 101.958 19.5008C100.751 20.1123 99.3553 20.4102 97.7561 20.4102C96.1725 20.4102 94.7771 20.0809 93.5698 19.4067C92.3625 18.7482 91.4218 17.8075 90.7476 16.6002C90.0734 15.3929 89.7441 13.9975 89.7441 12.4139C89.7441 10.8147 90.0734 9.40359 90.7476 8.18063C91.4218 6.95768 92.3625 6.01694 93.5855 5.34274C94.8084 4.66855 96.2195 4.33929 97.8188 4.33929C99.324 4.33929 100.657 4.62151 101.833 5.20163C103.009 5.78175 103.949 6.59706 104.639 7.64755L101.597 9.84259C100.704 8.72939 99.5435 8.16495 98.0853 8.16495Z" fill="#231F20"/>
<path d="M116.603 19.3596C116.023 19.7046 115.364 19.9868 114.659 20.1593C113.938 20.3474 113.232 20.4415 112.511 20.4415C111.053 20.4415 109.861 20.0182 108.936 19.1872C108.011 18.3405 107.556 17.1489 107.556 15.581V8.29033H105.361V5.18591H107.556V0.858521H112.041V5.18591H116.321V8.32169H112.041V14.8284C112.041 16.0357 112.511 16.6472 113.483 16.6472C114.142 16.6472 114.878 16.459 115.678 16.0671L116.603 19.3596Z" fill="#231F20"/>
<path d="M47.5856 3.7121H45.0927C41.5022 3.7121 38.5859 6.50294 38.5859 9.95231V19.5635H42.7252V11.0498C42.7252 8.69799 43.8854 6.80085 46.3313 6.80085C47.5543 6.80085 48.3853 7.27122 49.1849 8.03948C49.9845 8.80775 50.204 9.87391 50.204 11.0498V19.5635H54.061V9.95231C54.0924 6.50294 51.1761 3.7121 47.5856 3.7121Z" fill="#231F20"/>
<path d="M64.7067 3.7121H62.2138C58.6233 3.7121 55.707 6.50294 55.707 9.95231V19.5635H59.8463V11.0498C59.8463 8.69799 61.0065 6.80085 63.4524 6.80085C64.6754 6.80085 65.5064 7.27122 66.306 8.03948C67.1056 8.80775 67.3251 9.87391 67.3251 11.0498V19.5635H71.1821V9.95231C71.1978 6.50294 68.2972 3.7121 64.7067 3.7121Z" fill="#231F20"/>
<path d="M13.8445 6.04824C12.9038 5.56219 11.9473 5.32701 10.9909 5.32701C9.84637 5.32701 8.7802 5.60923 7.82378 6.17367C6.86737 6.73811 6.11478 7.50638 5.56602 8.49415C5.01726 9.48192 4.75072 10.5481 4.75072 11.7397C4.75072 12.9313 5.01726 14.0131 5.56602 15.0009C6.11478 15.9887 6.86737 16.7726 7.82378 17.3371C8.7802 17.9172 9.83069 18.1994 10.9909 18.1994C11.916 18.1994 12.841 17.9799 13.7818 17.5409C14.7225 17.1019 15.5692 16.5061 16.3218 15.7692L19.0499 18.7325C17.9524 19.8614 16.6667 20.7707 15.1929 21.4293C13.7191 22.0878 12.2452 22.417 10.7557 22.417C8.74884 22.417 6.91441 21.9623 5.2838 21.0216C3.63751 20.0965 2.35184 18.8266 1.41111 17.196C0.47037 15.581 0 13.7623 0 11.771C0 9.7955 0.470371 8.0081 1.44246 6.40885C2.39888 4.8096 3.7159 3.55529 5.37787 2.63023C7.03984 1.70518 8.88995 1.25049 10.9282 1.25049C12.4177 1.25049 13.8758 1.56407 15.3183 2.17554C16.7608 2.78702 17.9994 3.61801 19.0029 4.68418L16.3061 7.99242C15.6162 7.1928 14.7852 6.53429 13.8445 6.04824Z" fill="#231F20"/>
<path d="M31.6394 12.5394C31.6394 14.6403 29.9461 16.3337 27.8451 16.3337C25.7441 16.3337 24.0508 14.6403 24.0508 12.5394C24.0508 10.4384 25.7441 8.74506 27.8451 8.74506C29.9461 8.74506 31.6394 10.4384 31.6394 12.5394Z" fill="#F47E20"/>
<path d="M27.8464 3.80615C23.033 3.80615 19.1289 7.7102 19.1289 12.5393C19.1289 17.3527 23.033 21.2568 27.8464 21.2568C32.6598 21.2568 36.5639 17.3527 36.5639 12.5393C36.5639 7.7102 32.6598 3.80615 27.8464 3.80615ZM27.8464 19.0774C24.2402 19.0774 21.3083 16.1455 21.3083 12.5393C21.3083 8.93316 24.2402 6.0012 27.8464 6.0012C31.4525 6.0012 34.3845 8.93316 34.3845 12.5393C34.3845 16.1455 31.4525 19.0774 27.8464 19.0774Z" fill="#F47E20"/>
<path d="M3.96612 27.8263C3.58983 27.7009 3.26056 27.6382 2.99402 27.6382C2.74316 27.6382 2.53933 27.6852 2.38255 27.7793C2.22576 27.8733 2.16304 28.0145 2.16304 28.1869C2.16304 28.4221 2.27279 28.5946 2.4923 28.72C2.7118 28.8454 3.04106 28.9709 3.48007 29.0963C3.93476 29.2217 4.29537 29.3628 4.59327 29.4883C4.87549 29.6137 5.12636 29.8175 5.33018 30.0841C5.53401 30.3506 5.64376 30.6955 5.64376 31.1189C5.64376 31.5422 5.53401 31.9028 5.31451 32.2007C5.095 32.4986 4.7971 32.7338 4.40513 32.8906C4.01315 33.0474 3.57414 33.1258 3.0881 33.1258C2.55501 33.1258 2.03761 33.0317 1.52021 32.8436C1.0028 32.6554 0.563794 32.4045 0.1875 32.0753L0.783295 30.868C1.11255 31.1659 1.48885 31.4011 1.92786 31.5892C2.35119 31.7774 2.74316 31.8558 3.10377 31.8558C3.40167 31.8558 3.65254 31.7931 3.82501 31.6833C3.99748 31.5736 4.07587 31.4168 4.07587 31.1973C4.07587 31.0248 4.01315 30.8837 3.9034 30.7739C3.79365 30.6642 3.63686 30.5701 3.46439 30.5074C3.29193 30.4447 3.04106 30.3663 2.72748 30.2722C2.27279 30.1468 1.91218 30.0214 1.62996 29.8959C1.34774 29.7705 1.09687 29.5823 0.893047 29.3315C0.689221 29.0806 0.579473 28.7357 0.579473 28.3124C0.579473 27.9204 0.689221 27.5754 0.893047 27.2775C1.09687 26.9796 1.39478 26.7601 1.78675 26.6034C2.16304 26.4466 2.60205 26.3682 3.11946 26.3682C3.57415 26.3682 4.01315 26.4309 4.45216 26.5563C4.89117 26.6817 5.26747 26.8542 5.61241 27.0737L5.04796 28.2967C4.70303 28.1242 4.34241 27.9517 3.96612 27.8263Z" fill="#231F20"/>
<path d="M11.2408 31.4481C11.5073 31.7147 11.8523 31.8558 12.307 31.8558C12.7303 31.8558 13.0752 31.7147 13.3418 31.4481C13.5926 31.1816 13.7181 30.8053 13.7181 30.3349V26.4936H15.1919V30.3349C15.1919 30.915 15.0821 31.4011 14.8469 31.8244C14.6118 32.2478 14.2825 32.5613 13.8435 32.7965C13.4045 33.0317 12.8871 33.1415 12.307 33.1415C11.7112 33.1415 11.1938 33.0317 10.7547 32.7965C10.3157 32.577 9.9708 32.2478 9.73562 31.8244C9.50044 31.4011 9.375 30.8994 9.375 30.3349V26.4936H10.8488V30.3349C10.8488 30.8053 10.9743 31.1816 11.2408 31.4481Z" fill="#231F20"/>
<path d="M23.3458 33.0474L22.311 31.1816H22.1699H20.8058V33.0474H19.332V26.5093H22.1699C23.0166 26.5093 23.6908 26.7131 24.1455 27.1051C24.6158 27.4971 24.851 28.0615 24.851 28.7827C24.851 29.2844 24.7413 29.7235 24.5374 30.0841C24.3336 30.4447 24.02 30.7112 23.6281 30.8994L25.0235 33.0631H23.3458V33.0474ZM20.8058 29.943H22.1699C22.5776 29.943 22.8911 29.8489 23.1107 29.6607C23.3302 29.4726 23.4399 29.1904 23.4399 28.8298C23.4399 28.4691 23.3302 28.2026 23.1107 28.0145C22.8911 27.8263 22.5776 27.7322 22.1699 27.7322H20.8058V29.943Z" fill="#231F20"/>
<path d="M28.8945 26.4936H33.5982L33.5825 27.7165H30.3684V29.3315H33.316V30.5701H30.3684V33.0474H28.8945V26.4936Z" fill="#231F20"/>
<path d="M47.0817 33.0474L46.5643 31.7774H43.5383L43.0208 33.0474H41.5L44.3379 26.5093H45.8587L48.6496 33.0474H47.0817ZM44.0243 30.5858H46.0939L45.0591 28.0458L44.0243 30.5858Z" fill="#231F20"/>
<path d="M56.6621 26.4936H58.0575V33.0317H56.7091L53.542 28.8297V33.0317H52.1309V26.4936H53.4792L56.6621 30.7112V26.4936Z" fill="#231F20"/>
<path d="M66.8691 26.9169C67.3865 27.1991 67.7942 27.5754 68.0921 28.0771C68.3743 28.5789 68.5311 29.1433 68.5311 29.7705C68.5311 30.3976 68.39 30.9777 68.0921 31.4638C67.7942 31.9655 67.3866 32.3418 66.8535 32.624C66.3204 32.9062 65.7246 33.0473 65.0347 33.0473H62.3223V26.5092H65.0974C65.7559 26.4936 66.3517 26.6347 66.8691 26.9169ZM66.1009 31.5422C66.3988 31.3697 66.6183 31.1345 66.7751 30.8209C66.9319 30.523 67.0259 30.1624 67.0259 29.7705C67.0259 29.3785 66.9475 29.0179 66.7751 28.72C66.6026 28.4221 66.3674 28.1712 66.0695 27.9987C65.7716 27.8263 65.4424 27.7479 65.0661 27.7479H63.7961V31.8087H65.1288C65.4894 31.793 65.8187 31.7146 66.1009 31.5422Z" fill="#231F20"/>
<path d="M80.5423 27.8263C80.166 27.7009 79.8367 27.6382 79.5702 27.6382C79.3193 27.6382 79.1155 27.6852 78.9587 27.7793C78.8019 27.8733 78.7392 28.0145 78.7392 28.1869C78.7392 28.4221 78.849 28.5946 79.0685 28.72C79.288 28.8454 79.6172 28.9709 80.0562 29.0963C80.5109 29.2217 80.8715 29.3628 81.1694 29.4883C81.4517 29.6137 81.7025 29.8175 81.9064 30.0841C82.1102 30.3506 82.2199 30.6955 82.2199 31.1189C82.2199 31.5422 82.1102 31.9028 81.8907 32.2007C81.6712 32.4986 81.3733 32.7338 80.9813 32.8906C80.5893 33.0474 80.1503 33.1258 79.6643 33.1258C79.1312 33.1258 78.6138 33.0317 78.0964 32.8436C77.579 32.6554 77.14 32.4045 76.7637 32.0753L77.3595 30.868C77.6887 31.1659 78.065 31.4011 78.504 31.5892C78.9274 31.7774 79.3193 31.8558 79.68 31.8558C79.9779 31.8558 80.2287 31.7931 80.4012 31.6833C80.5736 31.5736 80.652 31.4168 80.652 31.1973C80.652 31.0248 80.5893 30.8837 80.4796 30.7739C80.3698 30.6642 80.213 30.5701 80.0406 30.5074C79.8681 30.4447 79.6172 30.3663 79.3036 30.2722C78.849 30.1468 78.4884 30.0214 78.2061 29.8959C77.9239 29.7705 77.673 29.5823 77.4692 29.3315C77.2654 29.0806 77.1556 28.7357 77.1556 28.3124C77.1556 27.9204 77.2654 27.5754 77.4692 27.2775C77.673 26.9796 77.9709 26.7601 78.3629 26.6034C78.7392 26.4466 79.1782 26.3682 79.6956 26.3682C80.1503 26.3682 80.5893 26.4309 81.0283 26.5563C81.4674 26.6817 81.8436 26.8542 82.1886 27.0737L81.6241 28.2967C81.2635 28.1242 80.9186 27.9517 80.5423 27.8263Z" fill="#231F20"/>
<path d="M86.0607 26.4936H87.7069L89.7452 30.5074L91.7678 26.4936H93.3827V33.0317H92.05V28.6259L90.1842 32.3889H89.2278L87.362 28.6259V33.0474H86.0293V26.4936H86.0607Z" fill="#231F20"/>
<path d="M97.6484 26.4936H99.1223V33.0317H97.6484V26.4936Z" fill="#231F20"/>
<path d="M103.369 26.4936H104.843V31.746H107.649V33.0317H103.369V26.4936Z" fill="#231F20"/>
<path d="M111.334 26.4936H116.32V27.7165H112.808V29.1433H115.959V30.3663H112.808V31.8087H116.414V33.0317H111.334V26.4936Z" fill="#231F20"/>
</svg>
