<svg width="60" height="56" viewBox="0 0 60 56" fill="none" xmlns="http://www.w3.org/2000/svg">
<rect width="59.43" height="56" rx="16" fill="#FFF7EF"/>
<path d="M40.8571 38.2857H18.5714C17.1486 38.2857 16 37.1371 16 35.7143V20.2857C16 18.8629 17.1486 17.7143 18.5714 17.7143H40.8571C42.28 17.7143 43.4286 18.8629 43.4286 20.2857V35.7143C43.4286 37.1371 42.28 38.2857 40.8571 38.2857ZM18.5714 19.4286C18.0914 19.4286 17.7143 19.8057 17.7143 20.2857V35.7143C17.7143 36.1943 18.0914 36.5714 18.5714 36.5714H40.8571C41.3371 36.5714 41.7143 36.1943 41.7143 35.7143V20.2857C41.7143 19.8057 41.3371 19.4286 40.8571 19.4286H18.5714Z" fill="#FF7F00"/>
<path d="M29.7153 31.36C28.5153 31.36 27.4181 30.88 26.5953 30.0057L17.5953 20.44C17.2696 20.0971 17.2867 19.5486 17.6296 19.2229C17.9724 18.8971 18.521 18.9143 18.8467 19.2571L27.8467 28.8229C28.8238 29.8686 30.6067 29.8686 31.5838 28.8229L40.5838 19.2743C40.9096 18.9314 41.4581 18.9143 41.801 19.24C42.1438 19.5657 42.161 20.1143 41.8353 20.4571L32.8353 30.0229C32.0124 30.8971 30.9153 31.3771 29.7153 31.3771V31.36Z" fill="#FF7F00"/>
</svg>
