<svg width="32" height="35" viewBox="0 0 32 35" fill="none" xmlns="http://www.w3.org/2000/svg">
<path d="M1.29131 1.29757C0.900182 1.69732 0.673828 2.3197 0.673828 3.1257V31.8752C0.673828 32.6812 0.900182 33.3036 1.29131 33.7033L1.38784 33.7911L17.8885 17.6873V17.3071L1.38784 1.20332L1.29131 1.29757Z" fill="#8F8F8F"/>
<path d="M23.3828 23.0579L17.8887 17.6873V17.307L23.3894 11.9364L23.5126 12.0063L30.027 15.6252C31.8861 16.6522 31.8861 18.3422 30.027 19.3757L23.5126 22.988L23.3828 23.0579Z" fill="black" fill-opacity="0.9"/>
<path d="M23.5121 22.9881L17.8882 17.4972L1.29102 33.7033C1.9085 34.3371 2.91545 34.4135 4.06054 33.7797L23.5121 22.9881Z" fill="black" fill-opacity="0.9"/>
<path d="M23.5121 12.0064L4.06054 1.21475C2.91545 0.587505 1.9085 0.663878 1.29102 1.29763L17.8882 17.4972L23.5121 12.0064Z" fill="#8F8F8F"/>
</svg>
