<svg width="223" height="309" viewBox="0 0 223 309" fill="none" xmlns="http://www.w3.org/2000/svg">
<path d="M21.524 233.632C22.0061 233.15 22.0061 232.368 21.524 231.886C21.0419 231.404 20.2602 231.404 19.778 231.886C19.2959 232.368 19.2959 233.15 19.778 233.632C20.2602 234.114 21.0419 234.114 21.524 233.632Z" fill="#FF7F00" fill-opacity="0.4"/>
<path d="M40.9012 253.009C41.4356 252.475 41.4356 251.609 40.9012 251.074C40.3668 250.54 39.5004 250.54 38.9659 251.074C38.4315 251.609 38.4315 252.475 38.966 253.009C39.5004 253.544 40.3668 253.544 40.9012 253.009Z" fill="#FF7F00" fill-opacity="0.4"/>
<path d="M60.1838 272.292C60.7182 271.758 60.7182 270.891 60.1838 270.357C59.6494 269.822 58.7829 269.822 58.2485 270.357C57.7141 270.891 57.7141 271.758 58.2485 272.292C58.7829 272.826 59.6494 272.826 60.1838 272.292Z" fill="#FF7F00" fill-opacity="0.4"/>
<path d="M79.3717 291.48C79.8538 290.998 79.8538 290.216 79.3717 289.734C78.8896 289.252 78.1079 289.252 77.6257 289.734C77.1436 290.216 77.1436 290.998 77.6257 291.48C78.1079 291.962 78.8896 291.962 79.3717 291.48Z" fill="#FF7F00" fill-opacity="0.4"/>
<path d="M2.33608 175.879C2.87049 175.345 2.87049 174.478 2.33608 173.944C1.80167 173.41 0.935218 173.41 0.400808 173.944C-0.133601 174.478 -0.133603 175.345 0.400806 175.879C0.935216 176.414 1.80167 176.414 2.33608 175.879Z" fill="#FF7F00" fill-opacity="0.4"/>
<path d="M21.7975 195.341C22.4306 194.707 22.4306 193.681 21.7974 193.048C21.1643 192.415 20.1377 192.415 19.5046 193.048C18.8714 193.681 18.8714 194.707 19.5046 195.341C20.1377 195.974 21.1643 195.974 21.7975 195.341Z" fill="#FF7F00" fill-opacity="0.4"/>
<path d="M41.2588 214.802C41.9907 214.07 41.9907 212.883 41.2588 212.151C40.5269 211.42 39.3403 211.42 38.6083 212.151C37.8764 212.883 37.8764 214.07 38.6083 214.802C39.3403 215.534 40.5269 215.534 41.2588 214.802Z" fill="#FF7F00" fill-opacity="0.4"/>
<path d="M60.7202 234.263C61.5509 233.433 61.5509 232.086 60.7202 231.255C59.8895 230.425 58.5428 230.425 57.7121 231.255C56.8815 232.086 56.8815 233.433 57.7121 234.263C58.5428 235.094 59.8895 235.094 60.7202 234.263Z" fill="#FF7F00" fill-opacity="0.4"/>
<path d="M80.0028 253.546C80.8334 252.715 80.8334 251.368 80.0028 250.538C79.1721 249.707 77.8253 249.707 76.9947 250.538C76.164 251.368 76.164 252.715 76.9947 253.546C77.8253 254.377 79.1721 254.377 80.0028 253.546Z" fill="#FF7F00" fill-opacity="0.4"/>
<path d="M99.1065 272.65C99.8384 271.918 99.8384 270.731 99.1065 269.999C98.3746 269.267 97.188 269.267 96.4561 269.999C95.7242 270.731 95.7241 271.918 96.456 272.65C97.188 273.382 98.3746 273.382 99.1065 272.65Z" fill="#FF7F00" fill-opacity="0.4"/>
<path d="M118.21 291.753C118.843 291.12 118.843 290.094 118.21 289.461C117.577 288.827 116.551 288.827 115.917 289.461C115.284 290.094 115.284 291.12 115.917 291.753C116.551 292.387 117.577 292.387 118.21 291.753Z" fill="#FF7F00" fill-opacity="0.4"/>
<path d="M137.314 310.857C137.848 310.323 137.848 309.456 137.314 308.922C136.78 308.388 135.913 308.388 135.379 308.922C134.844 309.456 134.844 310.323 135.379 310.857C135.913 311.392 136.78 311.392 137.314 310.857Z" fill="#FF7F00" fill-opacity="0.4"/>
<path d="M2.33608 137.314C2.87049 136.78 2.87049 135.913 2.33608 135.379C1.80167 134.844 0.935216 134.844 0.400806 135.379C-0.133603 135.913 -0.133601 136.78 0.400808 137.314C0.935218 137.848 1.80167 137.848 2.33608 137.314Z" fill="#FF7F00" fill-opacity="0.4"/>
<path d="M21.8816 156.86C22.5612 156.18 22.5612 155.078 21.8816 154.398C21.202 153.719 20.1001 153.719 19.4204 154.398C18.7408 155.078 18.7408 156.18 19.4204 156.86C20.1001 157.539 21.202 157.539 21.8816 156.86Z" fill="#FF7F00" fill-opacity="0.4"/>
<path d="M41.4376 176.416C42.2683 175.585 42.2683 174.238 41.4376 173.408C40.607 172.577 39.2602 172.577 38.4295 173.408C37.5989 174.238 37.5989 175.585 38.4295 176.416C39.2602 177.246 40.607 177.246 41.4376 176.416Z" fill="#FF7F00" fill-opacity="0.4"/>
<path d="M60.9937 195.972C61.9753 194.99 61.9753 193.398 60.9937 192.417C60.012 191.435 58.4203 191.435 57.4386 192.417C56.457 193.398 56.457 194.99 57.4387 195.972C58.4203 196.953 60.012 196.953 60.9937 195.972Z" fill="#FF7F00" fill-opacity="0.4"/>
<path d="M80.5497 215.528C81.6824 214.395 81.6824 212.558 80.5497 211.426C79.417 210.293 77.5805 210.293 76.4478 211.426C75.315 212.558 75.315 214.395 76.4478 215.528C77.5805 216.66 79.417 216.66 80.5497 215.528Z" fill="#FF7F00" fill-opacity="0.4"/>
<path d="M99.8323 234.81C100.965 233.678 100.965 231.841 99.8323 230.708C98.6995 229.576 96.863 229.576 95.7303 230.708C94.5976 231.841 94.5976 233.678 95.7303 234.81C96.863 235.943 98.6995 235.943 99.8323 234.81Z" fill="#FF7F00" fill-opacity="0.4"/>
<path d="M118.841 253.819C119.823 252.838 119.823 251.246 118.841 250.264C117.86 249.283 116.268 249.283 115.286 250.264C114.305 251.246 114.305 252.838 115.286 253.819C116.268 254.801 117.86 254.801 118.841 253.819Z" fill="#FF7F00" fill-opacity="0.4"/>
<path d="M137.85 272.828C138.681 271.998 138.681 270.651 137.85 269.82C137.02 268.99 135.673 268.99 134.842 269.82C134.012 270.651 134.012 271.998 134.842 272.828C135.673 273.659 137.02 273.659 137.85 272.828Z" fill="#FF7F00" fill-opacity="0.4"/>
<path d="M156.86 291.838C157.539 291.158 157.539 290.056 156.86 289.376C156.18 288.697 155.078 288.697 154.398 289.376C153.719 290.056 153.719 291.158 154.398 291.838C155.078 292.517 156.18 292.517 156.86 291.838Z" fill="#FF7F00" fill-opacity="0.4"/>
<path d="M175.879 310.857C176.414 310.323 176.414 309.456 175.879 308.922C175.345 308.388 174.478 308.388 173.944 308.922C173.41 309.456 173.41 310.323 173.944 310.857C174.478 311.392 175.345 311.392 175.879 310.857Z" fill="#FF7F00" fill-opacity="0.4"/>
<path d="M21.7974 118.21C22.4306 117.577 22.4306 116.551 21.7975 115.917C21.1643 115.284 20.1377 115.284 19.5046 115.917C18.8714 116.551 18.8714 117.577 19.5046 118.21C20.1377 118.843 21.1643 118.843 21.7974 118.21Z" fill="#FF7F00" fill-opacity="0.4"/>
<path d="M41.4376 137.85C42.2683 137.02 42.2683 135.673 41.4376 134.842C40.607 134.012 39.2602 134.012 38.4295 134.842C37.5989 135.673 37.5989 137.02 38.4295 137.85C39.2602 138.681 40.607 138.681 41.4376 137.85Z" fill="#FF7F00" fill-opacity="0.4"/>
<path d="M61.0883 157.501C62.1223 156.467 62.1223 154.791 61.0883 153.757C60.0543 152.723 58.378 152.723 57.344 153.757C56.31 154.791 56.31 156.467 57.344 157.501C58.378 158.535 60.0543 158.535 61.0883 157.501Z" fill="#FF7F00" fill-opacity="0.4"/>
<path d="M80.7285 177.141C81.96 175.91 81.96 173.913 80.7285 172.682C79.497 171.45 77.5004 171.45 76.269 172.682C75.0375 173.913 75.0375 175.91 76.269 177.141C77.5004 178.373 79.497 178.373 80.7285 177.141Z" fill="#FF7F00" fill-opacity="0.4"/>
<path d="M100.369 196.782C101.798 195.353 101.798 193.036 100.369 191.607C98.9397 190.178 96.6229 190.178 95.1939 191.607C93.765 193.036 93.765 195.353 95.1939 196.782C96.6229 198.21 98.9397 198.21 100.369 196.782Z" fill="#FF7F00" fill-opacity="0.4"/>
<path d="M119.651 216.064C121.08 214.635 121.08 212.318 119.651 210.889C118.222 209.46 115.905 209.46 114.476 210.889C113.048 212.318 113.048 214.635 114.476 216.064C115.905 217.493 118.222 217.493 119.651 216.064Z" fill="#FF7F00" fill-opacity="0.4"/>
<path d="M138.576 234.989C139.808 233.758 139.808 231.761 138.576 230.53C137.345 229.298 135.348 229.298 134.117 230.53C132.885 231.761 132.885 233.758 134.117 234.989C135.348 236.221 137.345 236.22 138.576 234.989Z" fill="#FF7F00" fill-opacity="0.4"/>
<path d="M157.501 253.914C158.535 252.88 158.535 251.204 157.501 250.17C156.467 249.136 154.791 249.136 153.757 250.17C152.723 251.204 152.723 252.88 153.757 253.914C154.791 254.948 156.467 254.948 157.501 253.914Z" fill="#FF7F00" fill-opacity="0.4"/>
<path d="M176.416 272.828C177.246 271.998 177.246 270.651 176.416 269.82C175.585 268.99 174.238 268.99 173.408 269.82C172.577 270.651 172.577 271.998 173.408 272.828C174.238 273.659 175.585 273.659 176.416 272.828Z" fill="#FF7F00" fill-opacity="0.4"/>
<path d="M195.341 291.753C195.974 291.12 195.974 290.094 195.341 289.461C194.707 288.827 193.681 288.827 193.048 289.461C192.415 290.094 192.415 291.12 193.048 291.753C193.681 292.387 194.707 292.387 195.341 291.753Z" fill="#FF7F00" fill-opacity="0.4"/>
<path d="M21.524 79.3717C22.0061 78.8896 22.0061 78.1079 21.524 77.6257C21.0419 77.1436 20.2602 77.1436 19.778 77.6257C19.2959 78.1079 19.2959 78.8896 19.778 79.3717C20.2602 79.8538 21.0419 79.8538 21.524 79.3717Z" fill="#FF7F00" fill-opacity="0.4"/>
<path d="M41.2588 99.1065C41.9907 98.3746 41.9907 97.188 41.2588 96.456C40.5269 95.7241 39.3403 95.7241 38.6083 96.456C37.8764 97.188 37.8764 98.3746 38.6083 99.1065C39.3403 99.8384 40.5269 99.8384 41.2588 99.1065Z" fill="#FF7F00" fill-opacity="0.4"/>
<path d="M60.9937 118.841C61.9753 117.86 61.9753 116.268 60.9937 115.286C60.012 114.305 58.4203 114.305 57.4387 115.286C56.457 116.268 56.457 117.86 57.4386 118.841C58.4203 119.823 60.012 119.823 60.9937 118.841Z" fill="#FF7F00" fill-opacity="0.4"/>
<path d="M80.7285 138.576C81.96 137.345 81.96 135.348 80.7285 134.117C79.497 132.885 77.5004 132.885 76.269 134.117C75.0375 135.348 75.0375 137.345 76.269 138.576C77.5004 139.808 79.497 139.808 80.7285 138.576Z" fill="#FF7F00" fill-opacity="0.4"/>
<path d="M100.463 158.311C101.945 156.83 101.945 154.428 100.463 152.947C98.9821 151.466 96.5805 151.466 95.0993 152.947C93.618 154.428 93.618 156.83 95.0993 158.311C96.5805 159.792 98.9821 159.792 100.463 158.311Z" fill="#FF7F00" fill-opacity="0.4"/>
<path d="M120.198 178.046C121.929 176.315 121.929 173.508 120.198 171.777C118.467 170.046 115.661 170.046 113.93 171.777C112.199 173.508 112.199 176.315 113.93 178.046C115.661 179.777 118.467 179.777 120.198 178.046Z" fill="#FF7F00" fill-opacity="0.4"/>
<path d="M139.481 197.328C141.212 195.597 141.212 192.791 139.481 191.06C137.75 189.329 134.943 189.329 133.212 191.06C131.481 192.791 131.481 195.597 133.212 197.328C134.943 199.059 137.75 199.059 139.481 197.328Z" fill="#FF7F00" fill-opacity="0.4"/>
<path d="M158.311 216.159C159.792 214.677 159.792 212.276 158.311 210.795C156.83 209.313 154.428 209.313 152.947 210.795C151.466 212.276 151.466 214.677 152.947 216.159C154.428 217.64 156.83 217.64 158.311 216.159Z" fill="#FF7F00" fill-opacity="0.4"/>
<path d="M177.141 234.989C178.373 233.758 178.373 231.761 177.141 230.529C175.91 229.298 173.913 229.298 172.682 230.53C171.45 231.761 171.45 233.758 172.682 234.989C173.913 236.22 175.91 236.22 177.141 234.989Z" fill="#FF7F00" fill-opacity="0.4"/>
<path d="M195.972 253.819C196.953 252.838 196.953 251.246 195.972 250.264C194.99 249.283 193.398 249.283 192.417 250.264C191.435 251.246 191.435 252.838 192.417 253.819C193.398 254.801 194.99 254.801 195.972 253.819Z" fill="#FF7F00" fill-opacity="0.4"/>
<path d="M214.802 272.65C215.534 271.918 215.534 270.731 214.802 269.999C214.07 269.267 212.883 269.267 212.151 269.999C211.42 270.731 211.42 271.918 212.151 272.65C212.883 273.382 214.07 273.382 214.802 272.65Z" fill="#FF7F00" fill-opacity="0.4"/>
<path d="M233.632 291.48C234.114 290.998 234.114 290.216 233.632 289.734C233.15 289.252 232.368 289.252 231.886 289.734C231.404 290.216 231.404 290.998 231.886 291.48C232.368 291.962 233.15 291.962 233.632 291.48Z" fill="#FF7F00" fill-opacity="0.4"/>
<path d="M40.9012 60.1838C41.4356 59.6494 41.4356 58.7829 40.9012 58.2485C40.3668 57.7141 39.5004 57.7141 38.966 58.2485C38.4315 58.7829 38.4315 59.6494 38.9659 60.1838C39.5004 60.7182 40.3668 60.7182 40.9012 60.1838Z" fill="#FF7F00" fill-opacity="0.4"/>
<path d="M60.7202 80.0028C61.5509 79.1721 61.5509 77.8253 60.7202 76.9947C59.8895 76.164 58.5428 76.164 57.7121 76.9947C56.8815 77.8253 56.8815 79.1721 57.7121 80.0028C58.5428 80.8334 59.8895 80.8334 60.7202 80.0028Z" fill="#FF7F00" fill-opacity="0.4"/>
<path d="M80.5497 99.8323C81.6824 98.6995 81.6824 96.863 80.5497 95.7303C79.417 94.5976 77.5805 94.5976 76.4478 95.7303C75.315 96.863 75.315 98.6995 76.4478 99.8323C77.5805 100.965 79.417 100.965 80.5497 99.8323Z" fill="#FF7F00" fill-opacity="0.4"/>
<path d="M100.369 119.651C101.798 118.222 101.798 115.905 100.369 114.476C98.9397 113.048 96.6229 113.048 95.1939 114.476C93.765 115.905 93.765 118.222 95.1939 119.651C96.6229 121.08 98.9397 121.08 100.369 119.651Z" fill="#FF7F00" fill-opacity="0.4"/>
<path d="M120.198 139.481C121.929 137.75 121.929 134.943 120.198 133.212C118.467 131.481 115.661 131.481 113.93 133.212C112.199 134.943 112.199 137.75 113.93 139.481C115.661 141.212 118.467 141.212 120.198 139.481Z" fill="#FF7F00" fill-opacity="0.4"/>
<path d="M140.028 159.31C142.061 157.277 142.061 153.981 140.028 151.948C137.995 149.915 134.698 149.915 132.665 151.948C130.632 153.981 130.632 157.277 132.665 159.31C134.698 161.343 137.995 161.343 140.028 159.31Z" fill="#FF7F00" fill-opacity="0.4"/>
<path d="M159.31 178.593C161.343 176.56 161.343 173.263 159.31 171.23C157.277 169.197 153.981 169.197 151.948 171.23C149.915 173.263 149.915 176.56 151.948 178.593C153.981 180.626 157.277 180.626 159.31 178.593Z" fill="#FF7F00" fill-opacity="0.4"/>
<path d="M178.046 197.328C179.777 195.597 179.777 192.791 178.046 191.06C176.315 189.329 173.508 189.329 171.777 191.06C170.046 192.791 170.046 195.597 171.777 197.328C173.508 199.059 176.315 199.059 178.046 197.328Z" fill="#FF7F00" fill-opacity="0.4"/>
<path d="M196.782 216.064C198.21 214.635 198.21 212.318 196.782 210.889C195.353 209.46 193.036 209.46 191.607 210.889C190.178 212.318 190.178 214.635 191.607 216.064C193.036 217.493 195.353 217.493 196.782 216.064Z" fill="#FF7F00" fill-opacity="0.4"/>
<path d="M215.528 234.81C216.66 233.678 216.66 231.841 215.528 230.708C214.395 229.576 212.558 229.576 211.426 230.708C210.293 231.841 210.293 233.678 211.426 234.81C212.558 235.943 214.395 235.943 215.528 234.81Z" fill="#FF7F00" fill-opacity="0.4"/>
<path d="M234.263 253.546C235.094 252.715 235.094 251.368 234.263 250.538C233.433 249.707 232.086 249.707 231.255 250.538C230.425 251.368 230.425 252.715 231.255 253.546C232.086 254.377 233.433 254.377 234.263 253.546Z" fill="#FF7F00" fill-opacity="0.4"/>
<path d="M253.009 272.292C253.544 271.758 253.544 270.891 253.009 270.357C252.475 269.822 251.609 269.822 251.074 270.357C250.54 270.891 250.54 271.758 251.074 272.292C251.609 272.826 252.475 272.826 253.009 272.292Z" fill="#FF7F00" fill-opacity="0.4"/>
<path d="M60.1838 40.9012C60.7182 40.3668 60.7182 39.5004 60.1838 38.9659C59.6494 38.4315 58.7829 38.4315 58.2485 38.9659C57.7141 39.5004 57.7141 40.3668 58.2485 40.9012C58.7829 41.4356 59.6494 41.4356 60.1838 40.9012Z" fill="#FF7F00" fill-opacity="0.4"/>
<path d="M80.0028 60.7202C80.8334 59.8895 80.8334 58.5428 80.0028 57.7121C79.1721 56.8815 77.8253 56.8815 76.9947 57.7121C76.164 58.5428 76.164 59.8895 76.9947 60.7202C77.8253 61.5509 79.1721 61.5509 80.0028 60.7202Z" fill="#FF7F00" fill-opacity="0.4"/>
<path d="M99.8323 80.5497C100.965 79.417 100.965 77.5805 99.8323 76.4477C98.6995 75.315 96.863 75.315 95.7303 76.4478C94.5976 77.5805 94.5976 79.417 95.7303 80.5497C96.863 81.6824 98.6995 81.6824 99.8323 80.5497Z" fill="#FF7F00" fill-opacity="0.4"/>
<path d="M119.651 100.369C121.08 98.9397 121.08 96.6229 119.651 95.1939C118.222 93.765 115.905 93.765 114.476 95.1939C113.048 96.6229 113.048 98.9397 114.476 100.369C115.905 101.798 118.222 101.798 119.651 100.369Z" fill="#FF7F00" fill-opacity="0.4"/>
<path d="M139.481 120.198C141.212 118.467 141.212 115.661 139.481 113.93C137.75 112.199 134.943 112.199 133.212 113.93C131.481 115.661 131.481 118.467 133.212 120.198C134.943 121.929 137.75 121.929 139.481 120.198Z" fill="#FF7F00" fill-opacity="0.4"/>
<path d="M159.31 140.028C161.343 137.995 161.343 134.698 159.31 132.665C157.277 130.632 153.981 130.632 151.948 132.665C149.915 134.698 149.915 137.995 151.948 140.028C153.981 142.061 157.277 142.061 159.31 140.028Z" fill="#FF7F00" fill-opacity="0.4"/>
<path d="M178.593 159.31C180.626 157.277 180.626 153.981 178.593 151.948C176.56 149.915 173.263 149.915 171.23 151.948C169.197 153.981 169.197 157.277 171.23 159.31C173.263 161.343 176.56 161.343 178.593 159.31Z" fill="#FF7F00" fill-opacity="0.4"/>
<path d="M197.328 178.046C199.059 176.315 199.059 173.508 197.328 171.777C195.597 170.046 192.791 170.046 191.06 171.777C189.329 173.508 189.329 176.315 191.06 178.046C192.791 179.777 195.597 179.777 197.328 178.046Z" fill="#FF7F00" fill-opacity="0.4"/>
<path d="M216.064 196.782C217.493 195.353 217.493 193.036 216.064 191.607C214.635 190.178 212.318 190.178 210.889 191.607C209.46 193.036 209.46 195.353 210.889 196.782C212.318 198.21 214.635 198.21 216.064 196.782Z" fill="#FF7F00" fill-opacity="0.4"/>
<path d="M234.81 215.528C235.943 214.395 235.943 212.558 234.81 211.426C233.678 210.293 231.841 210.293 230.708 211.426C229.576 212.558 229.576 214.395 230.708 215.528C231.841 216.66 233.678 216.66 234.81 215.528Z" fill="#FF7F00" fill-opacity="0.4"/>
<path d="M253.546 234.263C254.377 233.433 254.377 232.086 253.546 231.255C252.715 230.425 251.368 230.425 250.538 231.255C249.707 232.086 249.707 233.433 250.538 234.263C251.368 235.094 252.715 235.094 253.546 234.263Z" fill="#FF7F00" fill-opacity="0.4"/>
<path d="M272.292 253.009C272.826 252.475 272.826 251.609 272.292 251.074C271.758 250.54 270.891 250.54 270.357 251.074C269.822 251.609 269.822 252.475 270.357 253.009C270.891 253.544 271.758 253.544 272.292 253.009Z" fill="#FF7F00" fill-opacity="0.4"/>
<path d="M79.3717 21.524C79.8538 21.0419 79.8538 20.2602 79.3717 19.778C78.8896 19.2959 78.1079 19.2959 77.6257 19.778C77.1436 20.2602 77.1436 21.0419 77.6257 21.524C78.1079 22.0061 78.8896 22.0061 79.3717 21.524Z" fill="#FF7F00" fill-opacity="0.4"/>
<path d="M99.1065 41.2588C99.8384 40.5269 99.8384 39.3403 99.1065 38.6083C98.3746 37.8764 97.188 37.8764 96.456 38.6083C95.7241 39.3402 95.7242 40.5269 96.4561 41.2588C97.188 41.9907 98.3746 41.9907 99.1065 41.2588Z" fill="#FF7F00" fill-opacity="0.4"/>
<path d="M118.841 60.9937C119.823 60.012 119.823 58.4203 118.841 57.4386C117.86 56.457 116.268 56.457 115.286 57.4386C114.305 58.4203 114.305 60.012 115.286 60.9937C116.268 61.9753 117.86 61.9753 118.841 60.9937Z" fill="#FF7F00" fill-opacity="0.4"/>
<path d="M138.576 80.7285C139.808 79.497 139.808 77.5004 138.576 76.269C137.345 75.0375 135.348 75.0375 134.117 76.269C132.885 77.5004 132.885 79.497 134.117 80.7285C135.348 81.9599 137.345 81.96 138.576 80.7285Z" fill="#FF7F00" fill-opacity="0.4"/>
<path d="M158.311 100.463C159.792 98.9821 159.792 96.5805 158.311 95.0993C156.83 93.618 154.428 93.618 152.947 95.0993C151.466 96.5805 151.466 98.9821 152.947 100.463C154.428 101.945 156.83 101.945 158.311 100.463Z" fill="#FF7F00" fill-opacity="0.4"/>
<path d="M178.046 120.198C179.777 118.467 179.777 115.661 178.046 113.93C176.315 112.199 173.508 112.199 171.777 113.93C170.046 115.661 170.046 118.467 171.777 120.198C173.508 121.929 176.315 121.929 178.046 120.198Z" fill="#FF7F00" fill-opacity="0.4"/>
<path d="M197.328 139.481C199.059 137.75 199.059 134.943 197.328 133.212C195.597 131.481 192.791 131.481 191.06 133.212C189.329 134.943 189.329 137.75 191.06 139.481C192.791 141.212 195.597 141.212 197.328 139.481Z" fill="#FF7F00" fill-opacity="0.4"/>
<path d="M216.159 158.311C217.64 156.83 217.64 154.428 216.159 152.947C214.677 151.466 212.276 151.466 210.795 152.947C209.313 154.428 209.313 156.83 210.795 158.311C212.276 159.792 214.677 159.792 216.159 158.311Z" fill="#FF7F00" fill-opacity="0.4"/>
<path d="M234.989 177.141C236.221 175.91 236.22 173.913 234.989 172.682C233.758 171.45 231.761 171.45 230.53 172.682C229.298 173.913 229.298 175.91 230.53 177.141C231.761 178.373 233.758 178.373 234.989 177.141Z" fill="#FF7F00" fill-opacity="0.4"/>
<path d="M253.819 195.972C254.801 194.99 254.801 193.398 253.819 192.417C252.838 191.435 251.246 191.435 250.264 192.417C249.283 193.398 249.283 194.99 250.264 195.972C251.246 196.953 252.838 196.953 253.819 195.972Z" fill="#FF7F00" fill-opacity="0.4"/>
<path d="M272.65 214.802C273.382 214.07 273.382 212.883 272.65 212.151C271.918 211.42 270.731 211.42 269.999 212.151C269.267 212.883 269.267 214.07 269.999 214.802C270.731 215.534 271.918 215.534 272.65 214.802Z" fill="#FF7F00" fill-opacity="0.4"/>
<path d="M291.48 233.632C291.962 233.15 291.962 232.368 291.48 231.886C290.998 231.404 290.216 231.404 289.734 231.886C289.252 232.368 289.252 233.15 289.734 233.632C290.216 234.114 290.998 234.114 291.48 233.632Z" fill="#FF7F00" fill-opacity="0.4"/>
<path d="M118.21 21.7975C118.843 21.1643 118.843 20.1377 118.21 19.5046C117.577 18.8714 116.551 18.8714 115.917 19.5046C115.284 20.1377 115.284 21.1643 115.917 21.7975C116.551 22.4306 117.577 22.4306 118.21 21.7975Z" fill="#FF7F00" fill-opacity="0.4"/>
<path d="M137.85 41.4376C138.681 40.607 138.681 39.2602 137.85 38.4295C137.02 37.5989 135.673 37.5989 134.842 38.4296C134.012 39.2602 134.012 40.607 134.842 41.4376C135.673 42.2683 137.02 42.2683 137.85 41.4376Z" fill="#FF7F00" fill-opacity="0.4"/>
<path d="M157.501 61.0883C158.535 60.0544 158.535 58.378 157.501 57.344C156.467 56.31 154.791 56.31 153.757 57.344C152.723 58.378 152.723 60.0544 153.757 61.0883C154.791 62.1223 156.467 62.1223 157.501 61.0883Z" fill="#FF7F00" fill-opacity="0.4"/>
<path d="M177.141 80.7285C178.373 79.497 178.373 77.5004 177.141 76.269C175.91 75.0375 173.913 75.0375 172.682 76.269C171.45 77.5004 171.45 79.497 172.682 80.7285C173.913 81.96 175.91 81.96 177.141 80.7285Z" fill="#FF7F00" fill-opacity="0.4"/>
<path d="M196.782 100.369C198.21 98.9397 198.21 96.6229 196.782 95.1939C195.353 93.765 193.036 93.765 191.607 95.1939C190.178 96.6229 190.178 98.9397 191.607 100.369C193.036 101.798 195.353 101.798 196.782 100.369Z" fill="#FF7F00" fill-opacity="0.4"/>
<path d="M216.064 119.651C217.493 118.222 217.493 115.905 216.064 114.476C214.635 113.048 212.318 113.048 210.889 114.476C209.46 115.905 209.46 118.222 210.889 119.651C212.318 121.08 214.635 121.08 216.064 119.651Z" fill="#FF7F00" fill-opacity="0.4"/>
<path d="M234.989 138.576C236.22 137.345 236.221 135.348 234.989 134.117C233.758 132.885 231.761 132.885 230.53 134.117C229.298 135.348 229.298 137.345 230.53 138.576C231.761 139.808 233.758 139.808 234.989 138.576Z" fill="#FF7F00" fill-opacity="0.4"/>
<path d="M253.914 157.501C254.948 156.467 254.948 154.791 253.914 153.757C252.88 152.723 251.204 152.723 250.17 153.757C249.136 154.791 249.136 156.467 250.17 157.501C251.204 158.535 252.88 158.535 253.914 157.501Z" fill="#FF7F00" fill-opacity="0.4"/>
<path d="M272.828 176.416C273.659 175.585 273.659 174.238 272.828 173.408C271.998 172.577 270.651 172.577 269.82 173.408C268.99 174.238 268.99 175.585 269.82 176.416C270.651 177.246 271.998 177.246 272.828 176.416Z" fill="#FF7F00" fill-opacity="0.4"/>
<path d="M291.753 195.341C292.387 194.707 292.387 193.681 291.753 193.048C291.12 192.415 290.094 192.415 289.461 193.048C288.827 193.681 288.827 194.707 289.461 195.341C290.094 195.974 291.12 195.974 291.753 195.341Z" fill="#FF7F00" fill-opacity="0.4"/>
<path d="M137.314 2.33608C137.848 1.80167 137.848 0.935218 137.314 0.400808C136.78 -0.133601 135.913 -0.133603 135.379 0.400806C134.844 0.935216 134.844 1.80166 135.379 2.33607C135.913 2.87048 136.78 2.87049 137.314 2.33608Z" fill="#FF7F00" fill-opacity="0.4"/>
<path d="M156.86 21.8816C157.539 21.202 157.539 20.1001 156.86 19.4204C156.18 18.7408 155.078 18.7408 154.398 19.4204C153.719 20.1001 153.719 21.202 154.398 21.8816C155.078 22.5612 156.18 22.5612 156.86 21.8816Z" fill="#FF7F00" fill-opacity="0.4"/>
<path d="M176.416 41.4376C177.246 40.607 177.246 39.2602 176.416 38.4295C175.585 37.5989 174.238 37.5989 173.408 38.4295C172.577 39.2602 172.577 40.607 173.408 41.4376C174.238 42.2683 175.585 42.2683 176.416 41.4376Z" fill="#FF7F00" fill-opacity="0.4"/>
<path d="M195.972 60.9937C196.953 60.012 196.953 58.4203 195.972 57.4386C194.99 56.457 193.398 56.457 192.417 57.4386C191.435 58.4203 191.435 60.012 192.417 60.9937C193.398 61.9753 194.99 61.9753 195.972 60.9937Z" fill="#FF7F00" fill-opacity="0.4"/>
<path d="M215.528 80.5497C216.66 79.417 216.66 77.5805 215.528 76.4478C214.395 75.315 212.558 75.315 211.426 76.4478C210.293 77.5805 210.293 79.417 211.426 80.5497C212.558 81.6824 214.395 81.6824 215.528 80.5497Z" fill="#FF7F00" fill-opacity="0.4"/>
<path d="M234.81 99.8323C235.943 98.6995 235.943 96.863 234.81 95.7303C233.678 94.5976 231.841 94.5976 230.708 95.7303C229.576 96.863 229.576 98.6995 230.708 99.8323C231.841 100.965 233.678 100.965 234.81 99.8323Z" fill="#FF7F00" fill-opacity="0.4"/>
<path d="M253.819 118.841C254.801 117.86 254.801 116.268 253.819 115.286C252.838 114.305 251.246 114.305 250.264 115.286C249.283 116.268 249.283 117.86 250.264 118.841C251.246 119.823 252.838 119.823 253.819 118.841Z" fill="#FF7F00" fill-opacity="0.4"/>
<path d="M272.828 137.85C273.659 137.02 273.659 135.673 272.828 134.842C271.998 134.012 270.651 134.012 269.82 134.842C268.99 135.673 268.99 137.02 269.82 137.85C270.651 138.681 271.998 138.681 272.828 137.85Z" fill="#FF7F00" fill-opacity="0.4"/>
<path d="M291.838 156.86C292.517 156.18 292.517 155.078 291.838 154.398C291.158 153.719 290.056 153.719 289.376 154.398C288.697 155.078 288.697 156.18 289.376 156.86C290.056 157.539 291.158 157.539 291.838 156.86Z" fill="#FF7F00" fill-opacity="0.4"/>
<path d="M310.857 175.879C311.392 175.345 311.392 174.478 310.857 173.944C310.323 173.41 309.456 173.41 308.922 173.944C308.388 174.478 308.388 175.345 308.922 175.879C309.456 176.414 310.323 176.414 310.857 175.879Z" fill="#FF7F00" fill-opacity="0.4"/>
<path d="M175.879 2.33608C176.414 1.80167 176.414 0.935224 175.879 0.400814C175.345 -0.133595 174.478 -0.133595 173.944 0.400814C173.41 0.935224 173.41 1.80167 173.944 2.33608C174.478 2.87049 175.345 2.87049 175.879 2.33608Z" fill="#FF7F00" fill-opacity="0.4"/>
<path d="M195.341 21.7975C195.974 21.1643 195.974 20.1377 195.341 19.5046C194.707 18.8714 193.681 18.8714 193.048 19.5046C192.415 20.1377 192.415 21.1643 193.048 21.7974C193.681 22.4306 194.707 22.4306 195.341 21.7975Z" fill="#FF7F00" fill-opacity="0.4"/>
<path d="M214.802 41.2588C215.534 40.5269 215.534 39.3403 214.802 38.6084C214.07 37.8764 212.883 37.8764 212.151 38.6083C211.42 39.3403 211.42 40.5269 212.151 41.2588C212.883 41.9907 214.07 41.9907 214.802 41.2588Z" fill="#FF7F00" fill-opacity="0.4"/>
<path d="M234.263 60.7202C235.094 59.8895 235.094 58.5428 234.263 57.7121C233.433 56.8815 232.086 56.8815 231.255 57.7121C230.425 58.5428 230.425 59.8895 231.255 60.7202C232.086 61.5509 233.433 61.5509 234.263 60.7202Z" fill="#FF7F00" fill-opacity="0.4"/>
<path d="M253.546 80.0028C254.377 79.1721 254.377 77.8254 253.546 76.9947C252.715 76.164 251.368 76.164 250.538 76.9947C249.707 77.8253 249.707 79.1721 250.538 80.0028C251.368 80.8334 252.715 80.8334 253.546 80.0028Z" fill="#FF7F00" fill-opacity="0.4"/>
<path d="M272.65 99.1065C273.382 98.3746 273.382 97.188 272.65 96.4561C271.918 95.7242 270.731 95.7242 269.999 96.4561C269.267 97.188 269.267 98.3746 269.999 99.1065C270.731 99.8384 271.918 99.8384 272.65 99.1065Z" fill="#FF7F00" fill-opacity="0.4"/>
<path d="M291.753 118.21C292.387 117.577 292.387 116.551 291.753 115.917C291.12 115.284 290.094 115.284 289.461 115.917C288.827 116.551 288.827 117.577 289.461 118.21C290.094 118.843 291.12 118.843 291.753 118.21Z" fill="#FF7F00" fill-opacity="0.4"/>
<path d="M310.857 137.314C311.392 136.78 311.392 135.913 310.857 135.379C310.323 134.844 309.456 134.844 308.922 135.379C308.388 135.913 308.388 136.78 308.922 137.314C309.456 137.848 310.323 137.848 310.857 137.314Z" fill="#FF7F00" fill-opacity="0.4"/>
<path d="M233.632 21.524C234.114 21.0419 234.114 20.2602 233.632 19.778C233.15 19.2959 232.368 19.2959 231.886 19.778C231.404 20.2602 231.404 21.0419 231.886 21.524C232.368 22.0061 233.15 22.0061 233.632 21.524Z" fill="#FF7F00" fill-opacity="0.4"/>
<path d="M253.009 40.9012C253.544 40.3668 253.544 39.5004 253.009 38.966C252.475 38.4316 251.609 38.4315 251.074 38.966C250.54 39.5004 250.54 40.3668 251.074 40.9012C251.609 41.4356 252.475 41.4356 253.009 40.9012Z" fill="#FF7F00" fill-opacity="0.4"/>
<path d="M272.292 60.1838C272.826 59.6494 272.826 58.7829 272.292 58.2485C271.758 57.7141 270.891 57.7141 270.357 58.2485C269.822 58.7829 269.822 59.6494 270.357 60.1838C270.891 60.7182 271.758 60.7182 272.292 60.1838Z" fill="#FF7F00" fill-opacity="0.4"/>
<path d="M291.48 79.3717C291.962 78.8896 291.962 78.1079 291.48 77.6257C290.998 77.1436 290.216 77.1436 289.734 77.6257C289.252 78.1079 289.252 78.8896 289.734 79.3717C290.216 79.8538 290.998 79.8538 291.48 79.3717Z" fill="#FF7F00" fill-opacity="0.4"/>
</svg>
