<svg width="18" height="18" viewBox="0 0 18 18" fill="none" xmlns="http://www.w3.org/2000/svg">
<path d="M0 14.46V17.5C0 17.78 0.22 18 0.5 18H3.54C3.67 18 3.8 17.95 3.89 17.85L14.81 6.94L11.06 3.19L0.15 14.1C0.0500001 14.2 0 14.32 0 14.46ZM17.71 2.63L15.37 0.289999C15.2775 0.197295 15.1676 0.123748 15.0466 0.0735662C14.9257 0.0233847 14.796 -0.00244522 14.665 -0.00244522C14.534 -0.00244522 14.4043 0.0233847 14.2834 0.0735662C14.1624 0.123748 14.0525 0.197295 13.96 0.289999L12.13 2.12L15.88 5.87L17.71 4.04C17.8027 3.94749 17.8762 3.8376 17.9264 3.71662C17.9766 3.59565 18.0024 3.46597 18.0024 3.335C18.0024 3.20403 17.9766 3.07435 17.9264 2.95337C17.8762 2.8324 17.8027 2.72251 17.71 2.63Z" fill="black" fill-opacity="0.9"/>
</svg>
