<svg width="64" height="64" viewBox="0 0 64 64" fill="none" xmlns="http://www.w3.org/2000/svg">
<rect width="64" height="64" rx="16" fill="#FFF7EF"/>
<path d="M31.9995 43.2307C31.4253 43.2307 30.94 43.0325 30.5435 42.636C30.1471 42.2396 29.9489 41.7542 29.9489 41.18C29.9489 40.6049 30.1471 40.1191 30.5435 39.7227C30.94 39.3262 31.4253 39.128 31.9995 39.128C32.5738 39.128 33.0591 39.3262 33.4555 39.7227C33.852 40.1191 34.0502 40.6049 34.0502 41.18C34.0502 41.7542 33.852 42.2396 33.4555 42.636C33.0591 43.0325 32.5738 43.2307 31.9995 43.2307ZM24.4662 36.4667L23.1022 35.0867C24.2595 33.9293 25.5947 33.0231 27.1075 32.368C28.6204 31.712 30.2524 31.384 32.0035 31.384C33.7547 31.384 35.3858 31.7129 36.8969 32.3707C38.4062 33.0293 39.7395 33.94 40.8969 35.1027L39.5329 36.4667C38.5551 35.4889 37.4218 34.7222 36.1329 34.1667C34.844 33.6111 33.4662 33.3333 31.9995 33.3333C30.5329 33.3333 29.1551 33.6111 27.8662 34.1667C26.5773 34.7222 25.444 35.4889 24.4662 36.4667ZM18.7995 30.8L17.4355 29.436C19.2915 27.5693 21.4582 26.0938 23.9355 25.0093C26.412 23.9267 29.1 23.3853 31.9995 23.3853C34.8991 23.3853 37.5871 23.9276 40.0635 25.012C42.5409 26.0956 44.7075 27.5707 46.5635 29.4373L45.1995 30.8C43.4884 29.0889 41.5053 27.7502 39.2502 26.784C36.9951 25.8178 34.5782 25.3342 31.9995 25.3333C29.4218 25.3333 27.0053 25.8169 24.7502 26.784C22.4951 27.7511 20.5115 29.0898 18.7995 30.8Z" fill="#FF7F00"/>
</svg>
