<svg width="490" height="21" viewBox="0 0 490 21" fill="none" xmlns="http://www.w3.org/2000/svg">
<rect y="9.5" width="198" height="2" fill="#666666" fill-opacity="0.25"/>
<path d="M232.898 14.38C231.722 15.652 230.15 16.288 228.182 16.288C226.214 16.288 224.636 15.652 223.448 14.38C222.272 13.108 221.684 11.548 221.684 9.7C221.684 7.852 222.272 6.292 223.448 5.02C224.636 3.748 226.214 3.112 228.182 3.112C230.15 3.112 231.722 3.748 232.898 5.02C234.086 6.292 234.68 7.852 234.68 9.7C234.68 11.548 234.086 13.108 232.898 14.38ZM224.69 13.336C225.554 14.32 226.718 14.812 228.182 14.812C229.646 14.812 230.81 14.32 231.674 13.336C232.538 12.352 232.964 11.14 232.952 9.7C232.964 8.26 232.538 7.048 231.674 6.064C230.81 5.08 229.646 4.588 228.182 4.588C226.718 4.588 225.554 5.08 224.69 6.064C223.826 7.048 223.394 8.26 223.394 9.7C223.394 11.14 223.826 12.352 224.69 13.336ZM245.532 7.756C245.532 8.74 245.286 9.598 244.794 10.33C244.302 11.062 243.636 11.572 242.796 11.86L245.352 16H243.48L241.05 12.094H238.422V16H236.784V3.4H241.302C242.538 3.4 243.552 3.808 244.344 4.624C245.136 5.44 245.532 6.484 245.532 7.756ZM238.422 4.876V10.618H241.212C241.992 10.618 242.634 10.348 243.138 9.808C243.642 9.268 243.894 8.584 243.894 7.756C243.894 6.916 243.642 6.226 243.138 5.686C242.634 5.146 241.992 4.876 241.212 4.876H238.422Z" fill="#666666"/>
<rect x="270" y="9.5" width="198" height="2" fill="#666666" fill-opacity="0.25"/>
</svg>
